<mxfile host="65bd71144e">
    <diagram id="UurclhrEd7DuxAuwqnIH" name="Page-1">
        <mxGraphModel dx="1177" dy="806" grid="1" gridSize="10" guides="1" tooltips="1" connect="1" arrows="1" fold="1" page="1" pageScale="1" pageWidth="850" pageHeight="1100" math="0" shadow="0">
            <root>
                <mxCell id="0"/>
                <mxCell id="1" parent="0"/>
                <mxCell id="2" style="edgeStyle=none;html=1;" edge="1" parent="1" source="3">
                    <mxGeometry relative="1" as="geometry">
                        <mxPoint x="280" y="120" as="targetPoint"/>
                    </mxGeometry>
                </mxCell>
                <mxCell id="3" value="" style="shape=waypoint;sketch=0;size=6;pointerEvents=1;points=[];fillColor=none;resizable=0;rotatable=0;perimeter=centerPerimeter;snapToPoint=1;strokeWidth=12;" vertex="1" parent="1">
                    <mxGeometry x="270" y="30" width="20" height="20" as="geometry"/>
                </mxCell>
                <mxCell id="4" style="edgeStyle=none;html=1;exitX=0.5;exitY=1;exitDx=0;exitDy=0;entryX=0.5;entryY=0;entryDx=0;entryDy=0;" edge="1" parent="1" source="5">
                    <mxGeometry relative="1" as="geometry">
                        <mxPoint x="280" y="200" as="targetPoint"/>
                    </mxGeometry>
                </mxCell>
                <mxCell id="37" style="edgeStyle=none;html=1;exitX=0.5;exitY=1;exitDx=0;exitDy=0;entryX=0.5;entryY=0;entryDx=0;entryDy=0;" edge="1" parent="1" source="5" target="28">
                    <mxGeometry relative="1" as="geometry"/>
                </mxCell>
                <mxCell id="5" value="Отображение окна каталога&amp;nbsp;" style="rounded=1;whiteSpace=wrap;html=1;strokeWidth=1;fontSize=14;arcSize=22;fontFamily=JetBrains Mono;fillColor=#fff2cc;strokeColor=#d6b656;verticalAlign=bottom;" vertex="1" parent="1">
                    <mxGeometry x="122" y="60" width="318" height="170" as="geometry"/>
                </mxCell>
                <mxCell id="8" value="" style="shape=waypoint;sketch=0;size=6;pointerEvents=1;points=[];fillColor=none;resizable=0;rotatable=0;perimeter=centerPerimeter;snapToPoint=1;strokeWidth=12;" vertex="1" parent="1">
                    <mxGeometry x="270" y="680" width="20" height="20" as="geometry"/>
                </mxCell>
                <mxCell id="36" style="edgeStyle=none;html=1;exitX=0.5;exitY=1;exitDx=0;exitDy=0;entryX=0.5;entryY=0;entryDx=0;entryDy=0;" edge="1" parent="1" source="28" target="30">
                    <mxGeometry relative="1" as="geometry"/>
                </mxCell>
                <mxCell id="28" value="Нажатие кнопки Add to Cart" style="rounded=1;whiteSpace=wrap;html=1;strokeWidth=1;fontSize=14;arcSize=22;fontFamily=JetBrains Mono;fillColor=#fff2cc;strokeColor=#d6b656;verticalAlign=bottom;" vertex="1" parent="1">
                    <mxGeometry x="120" y="260" width="320" height="170" as="geometry"/>
                </mxCell>
                <mxCell id="31" style="edgeStyle=none;html=1;exitX=0.5;exitY=1;exitDx=0;exitDy=0;entryX=0.4;entryY=0.45;entryDx=0;entryDy=0;entryPerimeter=0;" edge="1" parent="1" source="30" target="8">
                    <mxGeometry relative="1" as="geometry"/>
                </mxCell>
                <mxCell id="30" value="Товар в корзине" style="rounded=1;whiteSpace=wrap;html=1;strokeWidth=1;fontSize=14;arcSize=22;fontFamily=JetBrains Mono;fillColor=#fff2cc;strokeColor=#d6b656;verticalAlign=bottom;" vertex="1" parent="1">
                    <mxGeometry x="121" y="460" width="318" height="170" as="geometry"/>
                </mxCell>
                <mxCell id="32" value="" style="shape=image;verticalLabelPosition=bottom;labelBackgroundColor=default;verticalAlign=top;aspect=fixed;imageAspect=0;image=data:image/png,iVBORw0KGgoAAAANSUhEUgAAAggAAAD7CAYAAAAPZWz9AAAAAXNSR0IArs4c6QAAIABJREFUeF7sfQecVdW1/nfK7WXu9F7oHQQBBWygKCZqbC/PJKYXzUt8L/2l/POSPKOJJbZoNJqnMUZjrClGRSwogvReB5jK9HLv3F5O+f/WPvcMl3FQYO4gM+wTJzPce84u39p7r2+vso8QT6R08IsjwBHgCHAEOAIcAY5ABgICJwh8PHAEOAIcAY4AR4AjMBABThD4mOAIcAQ4AhwBjgBH4H0IcILABwVHgCPAEeAIcAQ4Apwg8DHAEeAIcAQ4AhwBjsCHI8AtCB+OEb+DI8AR4AhwBDgCpx0CnCCcdiLnHeYIcASGEwFBEKDrRnJYX18fenp6oGla1qu0WCyoqCiHKEqsbLPecDiEjo5O9hm1gz4fzovKLywsgNebc0Q1qqqitbUViURi2Kqn/omiiLy8POTm5g5bPadrwZwgnK6S5/3mCHAEhhWBSCSC5uZm+Hw+kDI3ldlQKjWJB5URCoUQCAQwe/YZSPMRVsemTZtQVVUFSTpMHIZS5wc9S8RH01QcPFiHefPm9feTntm7dy+sVgt8vuFU3DqSyRQjYZWVlfB6vcPV1dOyXE4QTkux805zBDgCw4UAKWlJEtHV1Y3e3l6MHz+e7XIzlfuJ1n2kNUDHq68ux7Jly9KWAkDTdLz33ntYsGBBvwWB6h62SwB0TcPGjZswZcoUuN3u/nrfeOMNLFmyBGTAEIThaoPOyFFXVyfC4QjGjh07bF09HQvmBGGYpJ6IhREIhiFbrMjx5kCWDTZ/7BeZKE3TYMbfug5FVSFJMpt4H3Ql4jEEg0GougCP24VgXx9yCwpht1rI+MjK7y+ZymLbkHShNPH1wy049nafHnceRipTTtT3gd/o0CH0S9JAh4E9AKiB5ZhfD/b8h2P8/vYNVv7R6jyW8s1enXgZH17LyLyDlDjtrIkc9Pr9GDduHJO4IJLrwZB+Mplgf1tttoxZ/v6RcgQCug6dJr1pLgBASviiiy7sv42+WrNmDRYtWsQqopFn7PI1RloGzugBq0C6nOORKbkwRGzcuBETJ06Eh3bw1E5dx+uvv46lS5ce2YX0/GArjy7Qf+n+0zg32jvYLDpcyJFtM10oZEHw+/2MjPErewhwgpA9LPsnV6CzCU89+RR6IhrKqsbg48suQUlRflonqMYkF3RAkyGKOjRdBbkoZTIJamzeMNXNpowgQFUVCLQLEESEOurw9rpaLLnkInhsZLakYjU2sXRBhEhlQUAqFsIr//wbtu9vYma/s89ehOX/+ic+d8M3MWlcBSTNWGyoXlGiCjVoiuHPYxOU1iEIEPk5m+8bIcZSBgR7u2HPyYOWjEMXJDjsNqb4jUVOh8rwU6GLMsORMKXftKAqmoJoNIpEMgGH3Q2HQ4IgEIkUoNJiLgjse1ESYbM72KJr6oaUqsAmWVgrBlvKY5EwBJsDspZENKnB63amxxKJmcaJAEHQkUrFIcv2AfSFTLYJRMIR2JxuOB12g9LoWj+lSSkpSLIESZBYW2nMaCr52OlvOeszaiQWSCShu7sb/kAA40hp0UQTBCSiYUQSKXS2HERdYzvmnbcEhR4nYuE+qJIDbrtsjB6SkS5CF3SEw2EmP4/LCUGSoKnGGKPxsGLFiiOUMNW7evW7WLBoYVrViti3fS22H+jEOecuQmlhrrnAQFMVtFGMQEpDRWUVLHJ6c6DTIqSxHTkkOzwuO5KJMESrC6IgQBQATdfYbwHGxmfDhg2YPHlyvwWB2rF8+XJcfPHFbJTShqmuoQme3DxIggiLRUaezwdRkth46+rqgiZKqCouYX1XddWYA/E4nHYHkokYYvE4+vpCkCxWuJ12uN05EEWBjT+GNScIWZ8qnCBkG1JNwdMP34Zn13XgJ9++Abk5HsT7OvHqqyugWT1Ytuwi7Ny8AR2dnTh76Scxd3oFwj1teO75lwA9hWBUw5KLl6Ju1yZs31OLeedeinKvirdXr4UztxSh/e/h2VW1uPHGryIZaMOh7gi+euPXUZqfg3BPK55/8W/o6Ing7AVn4cUnHoZQOhX/dukS2GQND/32fpTVjENB2Thcf/01WP/WK9iwdR8mzV6AJfPH46mnXoCqqHAXVeP666+GjSY/8ZIB+99sQzbyytPZ4rh6+YuoPu9yKJ316O5NQIQCX3E5kj0tiCQ1pFQdE2fNRGvtbjjcPlRUVUEWCVIJGjQ0NdTDIgH+MODLscBpc7BF0OnLgxbtQ3t3L5xONyoqSxHoDUGWVETjSbS3d2D8uHEIR2LIy8+H3WrN2GBpqD9QC0V2obLAih37OzB+TBVUJYFYMoEcXwFkQUEirqC+fj+qxk1Fgc/T/7ympNDZ0QrZ5oTdYUcgEGR+ZFmSEQ0F4c7xor6xCdWVlUgkFeR5nejoCSCVTLJFv6Kisp9kjjy5Zq/FhwkCWRCMXW1fVwuWL38NW2sP4cKlS9G1bz3Gn/tvmDepFLVb10Iuno5ij4rGhnq4CsogJ6Po8geQ0IAStxX+uAZRtmDqpPHGZkI/GkFYjYWLFkDVBFhE4I/3/BxPrazFt755A8aOG4/xNaVMrSdiEaxevxWyEkZezRQI8TAKiovQ2dHDNhju/ELEIjFGRLobtsA19jzkSSFILh/6OppRWjnB2Ph8GEEQACURxoq/PY2/vLKajf/S8TPxw299GV6HDc0NBxGIq8jLLwDifoRiGrOsREK92L6zEVdeczn8nS1oqa+FnluJnoO1qJpQjfzCMSgrJJLACUL2Ru6RJXGCkGVktWQUP/3Wl4EZV+JX/3EdY9p7t76Hv//zVby9+l2cu+waNO9Yi7HzL8S8mgIcONSFcWNL8Pv7H8ayT30JDev+BRRMxJgiB1a9+RqaYzn4/OVn45WVm3DDTTchsv9tPPjcenzi4oX4x/I3ccGFl+CT112HYp8NL/7xt3j6zb2YMz4H7TEPli6ajCcf+xOCuhc3/scX8cKf/g/nLpyPux98DLfedS+e//OfceGFi/Cnx57Ef/3kx3j8gQdw0bJl+PsLf8cv7n8Mc8cXpdEZ3ijoLItg2IsTSL1rOt547lH0uCthU0IIhWUsPm8W3lqzETkWHS5vEZKBFvgqpmLVqrcxafJknHPBYuR7JAg6ES8R+/fsRjgSgaugCsm+Nvhy8mFxWtHceAg2twsepx09HZ2YNHMadm/dh8J8LwpLirF//0FUFvnQ0pfApHFjYWMuI+OKB3tx8FAbW+TPmj8F+w92wOUAglFgfE0R6up7UFJoR184hb5gD6bMmAeP/fCuP5WIoelQE6rGjEdfZyuCSQlWtQ89EcBrUaDYcxHubUNlWQl21TbD67Rh0tSpCPj9zJJVXlYx7PiPhApMghAI+DFu/DjokHFgyyr87NbfoL6lG1/49k8xUWqGZeKlWDS9BLvfewup4unwCT3w94bhD4bR0+3HvNnT8OaaDZhW7EHAXY1Uy14svvqTcEoGcR/cgrCauRg0ATiw4XX85LbfIyevCKW5HgR1G677zL9j/swpUEJ9eP4f/4S/L4T5Z0zG+h11KMrzoHLyPCQa1yPpqUB3WyuKqyfCFtiKaN5Z6K5dA0veGHTX78HnvnoDnDZj7HyQBYHZ23QNTTtW4gvfvRVeTx5mnL0YP/iPz8Fll1G7exscJeNRVZiDLetXYf/+esi+CsyYUIH31uzGZ754NRpra7Fv/VpMvOwKNK14Gb4z5sOlSZg0cQwnCMM4IThByDa4WgJ//O0t+Ou7rbjzVz+A127BX39/H9rlcgitm2GvnoXu+oP47E3fRb7ajU17m1FVnoN77/0jbvzBD7Fj+ePY3hiGJNkwe3oJnn5pK2647kLsao3i+9+5CT27l+Ond72E73znBmxc9Soee/IF3PLgX3DR3Bo8ft+t+OvKPTj/7FkoKhmDuXNnwaaGcOMXP4fFn/kOehp344bPXIlPf+VG/OiX9zCXw5c/cw1+ffMv8blvfQ9//9MT+OSnr8Njj/wB37vnDzh3XBG0YQsuyjbwJ688FhWgC3jn5WdQc96VQPd+bNi0H9VVBWjojCHPpiGvsBhq7yFEcsegbf9+nHX2XFRWVjDXkkTmelHEoaZm+ArykGOxY299A1xOB2KJINSEjGg8CJvDDlLY7pw8tLZ2oCQ/B+7cAvS0taOorBiBvm7k51UhP++wBaCzsx2JRArJUA80lxs97X4UFPgQCieR7xURUWyQlDCiigS7mEB+2UQU5hqBZcY6rqKpqR66LkKWRfSGk/BYdaREB3ItKfQoNiQCHXC73OjoDaIwxwbZ4YNVIpeVhNLSckhkXuEXurt7wAgCxSCkA4a6WhuxbX8Txpbk4J0338LMSz6NOWMLsXPjarRFrSjKkdHV1gqbNw8tjQ0oLSvCnoMtOHNMAZSSmUjVbcKMZZcjl2Uo6CwG4cILL+zPkCCfPMUgnEMWBF3DPx67B7966Bl480tRVV4E2VOMz37201gwZyqS4QA2bj+AQmcSuxo64PIWojJfRl17FIHGHSiZcjYsgoLmlg7Mr3TggFIKj9KFignTsHHNGlz171dDJr8ZwGIQMl0MZgzCRRddZKRfQkV300788bl3MW1CFQqrxuCM6VPYdw0H96C9owe5BfnYvG4Tygu9CFvzMXfqWKx86x1cde21aK7fj76uJgSEQiiRXlRXl0CXPJg6oZoRJR6DMDwTjhOELONKbJliEB79v0fQ0hVF5ZhxKHDo2La/FfluGeUTpiHU0Y7zr7gK08ZUMt9id+NO/MdNP8a4WTOZX/e8RYuwbdNaqKKAUEzGRQtn4ZA/jquvvAyKvwF3/OYPKKosRzDQjVBUw9f+87sYV56Llv078IfHn4KqWzD/nPPQ07wH+w4cguTw4orLP44tG9fi40vOxW13340vf/tmbFn+F+xpbENR9VR8ctks3Hjj91EzZQaqJkzFf33zq3BIEncuDDY+WMiGiEQiCNnuhK5rSCYSiERj8Hp80NQkMwHrusIUayrshyDb4fG42b0sykMAUiny5cuQISLGTPQSErEkJJsMUdWQ0jTIsgWpVBIQLbCKClSyPtCoURVoogiHzXGEjCj3nGzCsqAhoelIxROQrFZImoqkBhagmkom2LNWUYIiAHY5w0VBdgBVQTyeYGbeeDIOi2SFbJFZHIICGboSB0UkKCrgcVoQiSZZ0CzxAovFOux591messNWnEkQJkyYkJHBoLFYof27tiEQ1TBz1gzYJBFKKo5gOAnJIkFUFchOB7qbG5ibyeYrxrQxpVBlJ4REBJLbBSl9rMLRLAgLFy2Eruno7WzChq27WaySx+OFr6QCU8dWsFgCUuKJZAp2m4RQMA5FUWC16KhvakVD3UEsXLwUokbxTxK8Dhl90SQEXYFsdQAKWcmcFIzA5D3QgkCgvvbaayw+ghEEinkJdqK5J8GsFMF4CsWF+ZAFil9REAqHAdkKOZWEIhhxNxZZRjAUgMfjQ09nCyKKhhyXB7LVis62JuQXVyPP62Ly4wRheIYxJwjDgSv53JIxRGJxyBYbLJLAJqLVYkGKggI1BVa7i+3QKLrYf2gvbvjWL/A/d96FsUVeOB0OxGIxlsecStK9FiiawILgaJGm72hyU4CYLFuNz9M7lFg0DNIRNrsdippEKqnCZrNDtgqIx5JMQQQjYRbgoyspxBJxOF0u9DZuxw9+dh9u+uHPMH1CBexWmeY+W0h4LsORg8QMQmSbJ4oQZwFjLJcLuq4y6wILMu3fSItpJW4EL5rBirTGs1sECgqje4ydlhHpbgSRsr8pcJSCFI2w9HSwK91hBKcOvIxgRiP7gdUHnZESXRPA4iDTDTNCLY+MnKd+EMmg4C/jW2oXKTUKmqO+UnAi1Ww8zeo3bMjpZnDrgSkPIgi9vT0ggmCkORKOJAedBRsKmomiEZlMCBr3kfxUdHd0IKGoKC4pZVlQbC6yoOTD2FMg4OE0RyNjgSwIC89ZZEiPLIDpesyDlEhZswBI+l86+NVIYhKQSiXQ0dkNq82O4sJcIxCW1gFQwKQhcZK+KMjQiTwIRvomEYSpU6f2BynSnZTFsHjxYraO6f1jnHXAKIvGFC0y6UOeKDBRALkstHRqJPNMsOBsVU1B0XXYZCN+R01pkC2WdLCmgI6ODhbMydMcs6vQOEHILp79pb0/ujzzkyO/TcRC2Lx1J6bNmgOvk/zJbDnvV8xHJLoxjTEwFehonfigdCUzwclQENFIADt21mLq9BnwkNM6rR44OfjwAfLBiYjHkDI2WNbjoPkJGW1hyqKfYnx4I7MizxNLuTzGxo2a20yyHomEUVu7nylNp5MsTeaphgPHhPnvgXPeXAUGJ12dnZ1M+c6cObPfQkF1v/vuuyguKUlnoHwQYUuvARmnLQ5IIswYNZnlHNneeDzODoQ699xzjwhQra2tZUq7uLjIIAMfao88hrkyYBxTfxOJODtzglwcHs9hd9uoGVAfYUc4QfgIwe+vmlIemd6XoOkKJced9FYZedJkFs/cDZ70ZvAKOQIjHgEKYKUzB2hOJZOUddLO3EnZOCgpE5ycnByUlBRDVWnHbbgM6LeipNDa2gZS3Nk6oOmoWxBdh9VqRUlJCex2IyWWrSDscxltbR3stMds9z2zHlmWUVpaCofD3NiM+CF0ynSAE4RTQBTmEaxkgjQm+slvlGEqJJPnhxzWcvKbxmvkCIwoBMi4QyRhuJWzWU/m6YomSTA/I5IynO9iGKwNmcqbubCG0U1p9m24CMiIGnjD0FhOEIYB1BMt8qNVzqad+1jNfCfaS/4cR2B0I2AetUwk4TD5zz7rH+xFTP3G//RLjIZfcR59vTgZL4oa3SPpo+8dJwgfvQx4CzgCHAGOAEeAI3DKIcAJwiknEt4gjgBHgCPAEeAIfPQIcILw0cuAt4AjwBHgCHAEOAKnHAJCIqlk3zl2ynWTN4gjwBHgCHAEOAIcgeNBQNC0jyJm/niayO/lCHAEOAIcAY4AR+BkIyDowx/merL7xOvjCHAEOAIcAY4AR2CICHCCMEQA+eMcAY4AR4AjwBEYjQhwgjAapcr7xBHgCHAEOAIcgSEiwAnCEAHkj3MEOAIcAY4AR2A0IsAJwmiUKu8TR4AjwBHgCHAEhogAJwhDBJA/zhHgCHAEOAIcgdGIACcIo1GqvE8cAY4AR4AjwBEYIgKcIAwRQP44R4AjwBHgCHAERiMCnCCMRqnyPnEEOAIcAY4AR2CICHCCMEQA+eMcAY4AR4AjwBEYjQhwgjAapcr7xBHgCHAEOAIcgSEiwAnCEAHkj3MEOAIcAY4AR2A0IsAJwmiUKu8TR4AjwBHgCHAEhogAJwhDBJA/zhHgCHAEOAIcgdGIACcIo1GqvE+nIAIaa5MOgf3vWK7MF60KwrE9k1kuPT/4czqg69DZzQIg6PQfAJH9c8gXK1sHhGPvq1nnUPs85LbzAjgCHIF+BDhB4IOBI3ASENCgI5GIw2axQBTlY6rx6Ar+mB43CMlRSAIp8FgkDEUTIIoCbDYrZFk+ZvJytBZQuZqmo625HnllY+C0iMfe2HR7GW0RhKO2/bgK5DdzBDgCJ4wAJwgnDB1/kCNw7AiQ4nxjxQrMmj0fhQW+Y3pQ0zQkEgnYbDaI4vEpWqpAURQkk0k4nc4j6iNjgRoN4P4HH4EzvxiSrgGCiDMXnIczJtUcU9uOdhPZSVKJJP7518dx9hWfQ4XPdtzlqaqKWCwGt9t93M/yBzgCHIHsIcAJQvaw5CVxBI6KABGEh377O1z6iatRU1Xaf59h5tfI98DM+3SfqAOaICDS3YI31u/DhecvgsNhhUQkQTeeYA/QLpvt+cllYPgGyBNBd9BtwcZdWLG7F9deeg4E4UiCoYfa8Pnv3Iaf/+K/YdNU+LsO4bGn/o7v/exnKHHbyA4AgVwOrF1UNiuV/b+oC6x9AlVC7om068S4B1CSSfz1sUdwzrVfQ02+FZquQ2RlmOUY7TfabnZdhQYJIgT0tdXi0eW78e3PfwK64fuAoIvs78MekGz4QviA5QhwBD4IAU4Q+PjgCJwEBEjNPXjfA/jYlUcSBFKeUFOIJeLo9QdhdbiQ53NDgoDuQ7V44a3tuPKyS5Cb44YsiVCUFKLhPvQEkiguzYfLZoUgSKBdt7+vG5FICvkFBXBYBLTuWYcXt3Tha5+6HDaLNa2k0+Qi3I4vfP8ePPjgbbAz0qHhifv+FzkLPo/LzqyEomlQlQSCwQS8uTmwSgKURAwdnV0QbB4U5uUwd4kgkiuArAZRBINBRFM68nwePPf4w7jwum+h1BmHZrHDJkkGKdA1xOIJOOx29m9V15CIxdHR1Qm3Jx85bju6G7bi3n/uxP9+83pIssjaHQkF0BOIwJdfAK/LaZAlfnEEOALDigAnCMMKLy+cI9C/3z8qQWiv24UXV6yB02FHT1cHyqcswLKFk/Hy809ixcZ6TJs8DrPnLsLcKeVY+eZKtAfCsDtkhAJRnLt0GaZPKMc///oUWvwpuJwW5JXUoMIn4q3XX8fGugAuXnIurrqcSIb3sPXhCIKgQdc0PP7bX6L8vC9hVomC11asRiiahMPjwJlzzoIS6cCq9Vvhy/ExMqDCivMXX4CJY8oQ6OnAyy+/jnBShdUiIBZOoS/YjU9/7Xto3/APBPJnY9m8scyCkAp14LYHn8cPv38D1HgU69etw/a9DfB67UildJSWlKC5dgNeeLcJV124APMWLkCk6yA272qEL88DSbTjoosuRMkxumn4+OMIcAROHAFOEE4cO/4kR+CYETiaBYFM+RF/F+KiA/leN0I9zfjhzb/Dr+/4NfSeOjz7xhZc+4lL4bJL2LRmFQ6FBFy69Fw4rBJ2bFiHPYe6seyihfjPm/4H9/zuLvgcFiiqDlkW0b1vA57f3I0bPv0xiOQuyLjIxfDF79+JX/36/8GqqjhYuwcrVm3Ejd/4BtTuRjz85xdx4WVX4eyZY9Ha3IDX3ngHCxZfjEk1JdBUDds2vItdrTFcfelirPzHn6EWzsLF586GTZbReGAHHvnDn/HVH96CxpVPoafwHFx9zjjDYhDqwA9vfxw3/+K7qNu5FZt21mPZpZeg0OeBppGbAQgc2oHbn9mO2773WSTjQTz8+7/gkmuvxPiKIqiKBkGUIHMLwjGPPX4jR+BEEeAE4USR489xBI4DgaMRBDKxi7qC+vqD2LO3Dl093fjHC6/i9089BUewAc+8sQVXX7EMNlnBc08+gfaIBRPHFDP/fbC7C10xFddddw3+8dhDsJdOxcc/diEKfG4WN9C7bx2e2dCNr1//8QHZCTq0cDuu+NRNOOeChXDYnSguLsOceWdiQnUpuprr8M+Vm/Cxj12CkjwvdmzZgN317bjyysthp7AEQUDc34L/e+4t/Ps1H8f9v7oV3/jFrSh0SCzYUUkl8aeHf4uLPvVfaHibCMK5uPocsiBQvZ34/m2P45af/RfWrHwDuq0IS86Za4Q5sEtHb9NW3PbX7bjt+5+Dqibw0ot/wyF/AldedTlK8nMhUmZmVvIxj0OA/FaOwGmIACcIp6HQeZdPPgJHjUHQKOL/Tzjgl3DOgjmoKM3DXbffh+//4ja4I439BMEqKnj5xWdgLZqEidVFFMrI/PlujxuFxUUs0PD1Ff/CW2u349IrrsKiOdPgP7gJz27owY2f+dgRCpWFGva14Av/fT/uv+9/4RRECEy3U5qjjq5D9Xh93S5ctOQCFOS4sW3DGtR3hnDF5csgpQMTtWgP7vvjP/CpT16B2352K371wJ2wMqUtQk0l8NRjD+H8a7+Oxnf+is68Bbj2vPGGBSHciR/e/if8/CffxLtvLIe7eCIWnTk107ZxBEFg0RFKElvXr8Yzf38Fs8+5CFctWwKbhVJFeaDiyR/JvMbTCQFOEE4nafO+fmQIkFKmIMVLr7oWYypL+tuh9DXjaz+6D/fc8yt4ZBHhYCe+9Z8/wq0PPgZnuAHPrNiEaz6xDE4r8Mby5bAVjcMFZ82AKBgEgX7ozACVZT8IqN+3FX9/Zze++OmrobXvwl/XdaQtCJkuBh16sA1f/ckDuPe+X8KZzkigRAhqZ++hOrxO2RNLzkeB140D+7Zh7ZZaXHHVFchxWNn5BG31u/GPd/fguiuX4cHbf4ZP3vRzjC1yMaVNAYUP3ncv/u0b/w9dG/6ObfEqfPmKeYwg9LUexI9+8xfcfdsPse6dNxFWXbhkySIWgGlmQfibtuPWpzfj9h98HrpGmRL0n4hwXzeefe5FzFx0EeZOGcMJwkc2mnnFpwsCnCCcLpLm/fxIESDF+8C992DslDNQXJDD0g6dHi+qCh34+S/vxdWfuR55LhkH9u7EE395CXf9/lF41Q488eyrmDfvTBQXFcLf0YS1W/bgzLnzUJDrQXt7K3wFpRhTkY/167aisLQcgY56bDnYg+uu+jiS/no8+sI7uPKyZaiprIDNaunHQOtrwVd/cj/u/+2tcGSc0kg79p7mA3hjw14sWbIYhT4Xwn1dWP7am5C8hZgxaSyUeARbtmxBXsUEXLDgTGx+51/Y2hTDBYvOhAQVe3dsw6q1W/D1H/4CObF63P77F/Dvn/wE3DYZ+3dswLNvH8Tv7/kpWuv24q1V6zFx6nSUFeYhFkugoKQUDrUXP/nNk/jGVz+NHLcL3d3dsNjsUOMhbNq0DWecezFmjC37SOXJK+cInA4IcIJwOkiZ9/EjR4AIwpZ1a9DZF4VFEqHqgLegGDOmjkfz7u3YWd8Kq9WKsopKBDracNYFS+EQk9i1bQsOdfhROWEyC9Lbt3MnGls6AEmC2+PFpMmTUFbgxjtvrkRXKA6n043xkyZjbHUp1EQMa95dA9XqxcL5s+F2Ovpx0JMh/GvlBlyydDEsAwhCLNiLxrYeVNdUw2m1shTIzo4W7Ny1F8FQFJAsKCktw5TJ4+FxOZGIhbFl02a0dQVgdzpRVFwCQYli3LQzkWMHtm9ci7q2XkiSBRVlJejui+Ljzb8UAAAgAElEQVSixYugp5KoP1iL/XWNCMYSyMsrxKyZM5GXY8fqt1ciqkqYOGkyQt1tqGtohdVmQUllDaZPnQiH5TDZ+ciFyxvAERilCHCCMEoFy7t1aiHAjiBWVXZoEDsciCznogBJIlcBkEwmmMlctligqzokyXhHgq5qSKkaJElmmQl0jLGSVKBBhSxbINP5AgIdpaAipSosSNDKjkymcAARmqpAUTXYrHRegumzN96VQGcnyNKRvnzKIhB1LX24EZXNPmH30xkMKUWFIOiwWKyQKHZBENi9mpZCMqVBEiTIFpG5BgRJhiiogCogoSjMNWG1yKy/Yrrd0FUkUyo0RWP9ky3Gcc+U0UB1UR+JoKSSSRYjYbFIzPpy+OClU0vOvDUcgdGEACcIo0mavC8cAY4AR4AjwBHIEgKcIGQJSF4MR4AjwBHgCHAERhMCnCCMJmnyvnAEOAIcAY4ARyBLCHCCkCUgeTEcAY4AR4AjwBEYTQhwgpBFaVIQFr84AhwBjgBH4OQjQOsvBc0eDsY9+W0YbTVygpAlidLgpHfYU2Q4JwpZApUXwxHgCHAEjgMBURThcDhAvzlROA7gjnIrJwhDx5CXwBHgCHAEOAIcgVGHACcIo06kvEMcAY4AR4AjwBEYOgKcIAwdQ14CR4AjwBHgCHAERh0CnCCMOpHyDnEEOAIcAY4AR2DoCHCCMHQMeQkcAY4AR4AjwBEYdQhwgjDqRMo7xBHgCHAEOAIcgaEjwAnC0DHkJXAEOAIcAY4AR2DUIcAJwqgTKe8QR4AjwBHgCHAEho4AJwhDx5CXwBHgCHAEOAIcgVGHACcIo06kvEMcAY4AR4AjwBEYOgKcIAwdQ14CR4AjwBHgCHAERh0CnCCMOpHyDnEEOAIcAY4AR2DoCHCCMHQMeQkcAY4AR4AjwBEYdQhwgjDqRMo7xBHgCHAEOAIcgaEjwAnC0DHkJXAEOAIcAY4AR2DUIcAJwqgTKe8QR4AjwBHgCHAEho4AJwhDx5CXwBHgCHAEOAIcgVGHACcIo06kvEPHg4Cu6xAE4XgeOaXuHentPx4wT6e+Hg8u/F6OwHAhwAnCcCHLyx1RCHDlkx1xnWwcqT66sknyTnYfsoM8L4UjkH0EOEHIPqa8xBGEgKIo2Lx5M4LB4BGtJoVjKh1RFDFz5kzk5eX133Pw4EHU1dVlVTF9GGyapsHn87G22O12djt9tmnTJtZ++jubivLD2mN+T/jQpaoqa9+8efOQqWTfeecdxONxmPcda7mD3bdo0SI4HA72FdXR0NCAvXv3wmKxDKXY9z3r9XoxZ84cyLKc1XJ5YRyBkYQAJwgjSVq8rVlHoKurC+FwGFVVVZAkidSOoXghQNTpXzpq99ciPy8fBQUF/fVv3boVkyZNgs1uhwDduF/QQc4KHSJ7TtCJZGiALgIClUt3pkunsplnQ4Sga9CJkKRrZ3fRl4O4Pnbt2o3KygqQAqOLCM62bdtwxhlnsPZTvVSPAI21I/1PVvaRl8bqNi4NtBGn1ousTvaPdJvpHqPVhy+zpfTJkSWvencNzj1nYcYzAl599VUsW7Ys4zMqz6zbLNVo7wc5e0hWfr8fEydOZA8RISFyN3fumekWGhgaXRCgCYBIHSMZsG8y6zT79P62ULlNTU1wu90oLCzM+pjjBXIERgoCnCCMFEnxdg4LAkcSBAGqQsraUNCarsMiW3Dw4AHk5uYiPz//fQTBbrdBVRXoogyoCiBJkNmO2lA8pOwVRU3vRA2lFIvFIAgiLFYLJFGEzpiCCk0DRFGAkkpCstr61aWh8o1r1649qKwsP4Ig7Nixg1kVaIeuagorTxQMkmORiKwYlOHIK01YdB2arqZ39yKgqYjRbl+ywGqVITBiQ0Qj3T5JhqokIcnWdImZRAN49901OGcAQXjttddw8cUXQ9dVqJoOSaRyD7eGkRP6t0ZERU8TtfeL+2gEYd68uQzuaCxCAMJusUGQhDQxU43f73NDMAoHNZWEaLEcQU04QRiWqcYLHYEIcIIwAoXGm5w9BDIJAinphoN1EGx2pCIKkqkUps6cgroDRBB8g1oQLDKwf98e2POqEGrcAfvYM1HhBkTZglRCgcNtQWN9O4pLCmC3O9DWXIfeYBJWqxW5eV7YbTa4nA7UHTwAu8sDj8cHJR6B2+eDrumMbMQTCbjdHkiS+IEEgcz4LY0H0B3RUO4WoeWPQb5ThNUiQUmpzNrgcrmQTKZgsciIRqPsd6DXD19+LuwOB1obD6KnLwGbIKF4bAUkRYMq6Aj3+ZFIaCgpK0cyFoTd6WUkRBaBeFJhZn8yx7+7eg3OWXSkBWH58uW45JJLoCoR1DX1oDjfB0mW2P1k9VA1DclYHElNRTySgC/Xw/Ch/thsNkZe6L7u7u73WRDIvTJ//nxmAXl9xUsYM2E67KIEb0EOnDYnIuEgwpEoLDYX3A4rMy+YJETVdcSCQbhyfUjFE2xQET50cQtC9uYYL2nkIsAJwsiVHW95FhDIJAiJZByr31gBW2EJlIgKqAIWL12A2v37kZ+bNyhBkMUUNq9dhYS9GMHmbfBNXoK6bZvgdVpRlueAWjwFNa44dtV2YP5ZZ2D9e+swf+F8hLoD2L9/H1weNxK6Fd0dB1FYUI7OvgRKLTpUK5Cye5EMhmBDGEWTFmJyVS52796DyoojXQzbt2/HrFmzEAmFsO7d1fArgF1QIFlllJSUorvDj0iwG2WlxYiJLrQ1NyLPZYcnzw1rTjXcehB9CQ1zZs3AmjffxIxzzoH/YAM6Ah1Q3V7Ee0JwO4Bgn4K4oqLCY0PMYUVElSFH/MjPscFaMh1Ta/KxevV7RyEIF0NLhrF2237UH6iDzWpBjtcJu02Cqoto7QzA7XJCiCcQUWIo9jgh5JVDSARQWTMJ1eVF8PsD6O3tPcLFYBCEecy18vB9d2Lmgo8h0nkIkXgf7J4CWN1uyKkY/LEEqkpLcLDxEEpzXFAkK/yhGAosFiRtKiRdQjIFzD17Hjx2KycIWZhbvIiRjwAnCCNfhrwHQ0AgkyBE+jqx+r0tkF0OaAlAlm24cIlBEChAcbAYBFnS0VS7G5v2dWBihQshSx52b92FyRPGYmKNC7sPuTF3gog1Ww9ixrQZaK/fCbjL4JAVZjUoq6hEKJqCSEqxrAw9PX4ooRgcPhs8uQXYvWsv8uQUPFPOw5lj87Br9z5UVpCLwcN6TVYBkyDoqThWrlrNXBpdCQtyhBAqa6oRDCZhExKYOm0C3nh7C+KKhooCH2adOQV7D3ShLN+G7XsacMG5C7Fv50botlzyg6Ctpx0lVdXo6QmiNNcOyC74W1uZu8JXXYJoJIGmgw2YXOlGyjcLsyflYfXqdUclCIHuVuxrbMG2rbswYcI0SAihsbkL1eUFONDsx6RJNWg92ASbx458jxM102djz8YNGDttBsaU56Onp+99BIHFIJCLARqe/stTOPvsxdi1ZQM0UYTb64E1txh59hQ6umKYNqkar7yzAZNLc2DJKUE8GgL64giKSZSXFqOurh7zz1qEovwcThCGMKf4o6MHAU4QRo8seU9OAIFMgqBpKaRUct4noaqAIFrgdtlRW1t7VIJgs1uYyT6hAE4phYToRLS3B5LdBp/Lgaiiwyao6AlGUZCXB4sItLS1wWJ3wmO3wB8II6cgH6lwCBaHEzpUiKoOUZYhyhK6Wluwu3Y/Zp59Poo9VuzavTdtQXg/QZAkAdFojMU/JFI6LIKKaFJlO3NoCiw2OyKRKBKxBKx2G3JyXIjFFGhKHElVR67XC1VLoqu7Dw6rDQ6HBR3dAeQV5ENPJSBZyESvQVAFCBYKiAT8bY3Ys78J0+edi2KfFatXrz0qQYhGgkhBgh6PI5JS4fM4oKgCHC4ruto74XLmQBJ1hCJRgwAJKRxsaEZ1zQT4nFZ09/g/gCCAWUY0i4PhHgpF4SvwoKcjALvbycJGnR434oE+JCEhx+tiLiQiO7qWQF9fhMVdFBUVsM+4i+EEJhN/ZNQhwAnCqBMp79DxINDT0wP6GTt2LPOLU1ChGdRHQWwUO7dv3z5GEDIj2rds2YIJEyYwnzW7nwXz0UUBfRrzdb8/Ij/zEyOynj2lG3UaGQR0GVkC9Fk0EkIqBeT4vNA0Fbt37UF1ddURQYrUltmzZzOfPnuKRe4bbTH7Y2Ji1GDUe7gW81MzX8HouaZTm0w8zHYdGZQYDgWgaiI8OR5W26pV7+KccxYdkW75yiuvsBgECsBkxxZQ/GC6bCqVgimNzI3M8wwEKEoSiaQCp9PBsjIOHWpDIpHAuHHjWC8omJCySWbMmAGr1UxzNDNFqKLD4Z0msqZMMzMzDvfIuIusMpTCSkGpmYGpxzOu+L0cgdGAACcIo0GKvA8njEAymWQWglAoNGiePgW0UZDc5MmT+5UyVUY7zFYyt5/kUxgpGJClV9psrM/Uvl27drH2M0qQPpPghAE5gQfN8xeoLZQaSArbvOiz9evXH3EuwglU0f/ItGnTWB1m35ubm9HS0pLVflN/PB4Pi3WgYEl+cQROVwQ4QThdJc/7fYQSOxY4BpIB8xS/Y3k2m/cMRko+qrYM7NfJaFtmHcN5ONTJJn/ZHCO8LI5ANhDgBCEbKPIyThsE+DG8H72oTRlwWXz0suAtGN0IcIIwuuXLe8cR4AhwBDgCHIETQoAThBOCjT/EEeAIcAQ4AhyB0Y0AJwijW768dxwBjgBHgCPAETghBDhBOCHY+EMcAY4AR4AjwBEY3QhwgjC65ct7xxHgCHAEOAIcgRNCgBOEE4KNP8QR4AhwBDgCHIHRjQAnCKNbvrx3HAGOAEeAI8AROCEEOEE4Idj4QxwBjgBHgCPAERjdCHCCMLrly3vHEeAIcAQ4AhyBE0KAE4QTgo0/xBHgCHAEOAIcgdGNACcIo1u+vHccAY4AR4AjwBE4IQQ4QTgh2PhDHAGOAEeAI8ARGN0IcIKQRfnSy2Po7XL8GrkI0OuSj/YWPy7fkStXs+UfJF+6R1XVkd/J07gHNHc/ileej1bIOUHIomTj8XjW3nufxWbxoo4RAfPtgDabbVCSkEgkmALhC9AxAnqK3Wa+Ettutw8q31QqBfrh8j3FBHeMzSH50g/Jl8vwGEH7kNs4QcgOjmxgRqNROJ3Oo+5As1QVL2aYECDrD5E8IgiSJL2vlr6+Png8Hr74DBP+w10szdFYLAar1QpZlt9XHc3fo8l+uNvGyx86AiRfmr8kW4vFMvQCeQngBCFLg8AkCC6XK0sl8mJONgIkQ7IS0OJyNIKQk5NzspvF68siAkQQSL5HIwh895lFsD+Comj+kpuBSCC/ho4AJwhDx5CVMOIJgg5AYB0xfhv/SKPDPviAy3yYIZF+NkvAnsRiRipBMF0jJxGqEVvVqCII6almzFLdmLbp/z88d48U1RHTm+41p/iAKa8LZkkjaz6bFoTBCOCIHbQfYcM5QcgS+COdIGi6xhYL6kcymUIsHkMkGkM8nkAy7ZtVFZWtJ5IkQhQl2KwWZpJ1Oh3wutywO2wGmmxx+TBSkSXgs1jMSCMIZtBkMplksRH0b9O8OtACcrTAy2OFL5OEmL58elZRFOZaCwaDIBcM7eDcbjfKysrYbzYcBOGUic0ZTQShXw7ke4cRIK1rKnQKlBZoMhtzkX7RZ0wOEIzvIUAUAJr3NJdFQYQg0rym3zR3RRIce3ioY+dYx1g27uMEIRsoHi6DE4Qs4TnSCQIt9HUNzVizbhPqGhoRCIQQDEURjcWRTCWRUhRopIRo6UhHClslGRarDJfLifw8H8aPq8HsWdMwfcpEOOz2fmRHygIzUgiCGYzV2tqKV155BXv27GHKmUgCmcjz8/NRWFiIqqoqVFZWoqSkBD6fDw6HY1DXyYdNARMXIgHd3d1ob29nP/R3b28vurq60NPTg1AoxIL8iLDMnTsXV1xxBftNcTkmUfiwuob7+9FAEEz5k7UvEuzFrq0b4e/qZIrfZpEQi4Tg8bmZsifSYJEliKLAiD8RA1m2IBwKQdU0JBJJBIMRWGQLRFmC3WGH1WFHWc1ETJg8DXaXF6Lw/nic4ZbTiZbPCcKJIjf4c5wgZAnPkUYQSNFrqsb2+aqu4ZVXX8fDjz6Nth4/WzR0sjGmDZa0u2B7FE2HRrsVje1JqAS226C+q4oGSRLgdDtw1pyZ+M8bP49xY2ogyfKICeo7FQmCuXM3d4v0m5TxihUr8Le//Q1vvfUWkokEvF4PJLb7E5lMFSUFiBJkSYbD6YLPlwOv18vIQ67Px4It3W4PXE4n7E47UxqSJEPTVKbkaaElZUpK/9ChQ+jo6IDf70c4HGYkw+V0ISfHy4hIWVkJSkvLYLHI+L9HH8O2bduZD5iIyeLFi3HNNdfg7LPPZnUTiaHnM60QJ5NAjnSCcDiNWkd3Sx1a6jbjobt+h1Rcgc1uhS83B4WFBZBtEjweN7PoaKkUCgryEYvFGSkgq5/fH0DAH4Ak2dDV2YNIJMjmO1kTyHLg8rix6MKlWHrNp+B05fV7HYVTnCxwgpAlhZYuhhOELOE50ggC6XeyGrR3deOBhx7Fv15bjRyvF3aHFQ6bBW6XC06XEzar1TA7pkMSNBAZUJk1IRgJM/cDLbqRcBTRaBzReBKJeAITxpTilv/9MaZNngCr1ZI2U57abodThSCYypOUASlU+iGl3dzczAjBG2+8wUgCKez6gwdRXFiEXJ8XNpuVWXMcTicoWJZcQaqqIRKLIRFPQlEVpjDi8SSi0Rj7m8aACnJPkFNIYHImeVksVqZIyCJBgZljx45FdXU1+52XlweHzc6+pwU5HAli586dePzxx7F3by1TMGY6qKn86dnLL7+cWRWmT5/OrBlmNsHJTEkb6QRB0RQmp77udhzc+jYSsW5s2rAbb7+1BhWlpSgtLYbHbWfuP3amg6DDbrMzYkCzjyyBiqoimTAsPSlFRSQSRX1dPaKhONsSMKuD04prP3kFps1biAlnLobd4YEo6MxzYSwGp+bFCUJ25cIJQpbwHEkEwVCESby7dgMeefQpbN62B26XE3f9+ieYMW0SrDYbMznSjpBMk4biSPuRaQHRNcOnLJICUo2YhVgM3T29aGpqQXNLG15e/iYam1rwtS9fhys/dinyC3wQRflUXltYn052FkPmTpqGIv2blHZvbw86OtrZ7n3fvn3sp6GhAZFIpN8nTPe1tbTCJstMqZPCpR9SvuT/dzhsjCxY7VY4HS54PF7k5eXCm+OD0+Vm9wqaBk9Cg+CwIWYlC4TEyAW5BSjan5Q3WQ0otoEUB5ECm83OZE5WBXJvEGlZvXo1i0Mw+0PjJdMyYB5gQ4SjpqYGZ511Fs4880yMGzeOWRrIEkEWDmrTcBKGkUgQMscIWfKiIT/qdq1Fb1MtlFQSkGTU7qvH1o3bwNx+lMGpaZBkkRE8yWpk5TCZpH+nkgqS8QQSiRiTZSgYRaC3j/1NVoTKcZW44oqlzO1QOW0exk1fBNlqY3ELhwMhj1w8T6Yl6GjLNicIWVJo3IKQXSBHBkEwQpbJjLxx62784Me3or6xmbkPaJfxu3t+gcXnLmALxPFMdoqMZu4GRiIMy8R//8+teHnFatitEj62dDG+cP21GDumkpmxj6fs7Erpg0sbboIw0F1gtobVG0+gvb0N9fV1jAjsP7AfTY2NzL9Pix4tyuQSKCgoQGVlORqbmtj3RGhCfX3MpUCkzm5zwG63weEgS4JBECh4lEiD15uDvIJ85ObmwePJYURAliQ4ZAusdhtAvmqmQEQjmwUCIwRmXEFHWzsamxpx6FALWlpaceDAftTX10O2WNg9JnnJVPADgxszZU9kgKwRZF2gWAn6IcIwceJEZqkoLi7uz2cncvJhpyAey1g5VQkCm0JmioExodJk2iDm5rxNxMNo2rsF9Xs2IhYMQiDLjwjY7E7s21uPzeu3QoLGCKPdaYPL5YDFIsHldjOLIJG+ZCIJVVOhpBRoSgqBYB8CvSHUN3chGIojlUjisisWY+GCM5jbELIVFRNno2LiGbA6KLZBAnQKeGSN7k94og2DQR8GpkYci2Sycw8nCNnB0SyFWxCyhOfIIAjGhKbF9sH/+zN+/Zvfs0WX2m61WfC9m76Mr3z+uiEpcSqr1x/AN777U2zbUcvIAgUyfubay/Bf3/gS810bi9+pZ6Y8GQTBHG5keSH/flNjE3Zs3469e/eita0FgYDh5yfcCCOfLxdjxtRg8qSpTGGSUvd4XIhEI3j11Vexfv16BAIBViy5fvLz87BkyYVYs2Y1Ojs6mVm5vLyMBSnm5uciN7+AKWWyJpCVgHaYdJlnA0gWGalkCn2BAJqamlFXV4+mpia0t7Wzz6htZJr25ngxbuw4zJo1C9Vjalhftm3bhk2bNjGrR38g3SDz62iypzZQm8ilQfEKRBbI0jBv3jz2N31OhCXTSpFJQI5lKp+qBEHTVSOLKK1ijYxjcuhpUBJRJMJ+xMN+JMLd6G5rQntLCyySDRSoSrhRbBBZf3RNworX3mAxIW6XHbFYmBEBGk9kVaoZU42C/HyEIyHmgqL5GE2mEPCH8Orqrdh+oBG9nV2440dfxbiKQmiCBIvdAlWQkFNQiaKKGjg8+bC5fJBkG4J9frg9Lsg2F2QWv8BSJjLmt0EaTtbFCUJ2keYEIUt4jhSCYCzcGn515wN46NGn2UQmkmC1yrh06fm4+affhddD6WknpsCJfKzdsBX/c8tdaG3r6ndDLJg3E3f/+mfI8R5OfcsS9FkrZjgIApVpBpbRb4r837RpA9auXcv89sG+PrZjl2UJiqIytw6lDc6bNx8XL70EY8aM6c88IFJBZVBgKJmMyXpAVoeVK99iRIGsDZOnTMGSJUvwyCOPsCC0RCKOSRPGI8frQ35BAQpLihlBIMJA9VCw4/79BxlRIEVD2RCUmRDw+5lVgHaF5F7I9eVi0sSJLCth2rRpLI2RlDWRBbI+0L2khOhnzZo1ePTRR1k5g10DCQL1yUzLzCQWpluLxie5HyZNmoTzzjsPy5Ytw+zZs/tPPTwey8KpRhDM/ppuu0QsCjURg5qMI5WMIh7rgRrugwAVkkjWPwFKKo6uljZQrHA0FmOEjMwNsQTFACVQUV6D5S+/gUNNh5CirAWdvBByOg1WZLEqKsUyiDqc5DaQRCSTCg52h7GntQOiJuCvd/0AbosOwWKFYHNCozgVDWwMeXPyoUCGYHEgHI2jqa4e46fMRMXEaXC6XWRLhERpk2wjQBkQZlCzORqGjzRwgpC15dCgqvpAJ2h2yz9tSsseQSAFbsBmbLJPTFEPCnx6h0JtfeaFl/Cjn99umJPTu5Yx1eW4+f99G2fPn5P2Aw92SMrghyexhQ5gSuf+hx7DX55/mS06ZLKmgMZzF5yJ23/5QxYIafTtcL+MIWgEyBnX8WDQf8LTAKwyzZwGjqyedLAlq39A97JJEKgsVVXQF+hDe0c7tm/fwXbX+/btRSQSZore9AtTehqZbUkJ1tRUY9mySzF58mQWOEjY0QJuKJL+1HQWdEZELxwKQxLp5DgLItEodu3chSf+/AQ6OzuQSCYhiwKKCwvhdLhRWFyEwuJipsSpLRs2bGTnXJQUF7EdJyl8ij8hdxOlqebl56G6poa5AIoKC43AR9qlpmVNvynllfa5Rn+NsxhIYVP5f/jDH1BXV3fUFyCZY4B+ZwY1msTAVJ7mb/N+IjLkhvjEJz7Bfog4UNuOxSr1URIEY4akZ5tOL4ZKQUml0NPdiVVvv4t9e7ajpiwP5cU+lBTmwGGzQtCNcwnYs4Q1O8NARyjQhz5/H4vZIIzpu7b2DhZDQFkrwWACb6/ZhB0Nh5BI6ZBEIggABTkaXgE6M0PAjKpSlObYoEBEQ3cQuxpb4bLZ8adffxsOqwqybCiws/gD2WJHSk3Bl5fLXF3kpmAWw94A9h1sQDiYRG5xGWomTkFRWRVy8/Lh9voY6TVlasxzThBGimLkBCFLkjoaQaAJZljdyFd4OHDLUFZmKqHpYzSC/zTNWHCZ+ZSlERrBa5kXO8okfbAJBRL2X4wE6PD7g+jq6UnnPps+TWPnSfXW7q/D/9x6N4J9RtAbHaBC/sZ/u/JSXH35xXA5HSgvL2EKXaBDU1gEdIopJSrD8DMb9VLbenp60dndg9oD9Xjk0adR39xqLNgCLYQKzp57Bm788qfgdXvSB7IIsMgyK0uSJTjsDmZdECUKiRTZ4kNpmLQeUrtMfydhkxkAd/hv6oHRHlKepAQpHdMMujYJAeFJfnemnKkHGW9vHCpBMGVEv/3+XmzetBHr1q1jgXwdnZ1GxkCGEjXlR7v5+fPPZmZ0UnZmgOBAEsUOwklbJGhXT8/HY3G22ycFaaSv+XHfb+/F1u3bkEokWPBoRXkZ8nPzYaHv+wLMbUAxBFTWGWfMwrKlS5mlgpUpW2G1WGCz25nPmtpi1mXKeuBvs01m38x279q1C0888QQjC+YuPxMjc8wO9gZUs4zMcW/2v1/JCgKmTJmC66+/Hp/61KdQUVHRbxE72rQ+2QSBYUOHEQl0JoGCVCqJaDiI7vZ2NByoRU/HIfR2tiOZjKMwPw9FBTmoqalgSpWeozlA88eYC3QAkrFzoPIS0RiikQhz+5BbLxaPo7Ozi60XFH8QjCjYdbAF4aSGxuZOdHb7kaQ5rNEOn9aZFKaU56PcZ1j12gJhbGtqhdvmwL0/+RpynMY8VDQBumiFDpGRTlrTzpg9BzLLTjq8LhHR7ewOoK2jG9G4Cqc3Dy5vHmrGT0T12HGwOZxsw0DBymboQrajlrkFIUsKrZ/IcgtCVhA9GkGgk806u3rw4j+XI5Ygg1/mKcaHd8osG4AOJEqREqGFIZ2Pnkqmzx8wUt7Mk81Iwdkpap3S0ew2uN1GABIp0FQqgb376lBHAYjp8wzMnblJJmin0dzaxtKdGEGgDbWmw+d1o6iwCIKuYhTXNqoAACAASURBVM4Z01BWXsq+p7qDwRD7zSLk7XbmH6VFi9Kmdu+uRWt7J0KhCFuIzEXfWCB1eFxOFOT7WL497TqNfH2d+UGJKDgddixaMBdVVRUsE8Lf14d4LMlS8lQ9ZZy/QGWpxiJJCof6S8rMDIqjhdHI41fQ12e0ldpB5nsKjqTLbrcix+OBzWrDpRefh/nz5vTvPLNBEKiMlpYWvPDC81i/bi06OzuNIL9Uqh8T03JAireoqAif+9znMGXKNNYOIhHMjSDQgTYGgTIVMn1G3zHTv2AEEBKWoWCIxSHQ2QbU57vvuQvvrVvLgt7IBUAWAdr5d3Z3sUwDwocwo7MJrrrqSlSUlTMiQCTDQlHvaQLFzlVIy36gwjaVdebywQhtuo3mjpHM3y+++CJee+01RlbM1ylnPpdpSTiCBPfvmA0SmkkuMttDBOuyyy7DzTffzFwfH/SinpNPEIw5Egv34cD+3dizYwcS4QiUeBiyqCLH64LLQYdb5SLH42ZzQtVp3Bo/tBawVFfFSFEl1wDJlRStLBhjmghCR2cXkikVwb4wAv4+RrTZiaeyBJvNgWBcRf2hbmze3YieQAi6riAWDWNskRc1BV4mt65QDJvrW1CUm4vvfuFjyHM72NyhcqPxFHRBgNvrgY+l1NqRm5fLLBj9gceUBilKbK7SGPWnD1vrC8YRT2qoGjcRM8+cC19+MWSrg6VgZvsQJk4QsqLO+gvhFoQs4Tk4QTD8z08/+3fc8+CTiCdixkJHzkNmmjV2CP1HorKDiDRoitZvmjcVI+MVpMTT1gT62zwpjR2TSrvstFGCyAUtKizQDYYvkF1kaUgXYiohmtyk6KlNMgUsCkauNMtkoOA18l2mH6cFixYmipYnS4KhgI26jB/A4bAauyWzneysVx1aevGgwsz7zXaZbWFHvOoGaTD6IjIFSLsY46J4icMmSuo/3WtehC358WlxMl/WYtxPz1EAV5pcCJRpoeFPD9/JSEmmshlKmiP1ixbrO++8E1u3bEY4HGIyoHaax1WbqYKkhMePH4+vfOUrbPdOu6rDOBp9MHfdRBQy22iSBPqezqkg5U+xDVQ3YXDXPXdh46aNzPpE5xX09PhZbEHmq4zJRP+d73yHnbZovsHQrM+0yrCMBrLIqOr7zPemos9sl4Gz4Q4xL7NPL7zwAh5++GGm5EzCY1pQzH8PRhoyvztspj5MGMy2EkYXXXQRnnzySRZfcbTrZBMEms89LQ147KEH0N7ZhYvPm4/ysnyWiiiJROiNuA0Gma5C1fQ0CTA+I2KQSibZPezcgqQxF6i/LreD/U1jnsi73x9CLKago52sCJT+SMcla7BKVoi6gL31LVi9rQn+WJJZD2gOzxpXgZljjUOuuoJhvL15D77y2WswqcSDsL+XZcIoSR0qUnB73SxF1m53QrTIcHk8bK2itrGX1KXXIFpTaN7RukLjh+4JBiJoaGpHQ1snKquqMWfBAoyfSlYI45TNbF2cIGQLyfSKy2MQsgPoYASBPguHI7j59vux/PV3mBmfFunM3ZcZrZ65oB7eEWf4LAfklX9QqzNN0ZnKc+Au0FxwM38P/Jup5QHxAqYiMMtmVoS0+dy8v9+/nt5Vmot/ZlkDyzV3iZn3mnUZlpfDrpTDBMdIyTR32mZbTOVjKpDDu1vDbUOpYP/702/h3666YsgEwWx3LBJlfnfKLqB3WaSUI9+RYBAYIgwyC/T74he/yPz7dJntpXtMy4dpsjdPH8yURSZWBlGS4O/txYG9e/DQI4+gs6MD02fMwOatW1FX38DIkanoKSDx61//Oj7+8Y8zRWO+2CZTAZt1mfj1k7j0eRhmGzMDBE25ZY5vKts4KyOJZ555Bs899xxLhzQJhkkAzHoyrQkDXQp072CfZY6jH//4x6Cfo72V8WQQBObYYhkIOnMD7Nu0Er0dzcjLy4GFefgMixx9R+4D06rXT+rTGBO1J+VPp5QylxtZlohAy2Q9M5SwuZ7QwVeKqiMUiqK+vhWKkgBEij0wrEA9gQjW7W5GR18MLruD7fKJgSycMwkLp1dDskg41BlAKJbEpYvmIJGMorurGxbmEtBhSceayEQMXB748gtgsTug0hoXDDIS4PI4YWFvUTTG48B1jKavpuroC0fhKanG+JmLYLM72LpIG4FsxFtxgpAdfWaWwi0IWcLzaBaExqZD+Nktv8W2nXuZYqIBbC7ENOEzTfHUFFokyETKzOksIOnYUgIHmnoHKttM82zm3wPLH0yBZ5adeX+/8h6gNDIXcXrWVCIfFm2eqRxMhZ75malEMknPwF2niVv/wTAZu1pDQRpBX2OrivHEH+5DQX7ekAmC2d+Vb63EIw8/zFIW6Ux7Zg1i1g9jZ2285ErEWWctwFVXXcV85gN37Zn4mgQh0+0w0JJgytkkCWtWrcJd99yN6uoaTJs8Cfc/+CAjqawN6WBHCoD80Y9+xMgJlUfjLVPuptI225Jp3h/4nansMu8xyYRJfOg7kge5N5599lk8//zzzKIxULYD5WrKNjN+wcRk4LQ1yyovL2eWiosvvnjQcxNOBkFgRIbM7MkYDtVuRsfBHcznH08m6fRr2G025pZTlRRTjNRP42TDFJv/ZswHHZPNrG+qQYwMa5j5W4SiGu4meoZSU5PMdSSgrr6FuRro5EziKilNQXdfFDHNBqsk4PyzJkMSZGYN9HpscFhFyJIFLd1BaIKIMcUeZsmIRhIsfZUCXan9FpmynYxXZWuiDIfLg2hKQ0NjG3LcdlRVFBvWKLIwpgWUOecPk02VPZ9XPQ1lNTMgUuxLlgKyOUHIkkJLF8MJQpbwPJoFoau7Gzff9gA2bN7JFAYxfVNpZpIAc4ElZUAT0PiOooQNgjBw9/9BxGGggjYX9YHEwKzfbM9A5T9YHQPNzYNZCjLJycCdoUl6+hlqhlXAtBJkPpOpRDKfybQMmLvu/nop7sBi6ZesafZmiy/ZdnXg+uuuwE+++42sBClSvWTiv+O221lAIv1QXAhlBJhEx9xR0YFFv/vd71i8gPnu+swgwKORIBoXmbttk1yaeJoyX/fee7jjN3ciFAojQm9YjISZy8eUE2Fx3XXXMdcGLeaZWJv40Wdm+QOJw8BdfOYYMv82LTpUBtWbOR5pASdLAgUvmrEUpqAGkmUzFsIkzpmE+mgEgcjOl770Jdxyyy3M1WDuYs37TwZBYDjoKnpa69CwcxWUSAy6mM7UEChd0QjMZcGHFDOUpHdfGK4X6rNJ2Cj+zzjW3FC3TNmKBsmllMN4ig480tg9jAgkU1DUJILhGFoPUUYDWR0UBCNx6LKMquoKiJqOXK/DSEVkh2JJoMeT0NDTG8CYsnyUF/nY2QkUq0LBqnabFZoSRzJGx2rHkVQF9IWiiKc0dPv70BcIMrfJrGkTjIO5nJTtYpyyOtCSx+YidChaCpItFxWT5iO/tDI9Doee3cAJQpYUGicI2QVyMIJAs5b8+b/6zYP412sroaS09Kl4Rt2ZRMH8NykCmriZu8bBlKmpvAdbwNOZfCwdioKcMhfxI8zIGelqmeWZ9wzcxZvKIbPt5nMDrQz9ysZ493P/ZZY5sL6B/fggkjBwt2q2J1PRmFYYs82m0iP/KKUFfvH6q/Hf3/oaQBHV6YvKPd4YBOY61jS8u2oV7rnnXvQF+9Dc1IxgKMhSwSjKm5SAzWJjxO+SSy7BN//zJqY02c4vvQM0FQMtoGbcQqYyztyVm8+aOGRamt5Y8Tp++8D97G2LoRAdfUzvVqBAMonVVVpaykzwdACRuXhnuqRM+WRinPm3KSfTxWAqedPFY1qVMp8xd/1mfbSIP/300/jzn//MXA+ZJMdUhCQ/KtM0u2f2P7NskwBkEs8ZM2YwV8+cOXP63ScnhyAY+f40HijgeMeavyPW08bigMiKY7XaoChJJg92QJWgpdeEBJMNBQSyVFMLuWUo9oCUNJ0/YJRLFigiFmRYpKPSExTATNYZIg46nY9AgYTGSaZNTa3o6OxFMh5DMJ5Aa18SUfqSBQVbWF4SvbyJzsSg+Jx4MoGqsnxcMHMccmwWxBMJ5Ob74PV5IEt2HKw/hNXvbWaWiUg4yIIg6YRGOpeB2jtz+kRU15SzvlHAKxFhc5xmBuUaFic6y4MYjwSXtwA1s86Dze3rj5YabE071tWaE4RjRerY7uMWhGPD6UPvGpwgGAF/t9xxP1569S02sWlBNCeMGX9gTghzh2QujB+8Y2IqlrUrc9eZSQAyLQaZO86ByjyTgAz2fGbnM58duPvMvC9zN5hpBchUZgPdAIPVY7ZnMAvK0YhTppsmEx+TKBHuFyyag4cfuIO97XAoBIF5mlUNTz35FB75wyNMvkQy6PRBWiwp4psFgEoW5Obm4o477mAnD2b2h0Wnp03LRibKYdeTqbxN3DOV6WGTrREDQv9e+eZbuOPOO9B86FB/mdQOU/Gff/75+OlPf8oUkamMTfJkEi2z3Exzvll/5lg168xsr0l6M2VuPpsZ2Eg4PfDAA/jXv/7FMMu0tLB3RAhC/8ukzLJMS1AmQaAxZMrVlCNZZ+6++2589rOf7Q9WPVkEgQXv6jqa921Gw45V0FIJI0BWF/rfacGCS+l9JxaZuRVMpUZppTQeiWBQOmQsGjfexkgkj1JP0y89o4DXSCTG3BhEGGwWK3NFkCWBTsIk8tDa3oHuriDCfREEQgE0BmIQ3DksuJCdTZJSmNWio6OTYUSHJ82aUIlL5k2BTAco0fs4HDb09MXw0ktvY//+A5AlgbnOyKJAbSd3A52oOWZMJSaOr2ZpxnTkN5VHQYuUPUNEw4hTNtxM/ZYs2Th1kd4NUThmJsomzoZFNKx+nCB8qLo5aTdwgpAlqI9GEMgv+Ou7H8RLL7/FJrSpCGhRzdwpZi5y5oJNn5mLaqaZdjBS8P/Z+xIoucpq611VXUNXj+lOpzMTAiEJJCSEQEgYZIoBRBlEQMSB58RT1OdTn6KiPp8gIoOA+hwZRFBEgUQgzJCEAIFAgIQwJCRk7Eydnqtrrn/t891TffpSCd3Q4Fvr78rK6u6qW3f47ne/s88+5+xjY9l+qlYXfr9XaI2P9cD2BCBKGWRrCEoNpd+wWAbB5ib4v2vBjTXg9totMLLf1zG237OLDq913JhhmH/HTVIq+q4AAsNGXQlcfdVVQptT857HZyIelQ3ZMIkGi17eKaecgq985SuIlVf0io/zfFSJUBdRvVc6L+y48XcNOdhz5/sPP/gQfvw/P8bulhaRJuZCTVqdn5HBIEBhkyRrrHW+WcChRt/OBTt/7JyyoM8u8P57qBUNehyGZX7xi19IoydNxFQpZYIGDWdZIKrnrfv2MwjKYFx00UW47LLLxJu1r/c2xOBUSttbd+LlJ+Yj1dGCrFflU1FRKRVL9NoVRIVCYdE/YE4My5RpWIUxSefQ2dElglq8PooU0ShHysrE4eA1pFIZSdplPkNY2nS7fCWpQspkpHtnc0s73tiwBR2dXdjenkQ6EkemUJAW3/msq3Jqa2t3ipf5HD56wizMmcZmbWVMosCmbbvw8CNPo7MjgXwui3SiS2TT4xVsBhbHuHFjMXXqgRjWWIcwNTlSGVe5k8kKQ1JVXe0EtPJeFYyXD8S8CymNZJ8HAOU19dhn6lGoGtLoCaa9c3G4QQZhgAyat5tBgDBA47kngNDS2oYf/vRaLH1qhSweLEFkfFyNs8301Yec7/mNd9FL88IC1vuzv/u9LOupWiOpi72fWbCgxBoB/zDpQmxBgzUmlomwC3xvo64KisqEuL1plZzfOOl1+oGK/7i8Js3MtwBFxtfL6aisjODBBbdhSI1TdtRr7W+IIVfIo62lFZf+5FL8+dY/i1FmohgXXy7kTPKid1ZVWYkvfvGL0u64qtrFxq1BViCgVLoFidYA63b+KgB5P5eXKoErrviZCNp84xvfEE+VBnjlypU49thj8cMf/rDordvrtgCR72sIwX/f7ft6j0slEepnfpBgr4/fY77GtddeC4oq6X70GDo+GpoodU6lwCy3Jxhj+2lS6O8HQGBJn7RKzmawZsViNK1bgSCBHBNj6VnnctIsi2EAtlcmc1BWRqYk74xuPCa0fTqTR3dXNzraOgU4sPGWC7e4sEN3IiEMAZEABb+Y66KCYAQKjO2Dcf58ARu3bMeyl9YiWhZCezKNDoTQ0taBLoY7whF5RpjDQLAQCeTxiVOOxLgxw4XF6GzvwKJlL2Ljhi04/gOzpP37k088I5obtXXVOOCA8Rg3bgzqaqtRHo+JtHI2n5dzI7AhSIlGYgIUJLJRxpJZT5shEEKwLChJs1K7UBbC0LEHYdT+MxBi7hBzruSm9R8oDAKEATJogwBhYAeyFEDge6+tWYefXPm/WLXqNUlS5MuK3yjlZmlapU31DP1GXMGDNbbW4PB7FmyUAgZqEOUx9JLSrPFh3NxJHvcoF/oNsQUmpRZqvyFXo2F/9mzTsyBYr9nepZ7r4Dl5neO8LHB7Pbx2W2alYMaNY04WK3a0+/Pvr8bhM6e/qyoG3lNm5//wkh/g3vvuQ3Nzs4jeqJfPY/JYdUPq8JWvfhVHzJqFocOGFQGMBXQ8T4256zn7DbJep9L/+jn3Q9nl6669Fn/5618lEYx9E8heULiJgk1//OMfRaJYwaE14vqeH2Dq3NO5pvdGz0P3ofPNevgKfnV+6bxUD1rGJp0WkMCqCmU6dM7x+zYcZ0G1H3jYecLvzZ49WwSa2Eb6/QAIAnyCAbTs2IrXlt2PdFeLUPJMMGTIgZ/zvOjxk3Yn68S800gkhFh5BPEKttDOirfe0dkpyYNVlVUyV6mPwOcxmUoKSMhmXKIiww7yTHj0PQP7dEKYYCChru40Wjq6kMrmsfL1TdjSTrYiKKB1x45dSCS6pNogEolh6v6j8KlTj0U0wryPAjZs3olnX3wNlVWVOHTKvhi/z2g88cSzEpJoaKh3Kqu1VYjH2DGSOQcU42JyK8W5nIJnPufuH8symaRJACNgh2CBSqyiCMn/BZSV12C/GSciVj1E2DbPdej3Ij0IEPo9ZHv9wiCDMEDjWQogsIZ5wX2P4Dd/vBU7m1uKcWJVetOFUH+qd2Uzr62x9AMFa/itl24XYuuF6aX6Db319vUcLMgotW97bL8RscbaHtN682okSn3uf6/U+akB1fOw23DfVhdBj+W2yYvcLL2kb3zpU/jcBee/K4DAhYzhhP/57//G/AUL0N7eJg2S2C2Ri6XoQ2SzGD1qNL72ta+JgR5SX1fsHWAZJP/9UeOvhtFOVZ0XTmTHlZISBHz3OxfjmeXPyvVT8ZJzjd4cM/oXLFjQSxnRP672+H7QaD1/pf41kZbH1mRLBY36085xy4Twu+zbwX0xN+Nb3/oWli9fXgSkFhzYfSt4fjuAwGZO99xzD4YPH/4+AQTmAKSx8dVnseX155DPJCkUKEqB9NLZLImlnRQ3Yj4KKwS6u8kiBEVcjEaTFQItu9tEbbSqulJAJO8DY/386cbbqSsyPEGIrOJllEEngEh2pxAuc4yFyrtnMnk8+eI6LF21WsoXJc+hEBCgQDXFsvIYLvjI8Zix/xgxzC0dCTy/ah2OOvIQSX4spJJYeO/9KCuLYsrUAzB0aAOyOeq5OFVHgoOamipRV9Vz5jlmMy4vIp1LIxAKoqqi0pNqd+W+rG0UNfaCAwwNE6Zh9ISZXjnnO9NFGAQIA2TQvN0MAoQBGs9SAKGzqws33nIHbrt9voiDcBvGRK3xssbUGjI1CnZBVKNgww/Wk7NgQNQHTQ8HP5gQf91430y2k2wo+ZLXHMaMDUk/2d5jFXo+cjUTQnOKdGrQ1W6ronSxt33/6UI9hhoW9XLtLZNrdhdT/KkhBnvNOk6kU5PJbowcOQw3//ZK7L/f+OLuuP9+hxjyeXR1duKnl12Gm26+GZWVFcX2y1qiSiNYHo1L+d1xxx2HyuoKMYpaXWDj6KXurV63ZXMUwCmI4E8yBV/43Ocl/4AZ79pHgUltzOy/7rrrirkLCqIsI8B9almi7lcTZvm3sgv+/AcFDPY+6e8KHrkNDb1eC5PZCKCrqiqFPv/xj38soRAFfvqMqBCQvm+BaykgqsCE17tw4UKp2rCv9yoHgZ59V3sL1qx4BN0tWyWUgBwrDAgQXE8QXjvXBPYd4dxwkteQmL5IhGdzaNrZgtfWbEFza7s8UwxPMWTl9AWCAkb5YngiEo2hO53Gzt0tYKhrn9GjUBHM4eCJ+wpAQC6LaDiMZDaLh5a9gqUr18rxUqLF4nQUwiGqbYbxzQtOR11lXEoid7W0Y/IBY5FJdmPlqlew8sVXUFlZhSlTpmDM2EZUVpTL/CITkkpRCTIjQJThBF2DmGSJQlDKuikYVjukVkIMDIuw+kFUOgkQSCTAhRWC5RWYeuRHECmvdOvIO2gJPwgQBsigDQKEgR3IUgDBvdeNG2/5C/4+/0E0bW8WT04Nl134dbHzJ135vUbrOfm/r9tqDoP/CksxB9yGi3dddQTj6kJIZSHCKAogWHqhxxHZVCnJ9oCAVTZk/wgUhEZkzPHlze1Ii4PB2m13JhaQFPdv3lcDqOdtz7fHGPT0r/BfnxoRKRX1Yp5qMNQDzqRYy92Jo4+ciVv/+MsiWNP99xcgMPGUDXMu/Z+fYP4/F6CpqUm6MtIQcbHS65QxrqsT/QGWOnLBl94HYSc84wcJej429KTjoXS13Ya/r1ixAhd96ctyTO5PqwG4/byTT8J3vvMdT9a3p67eziEFqPxpQxsWmPF3q/7JMbcgRYGAVmYw58adr/aU8Mpu2cTM6yfBUj4CBLa/1tCQP6GR16Sgo2culH6GuQ8aMypavtcMgt4TskTbNqzC+pVPAJmUA2L5HiXDLJuMURsgyzXBMSeqdyAlqFnXb8SBMFYAah6S67zYAxwd8Cc1T6ahEAyhvaNTJLfDXu6Lo+8ZmciL1HZrRzvufnQ5lr28DuXxcpkXBF6tbQQhOZx90jE4/vCD0N6ZQCxahoYhNdi6ZRteWvkaNmzciNraeuw3fh+MHTNSGJBoLCKGXsIJWSfwxJOWnAmpzghLhQSvkaEOfsb3WQHBa2U5p0gxF/IIhCiq5JrFcSyHT5yBcZMO8/JR+q+LMAgQBtauDTIIAzSepQCC9B3I57Bl61Y89cwKfO/H17iYqNfASBcXRd12gfZ7knZR9C/YfsNaCiD4vVC9bB6HD/K0fWpw4uSoiJ/UVpZ5fRiYWOSxCs7UCb1J0OBaLfVo4lO1jQ87k6yS+SBuWdKE5i4ueE4KWc/fhk9seEDPx26r3/EDiz3dMh0HXo8mKVqwwWPzPNtbd+PHl3wDF5x/blHm9p0CBHpuZCV+fsUVuPOuu4TmJ3XLOnAuwvT49L5ysayvr5ceCCeccIJ4XNxOErmMJLXeKzW8Fij5PX47XsuefhpX/vxKGW8uxAoQaKw+cf75mHfSvF4Nj+wcsL/rMUoBNgUAGoKwDAEX5yIwkCx5qvu5EkYasFi5M06MMdOwSGlePi+NtX7yk5/gzTff7AWU7HPhv247B/xz5l8BEDKpBF5Zdh9atm8g4nZPi2nASmAtzw6CEqN3OT7uJc86eyrknEiaS8p06pvSj0RIud6y62UUWxLhJD6JAQEXTFIlc5BKp5BkIiPzIhDA7rY23PnQU3j6pbWIMOkxEhEQy+qF0SMacNbxs1EeCWHsmBGoiAXxystvYO2a9WhrT0g/hVGjR2LC/vuiWsBBVBpA6f3n/eZ9ZlkkvX52gaUuAkMYTNAWwF3GcFdc7jWvh9dLZgSUawqyIVlYyh3ZQCoYrcH0E85AeblrINXz6hsDOQgQBsigebsZBAgDNJ4lAYJ43PSY8nh59es494KvC4OgBkAXV00w5KkotapJaNZr8p+qLhoWMFiD6De69jNrBGhAZkyoxXETYigLAo3VzK4OIlvIIRxxi0Gym93kWDudRCxShpqquLcQukRGJk7lA0BLIouuTBluX7oVWzryorXOhdKeqz0PP0goFRbwG4C93TJduEoBDY2VTxw/Gn/6wy+89tI9ios8x/4yCCqUdNONN+Hyn10uBp+JikxcpCfFseWY2eQ9Shz/9Kc/lVbF3J6hgFL3Ur1oATaezoFenwIa/tT5w+OkPUU+BYkaIuDCXmwv7ilzKnAhkFFDpedpKX2bEGnZAmUa9Dx5jvKfNfZdCSSTCXR3M2M/LYaPdf61NbVyzUxa4znys/XrN+CKn/9cwJUzjq7hE/+rqqjmO5S6934g8a8ACM0738QrSxYIre/Ox9FtpPEZShHjnclJKEDG093AHqVHJvF5nUmlQZnX1ZM0Ppu86Yt5JTTEaa+Vt4gelYUEZDK3gOsFvXceXvo45HPozuTwt3sX4/FnXkRZJCJVVAy9JDvbMbZuCGZOOQDHHXuIGOzVK1/H2tfWo6W1BYlEBlXVVZg4eX9MmzIJtVVxWc+yBMVeLwfSGTwmj08hqFQyhe6upBzXNX1zXVf5Oe9vRWWFhFjIZLCNuzBLXriDLaGC4QjGTfsARo9nd1N7t/vGJgwChAEyaIMAYWAHck8AQRdyCud85OMXScavLvK68Po9bOtl6zbWw9R9+sMRfk+TC5BkA/saPSk4sCDk8Ml1OG7/KAK5HEYOKUcmmMPGrR0Mo6K6PIxUJoNEdw7Dh8aFJaB3wrKmeDSMeCyMMkmmzqM5kUNHMojbntiA7e1BhCJRoSPtufVl5P0ekx/4lAIS8h0RbnQrixoaNZb8TiqZwA+/81V8/GOn9ZJZ1jHtL0Cg75dNZ3DzTTfjV7/+lQADGnyCBHZXVICnOgcKAtl5kEwCewdw0dfrUQNsExPVWFsWqBTDZEGDGn87b5SJ8c87ywb4QaTeBx5PkwU1MVKPx79p6PW/yPQmEzIWDLWo3oeGFOi9VtZUSz0+P1u3fj1+dsUVIvUrc9oznJpgqccrBRRLheT4LBEHrwAAIABJREFU3uGHH4758+dLO237GvAchIKTQ3/l2Qewc+PLQM7R/8KOSEdVF2LJpPPCnlAXgS8ySww7UCdDjHtZT2kzDT0besnzK2Ph0fFBzu8QCp6GgQJDxvOl4RP7PXST2me75awTUvI6if5p/qNY+PhyhCNhNDQMRSQawrBQGaZM3AennXK0JAy+8PxLeOH51ehMJEQhkfOYDk1DYy0O2H9fDB1aJ+yABBN5XoEgyGSIJDz7NYTYPIosBoF2Us6B5Y8Mp7H0sSwSlrCaiHR54I/70OeUiwj/VY/cFxMPPR7hSLnrndKPXIRBgNCX1bXv2wwyCH0fq71u+XYAgQvT8R86H2XhqCT62QXeLny2BNJ6lTYBrBRAsDR8KW/dHsMCFF18Z01qwLETIgjkMxheF2cjOGza2YGqqihqyqOSR8CY5uYdbdjVlsTU8UNFKrYzmUUimcPQ6phkT+9sS6MzFcJfn9qEnZ3saRuShaQvAMGe49ttv7dFg9/VShHNPdDxi4RDuPqy7+OYIw+TmKmttX5nDAJzEBL49S9/hXvuuxcbNmwQr5fjSiNAwEHDapPteByWH55zzjn4zGc+IyBBWQI/k1Aq7q5AQe+5/rTvc47sjU15C5j0ZrcmIGroScGVsl0KFNSjV0BTZA+yWUmCSya65CdBkm6r58c5ThaBiZoERx1dnbjy6quxbt36Ynmb5iIou2GvVcfEggN7Pe8XQCAgZuy8O9GGFx65DaFcCoGCq+hwXRhzQvm7ShYXIgjHIhJe2L59u8y/mppqqVIgExCmIiIBp3j+Pbk/bMPOuH2IKBxBYSNk5npaGm4cyFbwOCwdZQMnV1bJuUhwf9u9i3H3/UskFNA4rAH5bAqN5RGcd9Y87DdmGJ55fhVeePYFpJNZkUAur6iQOUpQUze0CvvvNw71Q2pcEqsXDpP9hwlsXF4Ez4caD93MP5DukwHpPlkei7q+I6Gg5CG4sAibVpGxZE4CwwwhKc8koxCKV+GAmcejZiifi54QZV+W6kGA0JdR6vs2gwCh72P1rgACF7Xz/u1r2Nq0CwWvZKnUIu2PnSvl2xeA4Pcg7Qn7PXJlEej1cQGbNXk4jj8gijJk0TgkJki+ozslAKCumhKwwNYd7cjkcqiKR1FXFZP6bHpPm3a0o7G+UrrC7WrLoCtNgLAF29opghLuM0Cw57snAKDXYQGRGkP9KUmK0oimh6NUj7qqsgJX//R7OOyQKa7ywbfNO2EQ2lvbcM3V12DJksWSpc4+CJqgxfGlwVBlQGUQeD4UVbrwwgvxpS99Sbbx3z+l7u312etXZsgyA5YBKGVA/SyE3Td/t6yS/q7npaBWwyYEvdJDIBD04sssgHH0eIFld8mkgCRux+vn3wIWcq4nSSadlmZANUNq8NqaNXjwwYfR2tYml2CvTf/WOWtDCpZp0WvndbPXBBmE91IHQcKHKGDTq89h6+qlECmgAMCqEWoasFmSyCZn01JyKImJ5VFxDrZv2y6Gu3HYMBFDYtVDvDzuxIs8UMF9SztukSiWokZhHQjUObNZOqlAivsUICLsgasW0XwG6jD87f6luH3BI6gdMgTxeDmSyS4cPHYEzjntBGkN/sSiZXJfRNI5Vi6KoATZBHLDhg/BPvuMRlWcVQou70EMOYWOAi58QkYx5XWXlHbq4TB27WxBJp1EZbxcQA9ZikoPdMg1MbxgwIaIJyEEhAIYPeUI7DOJJY+DAGGATNQ72s0gQHhHw/bWL70dg8Bv/OHm2/DHP90p7VCtwbdeowUIuiDaRd1vDHWbUpfhNyZ+46reIBfvmfsNxYkHVSBYSKOxLibIP4A80vkAmttTaGnvQnk0hJF1FSiThcEt4slkDs3t3WiojSEaKkNzZxrtwiBsQVNbwesP39sQWyNWyuDZz/m7DbmUAgjWg+b2vC6lX8WAOPbVS6KK4ZqfXYIjZk73ssh6g4j+AgSWsLXt3o0rr7oSTz39lBjDXbtcDoKNzSuL4GdGqI1A+WWep2a1cxu32BOA9SSnKVjU8VFDqWDIb9C1ZNEfjigFEmxuAfer5bVqeHg+CmL0+Pxb8x70dyej6xLnhGlnwzDvWpi9T0aBY0P1yfa2NvnP92kcg7EYdre1ih4Cz6fXPfTGQeeCnm+pec9tKJR09913S8Ms+xqoEINcFzUJsmmsfOxvSLY3OzCQzogMsvSXgKPPNfdF7o8nN8x5tnnTFowZO1o0BEjHEyQwkVPZL1EeZMa/xzi60lAn50yGgGEJESKSEIPrminaGwSbBYhCI+8BJZBvXvAYFi56FvVD68SgF9JpHD5pHI49agYWPbYE7c2d0schFougrm6IADeyB9TsaGyoQUN9nQAZkm5co8h4EAiQ6ZDzymQFtJRFQ3JcQphXX9+AfCqFqsq4E0RiAqbkolRIpZSsIzJPXBihKG4WDGDIqPGYMPM4lMdreoUN3265HmQQ3m6E+vf5IEDo33jtceu+AIS169/ERd/4ETo6u72M5p4EMzX0uqCo12Yp396GgQbaUfdKo/sNq59yLuUt6sI/db9qnDKpHChkMWpYFZ0VWdw3b29Be2cW9UMqUV8TdZKqjDlnMujsSiOTK6ChvgJxir8gjbbOAjrTEdy8+E3saC+gjPXbQoG6l5810b914bfeof8z+33r+evvCrp0PIqxdVmqHUgpj4Rx9eWX4Kg5M53mg5Fz5fH6CxBot9paW/GLX1yNRYsXice8a9duqWTQJkQKFDTMYCcRGyd9+tOflsVYDSLHl+ehHrqyHz0Z7j1xWb3H/nmj31FwYEGCnRc6dlqdYIGCf7wtcOG1aPiBIaSkl2tAY89FWkIULN3LuUQ1Xfy5D45NS/NuYVp279wlyWuJzk5ccumliJTHBDCxXNQCHH8YxQ+W7Jhy2yOPPFKUFN8rgKDJea27NmH10n8in04WqX9CawIFgkfxnD3QyjEha8D7+9qrr6NpazOOO/5I1NQ6uW8aWr4Yo9fngaBDEz81VKPzhHNGhYns+JCZoQEvk26LOXR1p/Cnux/FkhWvyngw/BPMpjFnygTsP340ljz2pAAUhjEIVggiGO5oGDYUI0YOR0NdjVQiBIIFRMpCwmi440kdgsxV3leGNxiKjETDUvK8dv0WKb2U75Qxj8nlqZSXx1FVVSH7ZBkm98Vr0pJfAvpgNI4D53wItcNGeuvHYBXDAJmqfu1mECD0a7j2vHFfAAKb93zxa5dg+67WoneoCycfEi56umBLol3AK4HyQID1nu2Z+AGCNcZqDCy4sN9VwzC8rhzHTapGPJRBY20MlbEwkE977YpJkzKeylIqLnhOfpmyrKJ7QK35QAjtXWm0dmbR1BXEIyt3IZHKS6MZeg+WJbHH39M12fctg2Cvw2/oSjEt8p6IPzkwFguX4aqffh9HzzlswBgEGrfrr78ODz38oJSOtbS0OQrdMwZK+dqQgV4H5ZDvuOMOWRx5rtzWaijQADCJTTPc7TXaMdXf/bktdhvLWlkPXEGZsgU2ZCELv6dlYOl8m3ug+5WKA5HaZaOlLDLMv0inhCEQAJGjCmBO/u7q6JSxam9pRWtLi+Rx/PG2W9HS1oovfOELWLNmTRFQ6jnwDcsgWLDpBwhHH3007rzzTikrta8BYxBoHPNZrF/1BJrWrkDBY0kUiPKYpPtTaacTIEC+UJBmTSxBbNndiiWLluOcj38YlVVx6Y7IbThvuCZoV08HtlypscT8hdp3BlpLIUU3QVQJXaIjDXac1UPC4OTRlUjh1nsW4elVb6C+vk7UPrPJbhx+wL6YNH4fLF2yDInubrANwtCh9airq5WExLFjR2FIXTXisZhjAEJs7RxGSKTZXZ+JlFe54s4nhLAXekim09i4eSeCQZYcB5FKsuSVgkpsB+2aPZFBYP6FA7chaUYlIFg6PQakDfTYyTPk2Cqt/nbL9SCD8HYj1L/PBwFC/8Zrj1vvDSCoJ7aruRkXfu0SNO1oEdqVSUXWu1JPgz910dbv+o2ff+G3RtQfV/eDhFJGmUa0PBKQCobaWAFVUWBoZRmGVEYQDwcQCWlPBi6Mjl7tzoTQmcmiI1HAro40OlIF7GzPYntbSkITBDhcMLl9KYBg8wj2ttgLA1EiX8Bel/+a9W8FB2JchMYM4MpLv4vjjjlC7qVdeLi//jIIvDZ2sLvm6qvxyKOPiDfc2dlVjLdrqEDBgRpTnUjMFH/44YcxcuRIGSPNVRAa1yt70zmg3/GHDOy1W8bAH5/3zwNHSbtkOJ1zFqTaEAm3UUbG5jbw+5pf8JYQiMfPpFNJqc1PdScF/JBlad3dIsxLa2srmnfslJj1X/7xD+zctRMfP+88aS6loFmPbVUd9wQ49TpYJfLXv/71PWvWJHMl0YFXnlmIxM7NnrSxERUTY+2qCdjRldfCsj8ChmR3El2JJB5ftBxnf2yeM5ThsFQYiERxzuXQaGiC+1Evm8a5h21z7KHOY9fQieJEKQnZMBRB4JBIZfDX+5Zg8fJXUFc/BG3t7SLuNWZINSaOHoG6uhq88PwryKY6MXIkWYNGSUpsaKhDJFKGaCQqDBcZCdFC8cJNbAim90YAeFkIYQGJDGuksau5Fe0drZKI2dmZEIVWnns0FhYFTddLQttAlyFMEaUw531EntN442gceuyZoq9ClsrO8z0txIMAYYAMmrebQYAwQOPZV4DAEMOmrTt7NeXROKICBEuR6+lZY2oNhC7ySjtaL8t62PYyS3naltrnthF6C2UBhILUbof8Z2UDjSw9IecNhpBFAZk8cxGyyBUYk8yJCpwr9HYhBeu5+ofbAgP/AqCLj16bP/yg167vF9kXI8xkARb3UyjkcNmPvoVT5n7AE6HpHf7oL0DgOTKufsUVV+DRRx/1AEJnUTDIZvuXipvz3v/+978X4SQ1zv7r0THTsfTfPz+ILAUk3LW/FajpOZW6T/qZhkY0pKC0ts5TbqfVGspIWd2GbCbluhDSMHZ1SYgh0el+Sk7C7haMP2ACrrz2OsnuP+fcc/DMM88Uc0m0ssdWQ9gx8c8pnueHPvQh6ebISgn7GjgGoYDmpjfxxnMPIt3VXlSo7BljVjO4xkoEtwSqaemb4fon7N7VhsXPvIjTPvQBlHnJoSpuxeRHJgLSWIoCugcC5Nn2QmUuB6hHqMzF8bWCIiNCRDwX7jOdy+POh57G/YuWo7yyQgAdwxCRUBDjGoaioboCI8eMwppXXsWQeBn2n8jmTGO9Xh6uykByo5hz4Kkj6hqkjAaPRYCgoIj6DzTWlP9mMi5ZFH5Gw+80E8LSIZJBCg2d2YoG6fRYHsPhHzwXlTUN0rxqECAMkLHqx24GAUI/Bmtvm/YFILS0tuJr//U/eOPNLS5mV6TrXSKTemiabMa/e+hERx9ao6sGkj91Ed0TQPA/XBIj9hTf1HjoOTBkQIpYOirQ0POw3mIjdl/qsqVYE/msq4fOFbLew07hIbab7X2upRgCPa4FQX4gY42lBQjW+7XjpEarlDGUsUQB3/7PL+Ls0z/k2s2+yyoGZR2uvPJKyZpnGIkUOhdhpewte+AfB47Bxz/+cfD7NF7KKJUaL2vMLfhT467zwxoU9TwtU6DAS7+nY8D9+xmPUuyEzXewXr6CAwULDDfQ26T2BA0SwQBBgeRnJF3ogYCBeQif/ty/4axzPy6hhU9+8pN44YUXis8Ez1PDNJa90GfB/1zynE4++WTccsst7wmDIOOWy2Lz68uxceVSF0LwWLLiuebZUTEj8ytCYw0gmU5JZUMul8Guna1Ysfo1nHziUYh6lQt6X/Seaa8OXSt0bvN65b5IWMH7z0c07xgwbqchCim5LeRx/5IXMf/Rp6QHAseQgkbcxQFjhuOwiRPQ0tGBsSMa0bx1A+qH1mLU6FFi2MkgKCCkhoMrZ81JIqquORaYCwMiZZpufXvjjTdESyGbdWtUZWW5gCX2iGBYJSpsgQubqCiWPANemGHfQ47G+INnM91zECAMkK3qz24GAUJ/Rmsv2/YFILCE65vfvwKvvr6uCBAEeXuZzn7jr0bAn+Sl76uR1wWhSKsLZex6FthFx56+k2b1JGGNkRSQgjyCBccU0NDLx0yIZCzUi+lLLXSxa7vEEoR+FAFm48GXorHtedjFxW+s/Qum35NWQ6jjpwBL2Ra/kRWAUACmT9kPv73+CqF03y1AUKN41VVX4fbbbxeBJOtN6z2yxt1eP8+dC/Gf//xnHHzwwW9J4ux1z0w4gO/r2KrB0OtW4GcNigVh+rmOl46jP9fAAhvdtwJW+x09F463AgwCAinvTKXR3dUh3qQwB4mE/M/wfa+qobO9Az+96kpMmDwJjz/+OL78pS+LnoQ+D36wVwr8+ecUcxCY2/FeCCXx+OlkAmueexg71r3snuW8apu4p0B6EXggmUBUqjxY6plKo6uzC7lMHk07duPwmVNF30CYAXbFZO8C70WAoJUtUjHhPa9FKbCiHLMnZZ5z4R6d91ruS0GzB5euxILHl0mogPviOfJYI+trcfKcg1AWjEi1Q011BQo5qqVGMXxEI2qqqwUMyL2lIJIXarIOiZ6vm+vefwFMeby5cbMTxGJjKpZmRtjyOobKirhcDz8TEBWmeisbWLnk1wh7OrDTZcMYzDrpXOmAOcggDJCx6sduBgFCPwZrb5v2FSB86wdXYvWra10/Bi74XES8uKKCBfX2/BS69bh1wVbaVb0NZR+sh7mn8y7lpfo9+OI2nm6+3a/DAa6nu9VFtYbHeq6y4EtKY0/Zo2UIShlDBUfWy7X71PftgqXn7Df+Mn75AmorY7hv/s2IlzulNgs8+hti4Hhv3bpVpJMfeuihYt2/Glc1uqXCCzwuz4lCSddcc42o/1njbe+P0vt+FslvGPW4FjTYfarR1XG3oEDH1VL5OgdtCMsCVMtaWE+X4QSW26lYUiLBvIxuAU80YhpuIFiora3DT6+8AuXxOJYtWyYNrdauXdvrvuhY6LHt3/75zWubOHGi5HZwbO3r3YUYXNfSfCCPRFsLXlr0D6TaW0QDgMaQFT2CCQqOLSCIdoJH9Kqd8e5KdqOrk90UQzjwsCPRtX29CI4xuY/PkQIsnRtkH2gsFXwV56qX36H3USW/pTmSp0WhrAsrDe5/YiUWPrZMPHOGLvg9jn11eRTnzJ0jlQadXd1o70qAUuRM+6muqkJDQ73XW6EnT6XINHq5K7xGhkV47Sq8xm0YhiyrbsSOTW+iq61ZWkeHwh5AqKwoAnTmLYQ8NkQZIspBM7kRwTLMOe0CVNYO61XuvKc1bTAHYYAMmrebQYAwQOPZF4DA5iVfv/gyrFm3sQgQrBdsDZUu5LrQKzjg9rb7HxcBNY6lFlFrZKxnvScv2x63x9DSg3DlVuqV+vMCdH/6fctu+JG//dsCBPu+NWo2/MJzUkNmz0EXFj8wsufFc+N3QyjgoXtuleQsEWvxXvzuOwEIixcvxs9//nOsXr3aecdGOdFvbEsZs0MOOQS/+93viqI+xUXfyxmw91XDFnYc9Hcdez9AKjUmOtb2PllGQt+388HuX0Gg5k3odamiYpJtfgkEkklvTNLSl4GJbXyPDAIXc47XqR85DR858wwxWo899phUMVCaXM+xFCh4O4DAcj6yEQceeOAAAgTS+Dmwk8KuLWvx8uIFCOTYtZGPM2l11+2UoQV620xKpOF0oM0loFLGuKszhf2nzMScD56MJ+78E4Ihhukg5Xx8lnUMeY1SxRKPmpJPzSOhwe4Bt3o/eAzdR1GkK0cGYRUeemK5sBRUr+Qc5VwP5fP4+EnHIB4NSuLkxi3bMXXSOOw7bqycB0seY2w57Tkxdt4UWSSOiQAhl6PgQgWummK/w+aiacN6vLZ8qTAXTMhkGSerGMrjrkmZXLfXi0KTMyUUEqBsUgD7zZ6L8Qe5Do9v9xoECG83Qv37fBAg9G+89rh1XwBC0/bt+PxXvou2jmQPg+AZATW8+gDqTz7IajB4cD6ILvvXZQQzhqslcpoYpjSwNTRqVP3Gx76vF6eLjdKJ6r3aOLAK6eh5WM9BDbFlQOy+FfTo/v2AQVkDfl87EvJ41vD20K29tST8xlEBgpwnPbR8Hq27m/HQP2/DAfvvU2xDrMavvwCB2994443ynxn5u3btKnqBezK+dhLptZ566qn43ve+J0l1OqbW8Nt7Yg2m3j9rMEvddws0raHn9zQJUcGHeKEeu6EUt//+6bnZ8+L3hR1IpSQJsbOjQ8IIqqSYyTj2QMo4E65HA6/3oq9/HaPGjBE27f6FC3HRV76CzZs3F+e9ZSz0OiyTYseT56Pz/8EHH8Sxxx47oAAhX8gBuQBeXf4oml5b5hqRkRHzAIJLzksJiFCA4Mpd81Lml0ixBDSI8/79vxCJxvDArb9CqCyHQo57gSgX8hqU2ZH5EXYaAaT6mejnqoJcZ0gL4DhOHF9VY+TvMt6pDBYufgmLl7+IQDAkEsp6H/KZLM48/giRSifAWbehCQdOGIlJEw+Q+0ONBhE1Ujlk08FV7wHBkAu1uRwFl08QRDqZxox556AsEsP9t92IluZtoGw0KywqqmKIRpmeyX2zXNrlIfA6izLpzFVgCG7MATjsg2cPAoQBslX92c0gQOjPaO1l270BBF28X35tHc4893OoqqkVsRGLiGUR9Nq+6gJPBC193YsJjb2rAqzxE/Dg1ZnzfS2RU3ZBQw92odfz4oPu98Ct8VZjYL16y1rottazt0bIDxSc5y8YqfiyxlDZEi5ivBZdnHTx0TilGrHieAV7Gt5YdsF622K8Ojrw5GPzMXp047tmEOgJ33PPPfjBD36A9s6OYv8FNZw81z3lH6ix47bs7Hj11VcLNa6ATEGXAg0/a6OGU/fjDyUo6NRB9ocD/GyEf3s1VDyOHltBKPfpF3SS+UeemZUdba3CFOi8U2+WHh4BgpQ8JhI4bPYsnPfJT6GqqlrmOcfyoosuEoBgwxp2Pun1lArH8Ds6l++77z7MnTt3QAECvWB2bHz63luQ6tguAIEhs1zOGXWCAhpMMiWk9pmDwbi85GNk0ujOZDHhoNk46WOfRNvubXjg1l9LDxMm/HKM6F3HpJmRG19lDKVfg9dGucj0SGjPq2QgaPAAGp8XBWv82ZFIYv7Dz2D5q+sEzDC0JuGORALZTBqfmHcshsSjyCCPjVu2YdbMqRg9skHm8pAhNaJ1IqlFXnKkBaOUcXbKjjm57mKoL8/GaGnMmHsGJkydibtu/j3WPLcIZWG2OI+JKmM4HEI8WiasC8tcCYDYFpzNqkTbQdpKA/HqWsyYx2qGemEV9vYaZBAGyKB5uxkECAM0nn0BCI8sWoovfvV7qKio8h4QJ47jX/zcwsfaZ9dshS9dFJTS9ecjKEBQb1CNqi1Js16Xn6mw56CLumUuLAhQQ6IsgjVAegz7XQtKSjEW1guyYEW/p2OkhlCPoX/74+MKHHRMuL1SqvTiKqJhPPn4fAytH/KuAQINAEMMP/zBD/DG+nU9/QY8jQELDux16LWpQTvmmGNw+eWXi9KdGjg/O2D/tp67BQh2PvnHz54Lv08DZEGqH5DofbHzRvdvcywUqIiBZHJiip4rQwyUi2Z1C1w4obvbsQrszZBMybFPP+tMHHfCiaK0x/0sWLBAlBSZ16HXZa9DQbEFo/Y9bst5OXbsWBAgTJo0aQABAjPzC+jc3YTnHvwLkE8VK3wymYK0cqagGEGESFBncwIQ+Ii78cojHK/GCaefh/EHTsfOpg1YeMuvUFHOPINwUU+C7ZAZl9d8BI4Tqwkci+Bk2uUZlURkTw3UC70pg6DMEMeCoYN/PPgUlr+2HtForFjtwPtBMatz5h4tpY5sJLVjVyuOPGI6uhPtkiNQXV0pBjuTSUv8hGsSQwK6/vCaNfzAsIDOGbapTiXSOHTeRzH50CPx+soX8Pf/vQahAFvAR6SLJRunERwRZDAJWtakQkESFqm9wFJNgohweRwT5szD2P2meInQe160BwHCABm0QYAwsAPZF4Bwz8KH8Z8XX4qKqmpZAKT9q7dIW9rYLv5q/PRz9eD8AEG3K5aYednGvTKhPYZBF3w1TgoWepgCV6+ti61lFzTMoLFC+11d0JQi14Xb7wn6wxEWQFjq2oIMCzzU8CtoUTBkx1ABlSrT8ZjizefzGDGsDo8/8DdUVVS+hcXpb4iBjZro+VO1r6W1Bd3JZFEDQY3onuhwNYA8fzIQ559/fnFS6rWpQVZvXjw1M2fsuKjR5E4sG+A/vt4zHSMdNwWXWqbJ9zXEo/eS+9bj6zzttT/PQFI2mMano71dqhdswyZhcbq6UF1Tg09d8BkcPO2QYr7BokWLJAeBSYq6Xx0UBaQKYHUO+oEP59snPvEJXHvttVJiZ1/vOkmxkMe6VU9jw4rHXZWPqItqgiJ/utbXHNsk5ZalNbO7Z3ykxk2egeNPP0+chB1NG3HPzdehPBaWHghizLsSYnCFRfDGmj9JwzvVQbaCDhbZQr3Pei80B0HHhHOrO5nGPx56Ck+vfh11tUPF4POetLa2IZNM4tyTj0XjkErU1FaBsg0HTRqHZU8vw/j9xiNeUS7HzntKkcy3UPZT542yfAQI1HiQa0+lSLRg+olnYMphRyLd3Y2//u46bH71JSn7rIjHEI2USQUHAZV0fiGVkPfyLqJRUVxkXwf2rtnn4NmYeCi1S9jkac+yy4MAYWDt2iCDMEDj2ReA8NwLL+FTn/tP6XPOWCOziTmh+V1d/JQeVOOohsGdpqstVhlmRevFSgKQcQg4tTZPD5/70woHNRxKe6tan+7HghDLEtjSNi2jsomSdnHivjSuzv1p0pL1iq1npPt2CjLkGnsrLyrYUCPHTVQgRkouJRbr8jEUNPlj6jyGsghcpGcdOgW33XC9eCki6uS9eL79BQhcaH/+sytw0803O7VArw5dx1gBj46tf7rx+ugZXn/99VIrOHsmAAAgAElEQVS7X2o7y6romFqjqL8ru+Rnh9S4W7Ch88qCCt4XGlA2U9Jx4DxV2pjzSOeQerE6d2x4i59xP3yRnmb1AnsvdHW6MsdutsFOpjB87Gh8+oLPoLFxRBEMvPrqqwKUqIOgIEmBqrIe3L+K92gfAMvOcB586lOfwnXXXSfx9oECCNLeuZDHcw/fjs5tb4r0OKcfAYKrWChInoFWMMg8JP3O/INUWvpMHDHvY5hy6GwgGMaOzetx3y2/RHmEfQ5QzC0iyKQRZbiBlSAsEeQ9cADBhSYlDCWMjevfwFbKOseLYI5tz8vC6M6kMf+RZ7Ho+VdQUVUpDEBHWzs6OzoRKOTx+Y9+EKMa6lBTV4V4VQ26Wtrw3IoVOPTQgxGNsJqgzFH7XlUGmzTpsybhh4DLjbLskgippbKYMe9sHDhzjjAtb7y+CrdedxnKo2FhTWLUQChzuUXynIdCEmKgkiKZA653us6MmDAFB805GdHySkno3NNrECAMkEHzdjMIEAZoPPsCEHbu3o0Lv/o9rHljo0z8ioqKYka+M05p1xs+7GhEa6TdQi4NXxEKsCwoKPZUH0qaORpOLlI0VHzoZOHwkhndoiJRxF7UpYYwrPetHr6GJ3Q/apz8np0CBOu1KsDR95RFUMPJfdrEp1w+6/VLoA67yKK4OyPKjV45qEgx5UU0hTVV2k2uh/lwnpp6NPo+jUjPq4CvXfRZ/MeFnynZErq/AIGG8NprfoFf/uqXwh4ogFIDasMCeq+sMdNzJa3O/3ZsrWG337H7tAbe5pn4gYbdr62s0HsqlLhXQ6/A0XrsOo90HIs0txH8oqfsEkmZiOjyD2hAJKud/RwKObS0tKBpyxakuroxY84sfPSss1BWxhp4d79ZvXDuuefi6aef7pWcq5n5PF9NnFQgWAp0HXbYYSJcNXz48AEDCPSOM6lOLLnrj0C6U5L6pIIh7wwkJZX5P8entMhYMXEwg1C+gPjQRpx+wX+gqrpWWIKmTW/inluuRyzMBFqApX3lsZjcB/5nUyPmHSjoVGCg4IhrABkKyckRFUMXShNZcq3YYWlvIID5jz6L+598AbFytnKHJIkSrFVEI/jq+aehtrYGkfIwGoZUYcE/HsDQxjpMmjReGiqJWiL7LIRdboNooHi5QQLaqK7o5drwNuozSBG1GR88C5NnzBZgk8kkccNVP0Hblg2IxwmAXLK1AmACUAJS50w4LRfNpappHIODj/0wqmqHDTIIA2Sz+rKbQYDQl1HqwzZ9AQhM+vnV7/6MW+9YIG2Q6cFaipgPt6XLtYRRH6LDp03C0Po4YrFy8Ta4oEg8kLG/Ag1uEL/74+3YtL1ZvA/1+Gzill6KNTh8zxoU67np9mrw7fd1Udd9Fb18z5uwx/D/7r7rWgKrB5zPZnDkrOmizy4CjmJUBAu4BDDKtVKyNhPAzpYWWUjoXYnqY1EUyiU/Wi9a2RQamcqKclx/1X/jA3NmIcQ663fZzZGL7DVXXY3f/u636OzqcmEMT9BGAYo16Bw/HSf+rmzLxRdfjM9+9rO9hJL0vvgBme7ffy+1ykPvn72nCjj9dLwf1CkTwO8q66P3vhQAcdfmstj1cy3To1EgBS9tntvb0d7eirbWNte4KZXGEccejXPOPbeXjC4bOJ1zzjkiW+0/vgWxOqbiSRspYh3ThoYGLFmyBBMmTBgQgCDzt1BA8/YNeP7+P4tBl4RMDyCkmG/A/AvJDYDMVfZUkCZnmRwCuTwmHzUPHzj5TNedsFDAzm2b8NBffwM6yzTEeu58MpjsKOV/UjLY0zBLgbVsy2qBELurOjlnUvUce503PIaonGZzuPPhp/Hg0y8hXlnhWAmeXzaLxvpaXHj2ydi+qxmTJ43H5vUb8eILqzHjkIMxavQwhJk4KG2eBZZ7x3EqqSq7LhoIpleH3g+qRh5y4pmYfMgRAviZxPjc0kfx6D9uQ3UsjEg0VPwe7yMTF61Co66FdGwiFdWYdtzpaByz314TFQcZhD4Yq35sMggQ+jFYe9t0bwBBv0fPatnyF/Hjn12HltYuMeJqUBQEqHdkvXL3XAZw9keOx+GHTkK1dEJzJUI0sHw4+TDu2LUbF19yJdZuahKJWdY76+JeysCXuh4/DV2kK30ZzDa5TRduNRB+wGAX9uLi5RlKfsaFKpHoRirRiW9c9G8Y1VjtWufKokdI4En2sktgoYCtzd2478ElYlgY6+Z2yrpYo6jXrBLGXHBImV7+42/j1HnHS/zT1pLzu/1lEFpbWvHdiy/GfQsXIsmmROxgSGrZgCQFCv5xUIPA8/rmN78pAkF+T13HUg0h96tGQA2x7tfmgAioKDa4cuJU1pCq16bvaW6DvXd6Ln7GQ+eEMk1Epy6Mw5JJKiR2o62tVUIJvK9StUDtA3rG0uGRvQAyOPyoOTjv/E9IgqIKVjFkQwaBIkcWPOtcVUCjn/mZEn1WZsyYIRURpRgEG1qzzwCBDPsE2LltQRjDC+tWPYPNKx5FVqqOVOysIKWEZO4kq58qhWRS0q4hG5sU5QtBnPb5b2DUmH1dd1MAu5o24qHbf4MyNixixr4H1F1jIk+zg+V/wigytk/P3QFgacTEhEGvPFA7Zeo9EYAnoTdWE6Tw9weexMPPrhKAQIAm60cggH1GDsO0MQ0Yv/84jB8zAg89sEju17RpB6GurkoqDnh/XEdFx0wUQ3xGgZXnL8CoCJADwpzMPOkcTJkxxzEahQK2b92Iv//xegS626QVtDStJfgIBlFeEZOdqx6Eso68hrJwBJOPPBn7TD4EoaATeir1GgQIA2TQvN0MAoQBGs++AARus2nLFvzop9fipVVrJKNYPTspa8pli/SpGo+id53PSw/1IVUx1FRVilQp8w3oZXclurGzuQ1btmyTTpGRWFTCF8ogWE/U7/X7PXvLHvi39Q+V/Vyvw89E6IJtgYGTa+4Jj3BRceVvCYwdPgz77TsSo0YMQ1V1hSRIQZoBpdHV1Y2t25uxozWBbbtaZKVUw2LpeD1PBQhc+BV4cT/nn/1h/OSH3xQP7N0KJW3csBGf/9znwNh5twcQLP1uwZOOhQ0L8D2eGysYzjjjjF4Nm2wiKrezDIEFHXof7D3wXDxZSOUcGCf3QEvPwtvjfSvY0JwQPW/NidH7VyqpltvSqPT0WaBSoDsmAZMAhFRKvFanCcAwWRAf+diZmD1nTi8Ggc2aCBDo/et46X2042ENoZ3D+h3KVrObI8tGrTHhubwzgJBHPpfBqifvR8u6lchIWaGrIuC4diaS8vyKhDnLGwUMkUVwGgdDRo3DuRd+qxhO4fd2NW3AQ3/5DUL8RqhHXdRVKEA8/WLujlcGrf0X+D4TnWnoRT7ZtOTW+S/VBYGgzMs77l2ChU+uQEVlpWwva0MAaKgqx+ThdZg79xi07NqFRx95AtU1FZg27WCUl5chXhFH2JM5dk4LW9KT+XIliPZZK3igRtlBdq2cefK5OHD6EcV5mOjswKN3/wVvrlwG4nMKNykoC3p5Bwr4dZ4SljBXaN/pczD58OMQDseKc8O/Jg0ChAEyaIMAYWAHsi8AgUfcum0bfnDp1Xj2udXi4avXrZ6hjfvbBVEo3HwOUUHzVDZ09LRbuF2/hG1N28Wjrm8c1kuFTtkIjU3a/VqvUo1Cz357hAoUOFgAYb0rNT7Ws7M0fylW4S2GDQXpG0/vcuSw4QgECQDUa+ICGkInJXxzGYlD8rpJwapHrV62H+TQKChbQzp29syDceuN1yESifZa5N4Jg7D65dX4zre/LU2GWtvbiu2adTy06kPPTROydDwk7FFZiZtuugnTp0/vtfD5GQdbhqjf12tVcGDHQLxITWjzaHidZ5rQ6KfqeT78TL/He2RzFniCuo3U9rO/QDLZE3cW2p1MQkoYBG7DJk2S6Z9Ou7AQQW17B04983QcfsQsz9i4ufzmm29K86pnn322mByphkLHww9G98RwMEnxy1/+8oABhFR3J1567G507dgsdLnOdY5PW2d3sa+ZVHBIcqHThehOZXHUKWdh1gdOKmo78LvNOzfj0b/8lvEIRMuZe5AqJixL3oaXFEhDrkwBnw3H7IhgeTGRk+CExlbGiPeI990rSSSzdeeDT+PuR55EWSQi7CIBAvcxujaOQyfug8MOnYrXXl2DJYuXYfSYETjwwMnCIPABYSiUlQu6VvGZ1DXEgk2b6xMKR0Qwaua8szF5+qziPeDYrFj6KJ554C4pE62uqhSAoFUevAa7TwF8cKxC/dj9cNhJZyMaZRfInjCiXckHAcLA2rVBBmGAxrMvAIGLwutvvIEf/OQarFq9FtXVNcVFRr1OPiy6ENqwgNLHJCIZq+OCK7FMrxSKCmlbm7aiq7sbo8eMLqqRWUNSii2wx9LP98Yy9PIYjIaDGhKNjxe9NvUyjCiSHfIez9/lHHR1daCrM4Hx++wroYUi3SsgKIB2dkrMpCRRkYlZYnCy2aJehHp01mukEWNWOKlWGqejj5iBm353JaKxChZNFF/vBCCIF0naX869Cx2drluhtjKWrH2vMoA/+Tc/40LGBZX/9913X/Ga1TDzhFRYSOcFr1ONOn/XEj81ljpX7D3U/dl7bBdWHStd7CXPI5Mpzj/93AIVO4csKNRrcdQ6/7uQAseHRkFARtY1++G179y+HfsfOAkXfPazqKysLhqQV155RaoYVq5c2SuPxAFhN4mKrJsvd0avjddDPQkqKU6dOnWAAEIB7bu3YdXiu5FqbZZyRoYO9HraupLikbtkvLRjDphAQzYhH8TZF34L9Y2jJWeAIQh+tnPbBiy96yYBCLlCThL0GM/nvWdujQN/LtwQCrnyRgYnBCAEApKnoGEkfk/zFTg+Mj9I3bPnQnc3Fjz6LO565EnZhsehxgCfn8mjhuOIg8Zj8uR9seK5VXjppdU4+pgjJFkyGuO2Mak2YM4UwwjcHx0V3lvqOihA1XCUMk4MtRAgHDbvHMlBsGvK2tdW4skFf0E+2Y6KiriEHzheZF+EGQmzI6x76fek9LOmDsd89LOIV7jS1VJhhkGAMEAGTce/YJ/4gd33/1d76wtAYDLdkqeW47s/ugI7d7VKFz/JRPa8O054zVDWxdf1Q3JeHBeEMgQQ8bwLuyDwwaK4DDPpR44ZXWzR2kNnqyBTbzVGa1Asm2Bvnt9D088sW6BARQGCP47rDJhcjCwqapRcrNXRtHzR22xva8O40WPEI7KLAL+T9BbfUuyEMCVMmMo5ZUg9bwEIkUgxO/ycM0/Gz3/yPYSjUZOi6MalvzkIe5vkfkBWalsuaJs2bSpWEFjPXRdf/lTqX70ra5xtNj89SaHwWT0QChUT3BSI6U+bryCeqkkyVGPsXxo0aYzH5n6U1lYGQUAADZyEg7pEDEmkc0NuXhNIsZPh1s1bsGvnTowZPw6f/cLnMXzEyOK8IIPAJMUVK1b0qmKwAKEUYLHnyjGil7x06VIccMABvYb9neogkK3asWktXn/mfqTaWuSZdcmzLgmTCokK0jiHiomkgQAq6kfho5/9OsgSCPsnzwDQ3LQBj9zxW4QZYvAUAnN5ZQjKRDCI/Q00rCN5Hjn3uXuSnJFkYiRLKxU0FueLABEyGGnc89gzuGfJsxLL537l+8EAGqviOGnONBw4cRxeXvUGXnvtDRw6cwpGjRwuz2tFPIoomzvxWQwyV4L5EC5viFQFgToNO9cmy4YGQiGk01nMOuU8TJx2mGvo5gG63bu2Y9Hdt6Bt+waZo3wpmOU12ERtaWQnna2D4Op3/LkXoq5hxCBAeJ+s6yCDMEAD3ReAwFKgO+ffj/++/FpZWEgt2+Q6P0BQlKxeJBfiqjjbsTotBHoA8tDJgh3E5q1bZLEaNXZMyQZO1rD72QJ9SP1Gwc8mWMOvRko9TTUYlvmww6uJSnpd+tMek951W2srRo8Y2UukR/eTzDoP9y3egytd8LxfVxKq23HBJjPjxHqS+O43v4yvfPHTCIZ6JzsNNEB4u6nF8dqyZYuU/qlWhYaYeoOongRD67HZuLN4cKSBPepbxscDXlYXQhdpLcPjT0c3OzbKSmj7772CCzV+Gq7Q/QtNzDI3L0OexxeglssIMGhtaUF7WzvaW1vR3tGBAw6chE9/9t8wdOiwovEgWCJAeP75598CEAQAenkUdu4pYNDx5nbs8fDUU08NAEBgngHnVRYbX38ebzz3GLKJpFd6y1CKU03M0YB5JbbKwsgzlS9gv+lzcMyHPibsAh0CCxAW330DgjmWJAdEuTCXc2wLw2nML6Byog1TsbGTggMXyklLf4WM9EPISyjNATiPbUAA3akU7l+8AgufIuhy6qwcI5ai1lTEMG/WwZi832hhfla/vAaNw4eK0mFDQx0qKFYUJnvhDDXPUbtByvzIAWlliPKQuSTzIpdDZ2cCsz50PiZN7wEIklCd7MYj82/Fm6uWI1oWkO/oPSyWcHrg1oEdqjeGkCsAh849E+MmHzoIEN5ucRmgzwcBwgANZF8AAim3a399I/5wy99EwIQPAw2XXfi07tcaTc0w54NXXVGJnKdxoNKmkqwXDGLjpk1CX48YPapocKy3pcbBxp2toVVD7x8SPRc1WhZo6L5s+ZzqLdgF2+5TjZyNLet+yCC07t6NkcNHCP3oKjV64gBkEIRa9UoEldq0JXi6L63jV4BA8FTIZ/Gb6y7Hh08+DsGAE3nR1/sNEGgImpqaig121ADzfJRGV7q4FGDQ96yhtmyCAjU1/jZmruEKHsuKXukcsGNugYKyDXpMrdHnfoSVEOUgqgvm0NHeIc2rEp3t7h4WgFSKPRi6MXRIHSYcOBGnfPjDiERdgyLum+Nx9tlnY/ny5W8BgbqNjo2eaylQS4GkJ554QkIM9tV/BsEBhHw+jdeefxybVj2FQtZ1N6UAQjLpNAvywZCwTzxHhgdUTAjBEA6feyb2n3aElCGr2eY57d62EUvm34SygpYnBhArdwmHTHB0mJfJgD1aAdGIE0gSOj7gjCsZBPJvNPjKnAnQ8wAaDfj9S17EvU88J0PBsAGTddvbO1BeHsZZx81BY20FRo8cJnkTTdu2ozvZjZqaKjQMHYJQOCrrFJMig0GnTyDPGCWf2U02TLVDarO40IAASAEgKRw679xeAEHXo6UP/xPPP7YQsbKcJFTr92wPGfscCwMRzGPslNmYedzpgwBhgOzW2+1mECC83Qj18fO+AITWtjZ8/8fX4KHHnyjSfBpP5iLAhYYPos0k56JK2lbi7JK5HC4me6lCIL/L3+l9sRZfAYKf5tfFvdQlKW3s98as8eTv1lgUyxo98ZRSIEC/o+EFe04WeOiiT2qatfIjGxtl4egJRXjx3qxLjFNwoefTE0pxxtWCEHp49KwIEIY31OE3116Gw2ZO87zlHoTwfgMEHo8GlNesgEfBgTX+NvTj96B1YbX3RQ2KevrWqOu48Xt83yZ42u3svbYlkEJpe6VsSmlrfgS/w3Hm++xsuX37NqlCKWSz2LJpM2Ll5aiqrJL4diLZhWNPnIsJEw7o1VGTwODCCy/EqlWrejFFCnZ0floAZeeobkcGgT0yBqLdM9kDSgevWXY/tq9dJeyfAw0uX4CgIxsMFuclgQO9fwkXlUVxzOmfxMhx7Anhkgt13u/avglPzL8BleEgOjrISuRQFg6iPEoxo4Dr58BKhlAZOrtTeH39NjQOG4Jxw+tcXoKURnLdyGJXcwviFZVSuutyFkLSSIovnvt9i57Hg8teEkPOF4E4N4xFQ/joCUejs7Ud+4waijEjGhCNR5Fo75KQZWu6gMefW4dsPo3Pf/R4kWSmN89dU4uF/RR4XazcIDOSSnUjGokJiGfnylnzzsHEaTOLIRSZ34UC1r78PB6/608IZFKSHyRyzl7oSsTbvDyLHmDM/I4C4g1jcPJ5FBTTpKbe5Y6DOQh9NFh93GwQIPRxoN5us74ABFLJ3/jeZXji6ecRizogoApxuvDTI7CVDJZKJUBgLI4ehMaqdbHhfjZs2CAd2piDYEsc7QJqDan1vNSgquGw16uemx88sORJqXz/vnR/umDT67CVF/ac1BPkuUmiX3s7RgxrFJlcZQjUcKZyWVk4/d5xMeZr9BXUyGnlAH/uO3YUfnPtpZg6dZKTrH6XQklvNy/29jmvl4wPQYKfyVHAsCeGx84Ly57oePGnsjo6djpm/K4aeb2nWuZo77UfEHLOaRKaXcz1/ul58KcTp/KSEpmk2dbmPN9cFt1d3WjrbMW8k0/F9EMOEcVAvU52cbzllluwbNkyARl8Ztra2pyx9JQe1TBrVYc+Rzw/ApTGxkYcdNBBuOaaazB69Ohet6D/DII8Eeho241XnrwXrVs3eMl5bOro+i7wf8rT7dAxUuAWr23A0R85H0OHjRID6jSSnHHbRQbh7htQyUZMoTAS3Qlks9rBNCwAwMX7c3hu9Tr89YFn0VATx1c+cYpIFTNRsqODgLpDwktDh7JVuKtukhJH78oTqRT++eizeGT5y2J4yXRwzKiqSK2GY6ZPwOi6IWja0YzamkqM32c4Rg5vkDLLl9e8iadfegOFsgjOOWkWRg+jCqRbtzztKDnHNMMirDYgQEEQ7YluJg7giA+ejYnTDu81v+nwtOxswp03XI9AogXl8XJEyhhCYC5Mvti+ntekYJeKVLyubFkMH/v3S4RZcVGx3s/wIEB4NyvSW787CBAGaDz7BBBaW/EtAoRlK4RBIFugizcXGb60RlsXal3o5TMid6+drrIGatD5wL65YYN4M8NHjeyVCWwvURdz/2X7aVr/d/Q46s1asGCZAD+wUEOn21uDZ0GCZRBoNIfV1aO6urq4Ox2PdC4rrXTVE9aYuTWGfrDCfUuCYzKJ/caNwW9+cSkOPGiCLGiaHKbXN5BJim83tXisnTt3FssI9RzU0Fpv388QWFClY2y1AXReafKhBRE6Prr42n0rsLPzxIIG/d0PNPX+qlAUz0WNp0tAczFs5ids2rgRLS3NqBsyFKedeSamTlM2xxlP3icFBxYgaLmlAhyNzXMOSDJkOCwAgRUMY8aMwciRLo/Fvt4JQOA5tTdvw0uL7kaitdljEArIZRw44PV1p7NeuNBJLzMGn8lm0DhuEuacco40pnIVCYZB2LYRj/ztt8gluoU94H5EoyDGXgRlopSqr5a2Ljy3aj1i0TLMPGg/SUZOJJKS08B1RLo9kq3RyiKBI06xmMb73sefw31LnxeAwDVGJY2poVIdCeLcD86RxNadre3YuasNQ2riOGjiOETDIexubUVndxbDRDipXJhMaXst5Yc01Mx9cXk/IpSVTCIWiyNeVY7D5n4Uk6fP9gFg6mN0484bfoX2pnWIUV6eVRdBl2Qs7IckRfYkGjuV+IAAsVM++1+orRkqYMjNXROCTCaLid5v9/wNfv72IzAIEN5+jPq0RV8AAkvgfnTptbjv4SVisNixTZkAGkUtcZSYsKeEpw+8eGyM86YzTp+8qJLnTs/lIGwU49k4fHgRhevJq2dp96cGqRRYsEaWDy0XGjUC1oj43+thDHrvVd9XT1+NkjU06nlyLIZUVUsSpz9ckGXzG69Zj54Hx9DGpa0x5Fnwb44t91tdEcdvrrsMxx5zhFuE/oUMAs+H0sLWGOt4WsOuv9t7qTkA+p6GYvwATu9jj2yt8ysVUNnwgYIKnRf8rj9PxAI8P4BRgMLv07DTeNJg69xLp7rRtGUrdmzbLoYkk8li9lFH4sMfOQ2xuGMRLGHsB3p+cGk/188ssNb58e4AQkF0N1qbNokGQjbdLSWKrveC0zvgONBYaz4R32PDtEIgh3EHzcIR806X2n3N5Nfxbd65CQ/f/lsEUuy7EJO+FalMSoTPmpt3i6Q67xuZAiltlhvn0fixKCrjcTk2k/gs8LD3ke+T7n/giRexYNEziMZiYuTdogEkupNoa23BWcfOxrjGWtTWVSGXD2Jz0w5sbmrG0Noq1DfUY7+xI/Hyyy9Ld8zGYcOQybJCJYQqhgF5fKnMcCEUYVR472MxTD/h9BIAgUxBFosX/gNrli+mIlSxvJGhGVn/2ERNpmreqS2KEqiTXZ/94fMx9oCpUgZthc649SCD0Cdz1eeNBgFCn4dq7xv2BSAwSfEXv7oBN992l8Td1PvlQ8yJHY/HZeG2meS68Bc9xky22PXN71Vu3rpVMopJsUocz3vZhV6pYdK9Vs3QsgD+hdkCCfuZH2AoCPBvI2uRSTR0xpyKbM6w22Nzcenq7JRkTIYY1PsvGhnWYDMxyiuPsteoxtHuU40hQRXDF5lUEv/+ufPxw+99A6FwqKcplBeTf78YBJ4jwYHEgj2DreNncw5UZdIawF7j7HlW+h1tcqXsgDWSNm6v29v9qmFRkFLcZ4lyU8sk8J7p3yqWw33QW9d7Sy2E9evXoW13i+ghSKJtIICa2hp88oILMHL06L1q7A/QYyrnxLlgnw/dd2mpZSbkZbFt3St4ecl9YL8QXhOf05SnCslnlAl5NLzCnKTS0jOEIGLyrBNw+AmnoCzUm8ngPlp2bsKif9yAsjyfeQfcmMjIqgQCjrKwi8uTas9k856IGPOUmDTIagXHOvifLz9AYMz/vsefx31PPielvcxj0vvenUhg1+7dmH3QBBwzY5IwlHUNdYgFg1i7cTueemENqiui+MjcIxCJsAsk52tBykiZN0Bgo2sULTrPV1Qz89QmieCQuWdi4sGH97q3Mr8CwOpnl2DpfbejkCN7GkDYq9wQB4gJnSH+d2CWa4Xkv+aByXPm4uDZJ3oMQk831kGAMFBPSc9+BgHCAI1pXwACPY7b7piPy37+v55YSbRIL3MBpcfgFgln3K03WDQaXo2/1kDLhsx2DgawtakJ9LBJseo+dLHXy7RGtOfB7s0O7AkElPLIdL8WAJQCCBYEFL/jJSzZc+ICyxyEili5eCsW3PAYhDU2xG/gxRIAACAASURBVODfr4IDBUIyjqS4Q1x0E+K5TN5/HO656xZRcfOf9/sFELjoMbxA0MJz1cRUZT/0vFS1cE/MiwjykFXxDIWgPtM3w8/UWIbCHlfHzSZ/KshQkGYZA2UgisDV6z4qGf1eu2e9dyoQtXPHNgEHTISnDDNr9xPJbsw+8ih85IwzHNOwB439AXpM+w0QXIvnHNavWoY3nl0kc4nXZTsYclxSGSeTLlUdrEKgsmGgDDPnnomphx2FUIBdSp1wkjyyTFDdvgFL7rwRZaTVJW9AMnU8NoydDCmOlZVqG9EfkLnsWpyz+6lH7L0FIOg90XnAc2WS4v1PrUB5ZWWxpFVUMEXcqxvjhg/FuScdiVw2LVUJlfEYQsEIXn9zBzbv2IEPzDoIldGIsJ6J7i5UxCtkzhEU2TAOcwgkFIScAIRpx5+OidNmvYU9oYbU1jdfxUN//jWCHGNPMZHnLFoILK0UkKDrIDUdHEAYOXkajvnQJ1z2gVeeq/NjkEEYqCfFW0cGhZIGZkD7AhCI+BcsfAQX/+AKhCOudEi9Oj6sGkeVpi3eaVkDLwaaYMBbZrQiQA1307ZtkiE8pJ7o3oEM/b7fkPpZAusRWiDgBxjWW/GzAtYw+UfVHY+WwcUS7fnY37notLe3I1YWFiEpvvQ65XjBABLJpNdHQaWmnSY+P9esfOd19ByHf9MblwUoUMCiB/+O/cbv8xbP5v0CCLzfO3bsKMoU68Ko90xBkxVI0s/UOOvcsfe5VIhBx9cyTn6WRcfKXzVimQY/jW+BnQIbvqcSzNp3Qf+myA+7OFKjnyCws6tTmjlNmDQZX/zShRLL/j8HENhgPJvF6mcextbVzxefVwnNGHEpyeKn0BZVECm1nM+hsqIWR576CYybOOUt1yUAYdubWHTnDQh7VLkyQyK0lM0iHnfeeS6bF4+bDz7DEEwKFJAgnU7d7/7n2eUIOMBB6v/BJ17CwqeeQ3lFpTyDrkIiLUxOKpVBTUU5Pn7y0Rg5bIgDcYEyyXcIlIXw5rbdyPI+jWfyM8MIISmR5HGH1lEzgblUPc+f03Fgt8kwDj7+NEyaRqnlHk9f501b6y7M/9/LEQ2xTNuJR3FMJdlRqiNcYygJIRabYxVQNXwMTvnERU4p0sckDgKEgbFnupdBBmGAxrNPAKGQx8KHFuHb379cBFSYhKeKdlxwFCDYxbtUbJEeGN9XqWU1jtt37BAvua5haLGPul6e39DrfvV9P0Cww1KKEfB73v5tSn3Hv08LDOz5MOOdCZlDamt70YhyzEAAnd0JL07JNtcOHOgYqCdd9Kg9j0TEbDzQgEIOjy+8AxMP2PdflqTI8yFAKNbOU2TIXIdq8Yu36okZ6XsKDKwXr+DMH6awjIT/nvM7Nl9DczksSFEmxoY1/Pee22gugxVg4jVyPvJnV1cnkt0JJLsSUrefS7mwBL839+RTcOK8ua4nwwA9j3vaTX9DDMy/oXjRisfuxu4Nr0uWvR1/vQc0qMxVYEKgGMhgAHUNI3HUh89H/fDRb9F04H3d3bQBj9/1B9e0CF4fBQoJUU/BKxktgm7PaVAzK/fSY+BKOQH6PBQCTvFx4WIyCC8iEo0J+FBRJw0JMLQwd/YhOP7wg+CKGFmxEnSNoPIFrFu7HgdPnYxMNo1snnoWTiacpY5cx0Jesyldzxh+yOWBQ044E5Omz6KrX7wl7nxZIprC7b/4H4TzCWEtCAJcsiPZE5egKY6SkXSXz6rrcPoF30BZ2OVw2YYqgwBhYB+gQYAwQOPZV4Dw0KNP4NuXXC4xy8qqKlfmSO82nS5m3/pBgS4AChy4jGopUxHpBQIS0965axdq6+skn0GFguwl+r1Aa5SsR2qBhf2+DUvYbazn6h9SHkNZAF3wLAiyHi5/ZwY7r7G+vr4oJ1s0SgYguCTDnlCMGjz7U2lxBQiSHBoJC4MwZlRjrxp88QBTTh7Yn+PAfbLcTlmNdzttaDgJEHShtoZc74NQ7l4CpjIjPK7qD+wJ1GlowM4ba+i5Dz2GH6TZe2rPye5LwZf9rpZJ0gArU8NjaH4Cf+c1p7uTTpY3lXQ9K9rbMXrcvvjWxd+RQ//fYxAK0lfi2ftvQ8eOpl7JnTRmNLa8trJgWO4lSwOlr0I8jrqRY3HEKeehoopAtzf04di1bN+Ix+/8gzPIBScIJnMwmSwaRSZ5irGXLP+e7ptFAOCBSgV1+lMAR1kQL6/ZgGwihc272/HPRcuKPR1UHIv3R0Hc6MahuOCjczGucQiiMeZMkL1wrcLJ+rAEs76+Dh1dXcWQVnNzC4YPb5SERfvccY5mcnnMKAEQ3Dm6Zld3/OpKJJo3CWMg5aoEFhIuY7VFzzXb9SUQjePUT/8HqmrqB0MM73YhepvvDwKEARrgvgAENoJ95PEn8V/f/5lLaoq7LGVOfhFCEqWyHk/CLtbWSyjzyqUUWet2pOZ37NyJWEVcEvyUntYsYAsmLN2si4rfE/EPjc1o1wXKDyToifTqy8T2tx79vyfWwRoa/k5DLAChrk52b401QUFXsluoRVFs9FVXKPCw+yQVmfI65fEcyqMRLHro7xg9gl0ve3s27wdA4Lkx94AAwdL09j74QwB6L+1CqWV/avDVcKsh0TGw+7LhCcsKKFOh80+ra+wckNiwJ9PL/RQZGa+5lDaY0lJH3afzUpOOSejolMTMNMGCl6+AUAif++IXcNCUqaLN7zemA/SIym76zSCggHR3F56c/0ekO9uRyzrDJuAg55gTAQjhCNLJpICjeCyCyspyVA7fB4efdF5RKdJehwDh7ZuEQQiqNDIVE71QGMWkOLlZ6SH3SSSaPbrdy/fw788+i/LMBQvoSmSRTGexdMUq/HPRcsTjFYhGIg6MSAtxJgV3SUMnHu+E2TNw7rw5KBd5ZRFtQDqdkevrTiaEKaiqZO4OpFKjozMlyZLxeLkLhyhL5xKjMP34MzBRujn2TiYkg8DvLfzLjdi2doUwLrz3ugZa58bvuBTKojjxnC9i2Mh9ejkevP5BBmEgnxamzegqMrD7/f9ub30BCKQrySD81/d/inwhUPRUFSAUaTVfl0S/p0iAYL0tvYUUSaJUbSjiaD+VLeW2flbCGgcxTF5+gPVMdJtSC5Ec02sta2ntIhvgfamX3pnxouy0s7+rp8k4aG1NjRN8sYlIZaGiUJJ/kqlBkrHxujzq70UJYi7C2TQeXfg3HDhp/39JDgLPU8Dcjh29ShzV+KvB94+RhJU8cS1lCZTet9/1szwKEHRb7lcBh4LCvT2wdhvLJJRiEBQ4KFggECJgSCS6kM2kJTmRVSoWTBDoNDQOw3cu/j7i7O73HiYq9hsg5AtIdbXisb/9BoUMPXuv2ZkkKrrQFs+f48l908BVVsZQFgqgZtQBmDXvbITK3lrBwPHevX0jli64GYEsExEdw6Djly+wGRKZN5b9uaoDWSekQ6R7+YfJ/xwV5342izsefAqPP7da1Em1QRKrBETx0AsDkf3gM3faCUdg7ozJroGSlDC6gzFJkuwGVx8qMvKcMjmnW0ENBVZWFOcKGzmFgjj4hDMkB0HXIHfmPWHBpQ/cjVeefEjYAoIPyjlTAUnXQst0cd/8Oxgux6xTzsX4yVNFtMm+BgHCwJreQYAwQOPZF4BA1Lzw4cX4ziWXIxyOFrsVKj2rOgjyCHkgwSYiFpXjvP4ENgdB6NxMBlSiQygoIQZmGKshUCPuBwp6rKJhp1NuMuH94KAX1edRon6wYc9/b8PrDIFTWLRGSMIB2RxqqirFgPcyGGVuIbbXo8dQoMW/heL0yiE16dMp8UE8vXvvuhmzZh78Lwkx8FqpE8AqBl6HzZdQgKZjqMadhkeNB+eEelg6brp46vf8+7TMlAIE7kP3r+yQLsg6T+z5KHCxgEPnTTER0UtS5N9avaAggcl7uYxXBpjL9Gp5PWafsfj+JT+S7PX38vVOAEJb81YsufMPYsj1xUfEAgSOCcfMyYMHpCHRyINm4bDjTxUj73+O+Hcz2z0vuBmMtruGay7JlrF/UvasYMhkKPLlWEb5v5fBsaygzgvZZy6PG+56FM+/8gbKKypEhInPAel8XbdcCXBGAM6I4fU4b+5sHDJxvCRHchsJN3GuZnLybPI+yb33WAOCQM4hZZhE8RV5TPNCDE6UTMMsLs+A/19evhRP3/s316ciUCgCBH+StYa7BLSEozjk+DNw0KEUYBosc3wvn5dBgDBAo9sXgMBWvI8sehLfvPhSgDW/Hgrnd1VwRSk2Pgi6gOtirQ+JhBh8nfd0AdmwcSPyAddVjSCBSFwfTDWqYgyYNSwZ0A4N6AKnnooFKNYIWePfAyp6Srd6ewo9g2sBwFvYC8OY8Bvi7efyIgRDENQLIISCoi2vx7GfaaIc31O6Uw2renriRWfzOP2Uo/G/11/ZS3GS27xfIYbm5maRWNax1/GxYRx+phS25h1YIKCfKbNga/vtgqpGXgGUvRfFMJQHSm3io37PnpuOo54Hf+oYq3qi7oOeKQ2P9pqg8BXpbCahprods6C5FRT3+vbF3/s/CBDy2Ln1DSy7588Iet0xZTwkQdDlDOg1EJDzXpCST6e7MXHOKThkznEl6HX3zLHdM7s5RqV6wz2DTkacc55VARKJR6isJ/eAcsSlXn62z86TdC6Pq268G29sbkJFVVWxSyrvveYg8JzZZIosT339UDQ2VOCrZ5+KuspyAQaslmBZKpEFn0kCrUgkKoyGrk8OkJchGmV3RoYa85h+4lmig6Aqki7tkMXKbu3Z+NorePj2PzDbAaGgY1UJOvz5U0WAxIzLYAgHHnUyZh55gqyj9jXIIAyQQfN2MwgQBmg8+wIQ6BE8yCTFH1whSThcSLU9Kk9DF1gmJinFViongenBYgRNEpvG/ii3zMeP31PpWQ012Liy9RAtPa0GS4elFDug31VQoaDBei26jWVAFFD4h7wXAPAAAqnoCqrrmbirnEsw6ACEJ7Oq56ALongYrCn3Qgz2Op0HnkegEMTBE0bgn/+8vSh3rdfwfgAE3uft27dLkp4eV71ya5Qt+6MhEjtW9jsKCISC9UCV/q771NwEvd9q2Pysge6X52bDO+oh6hxRwKHb2woGK7msi/3O7Tskv0SOm3eZ9Drnuc3F37sEw0eMcCp679GrvwwCu1NuWfMCVi3+J0Dv2QMJcs0eg8Z741QU2fKZZZ5pSV487OTzMGHqDKHn7X3T52A3GYT5NyLEfAGmKubTWPnqRix+ciVC4YCA2KF1VcWwhn9IyCYUQb+3HvA9C+h5nt3pHH7ymzuwdddu1NRWybna5FcBOWR8Et0SbuCaVN8wFLOm7I/Tjp4mfWMCpPdNaacrYfWSCYMhZAs0+2rkI5JDVBYJYNrxZ2HCwcxBeGt9Co+7Y/N6zP/DVQgG8ggWnCok/1MkSp5d/mdYRTQQXM4HZagmz/ogZs899S3iWoMAYWAfnEGAMEDj2ReAQIr1pj//A1dd/wcpN+KE19I1pWiVPub72iddjZ3GbQP5ggiWqKdcNLyBgHR0pFiSfsZ9qHJcr1i+ue49GW7dxBot/4NujYkFCHZYrZH2D3cpFkIy3xFwMq7e4srt1PBLrXmBhpDeQw8DovvWOmz1WhREOBqUC3EOf/rtVTjxhKP+JSEG3muGgrT/hmUCLNiy9D/fL0Uh673R7ylQUCOu42t/6kLLbWzppAWHeiw/wLOA0QIUNfZ6fNVAkOZbHR3CIlAmXIEDCWit3mHuDMW9vvb1/8Tw4SOE3XqvXv0FCDzHl59+BFtfWYZC1mkfFL1Zz5vXHAQ3rl4PhEAIx3z03zBy3IQ9AgRWMTw5/yZJUqS/HQmV4ennX8HazbuQTHbjxCOnY+iQHmEjC9gEEGvyr1fNI3LEnmeu84E/k5ksfvzr27F5ZzOGDKkVCfNebCJZj1QKnR2dcq84L4fUD0F1ZSVOmn0wjpy6v1D/DoT3lCIKuEulpNxw7fpNCEcjGD9ulItR5gooiwYx7bgz9woQWnZuxT03/gKBXFaOIVUhhTyi0bALbUj8UegaVwZJgJAvYPy0o3Dchz82qIPwXj0o3n4HAcIADXBfAAIXx9/f8Bdc99tbpIKBi6jSkpz4XERdAyf3INKr0npj/lSDUh6JSpUCH0R90HVBZ5ljIuX6wiv1rJ6f0NSeF74nsFDKEPnfs8yBn0Www6meainvSfepoMJ60rxWZlpXxl2feE3gEoBARUSW0olSnQslWM0AWVTo6WSz0gdAjZ56uwQIlRUxLHrgDjQ21AklaoHQ+8Eg8L5v27ZNaFo9PwUJpcbagiM7TqXAhDIppe6v9SyVadFcBQsE7H6VwbLgxH/PdWy1QyT3qfOVBkdLHxUg8H6lk4niNvRWzzjzTEw+cEpP5c0APZf+3fQXIFC/YeHtNyLY2SQSxRQgcvfKCX9xXPg3QbgbX3IBQWQKBRz/8X/HkGEj3pJHYxmEp+/5E0JidPnM56TRUUdXt0grj6yvFWEwBQKl2Dj/80+DKtt70JnhAAcQ/ioAgRLJXHOUVdTnRRprJVNSYUIvPBKLoba2BvU1cZxx7CxMGjuchZPIgSyJp9nBCg9PDyGZyomQU2W8XLpEhkJsnlXAlKM/jP2m7plBSHS24oFbfvn/2HsPKLmu887zVzl1VXVXdc4B6EY3co4ECRKkQIkURYqSLY9teVaetT3rMLbXY9k+3pk9nrEte3zGe9ZhV7ZXlsceURQlJlFMIkUSJEDk3EADDXSjc6qc8557X71GAWyEBopoNFyPBLpR9d59733fDf/7hf9HNOCTIEDIVFiQBECQgEu6MBQuBHVch6JxnI1dPPmVr+FwVlwFKEsWhOIOnBJAKJI8bwUgiAn0B6+8xX/5xv8t85pV9kS1BoOYVCXDWb6srTp41YldNRmLQS+oTsVPOVkrq4qcoMQE6A3455xo1QVVtVKoi5FqAlYXAfW8woVTfYbC4Dd18SgMmFOvUXeX6gRW2JZ6X/UcFUioC42YDGwWJchSfWcV8IifIsBPfC7IVYTLQY3sFz8L4xBmI/VF4JzIvZcTuR6rxcR7bz1PXVXVgqQ5SrNvLCZjEFTQp+7qFTeIwgKppneqMlcXluuBu9mJu8AvXhjHot6j0KJT6Ha69vtC2V+7OKkplip4UV0g4hrRh8Xnan8W34ndqeD9FwuTWIQiESVlsLa2lmeefZYlS5dKt9uNgGsxhup8AYLP4+W5b/4FlnQQQ74ypCDv0+qEXz7vCsmByWDIu720Co10Bp76xf8dq+RAuLoWifoenvFB9r/6bfQyI1BdeBWzvQJAlEPIUh1jKji71pL3CdKkfOCjzK5IZvib77zOuMeL0Shin8TiLdIYBY+xABRK0KBwGajxP4Is2SBcCxo9dpuBn929C7dTg1FkVOTnLr3RQC4j9JyS7Kbi2YQVQLoGNVp0hhxrdj1N5+otn4jDUN8tGgrw+r/8LYGZETQivEDWZ8nIYEzRF4QFVGQ3xBNJopGIJNoamfZSVd3A0vXbefzpn8JWVjYrKyWjQqnuWTruXAIlgHDnMpwdxMJ/J6KYr3/kOHmmj9//P77BpaEx2fnFRKv+FGbFcFjh5hegQaViVvPF1UA1EUwkBrguX+xInSxU864ACOJQF9XCXbr4XC7I+S3GtSZ+9dnVawt3k9cu9uLfhS4G9drC3ea17oVCN8S15u/ZyVCrw2axSAuAajWYvVc2iwjwk4uoSMEqAAiFzy7AhbqbVnd5yq5Zh8NuYe/b36fCKRjgrgQ5qYvap02UpL63mMwEuZXoN4VyViZrZZdWCBRUH38hWFKvU8GV+s6qntU2VJ/ztS4Icd61MlD1rAI3FQheT3cqsFDdDOpPNZNBAALhxxY+bGE5EZYyg1HP2nVreXjXLlzuqtkhc+3CV6ThOdvMfAGC0NGr3/kmxrhXqVIoLXkxROE1mYkEWC1WWV9CCb1ThpbOYueZf/cfMeTrq8z1Xt7xQfa+9C2ZxSB2zQptcp4iOc+WWujSEfEzc40x6fKQlnilvxT2JeX8LKcvDJOOJ2X1Q6NIRxQXaEQmg7A0ytlCyZtU60wkU7x/speRGb+0SFTaRNDi45iNerQGvcIAK9gQE8JtJFyCoi1lUZaVQ/U6zCYdq3Z9gSUrN0mmyLmOWCTMW899k8nhC3kgJGKMRIonEkCqFUFT2bQElmajmWTOxMvvH+Cnfubn+fe/9utXxRGVAEJxR0wJIBRJnrdiQRCRvcLf+o///D3+/tsvkBKc53lXgJqLLCZVsUAJP6GagSAHYz74Tjyu+Ld0FYhBdE31RzFB+IKB2c9V8/u1fu5ZoJB//8Ko4cKFoFA81wKEwme69rxrF5NC87a62F+7G1J3j2IXYjUrEeFysruqlAuSQ0A+r5zXFJCiLmbiI3GdDPQUE1Y+Olx8rsp284YVfOtv/ztWUYmuICDubgGEQlmJ5xaLjlg0xeKlBu0VAi/VolNoUVIXZXUxKJRpISAslHGhnK4FcaKdQutQYX9Q21CtDepzqNeoVg/xuRp7ID5TrWHSghAOEwoE5eIhqo1u2LSRnp6eWVZIFcgUaThet5n5AgSxKB/d+0OGTh+aTTMVFMGiYqPsXyB3zLIAlYid0IiFLY3JUcnn/u1/QK9TzpkLIMyMDfDRy/+ITsbTqAu1DD3Mu8+UAgwKqZBiVVDBpar3WTCQdylcO86ES0648Wu7N2Eqq8CgV7KnxCZDBFOKeBwVGIhqSKoO4/EkR06c5O23fkR3Sz2blndI94FoS8QAiUU8EovI4EEJOmRxJeGu0+RdBCL2CXp2fI72FTcACPGITHMcuXBSVlYVwEXIVzy3cOcIl418JpnyKVwwSfYdO0cwreUP/tP/ySOPPnaV1akEEIo7gkoAoUjyvDWAoPjYJqam+bO//DveemevUso1kZTBQYJuWVgNzGVWaVWQHAA5JTdaBQnCHChWxsIa8PK8gujlSCwqg6lkiqCYIPLRv2Jwz54ndhvKzKXcJ89KqC60CnGS3MbMxjnMTnT5NC+1iuTsZFXAnyAtB+K/QlNpnvNA7Ehk/EQ+wFAJSlP+CEwgJhyxeAtCFzlx5oOvlIBFraRiFnIQ1gN1d6vsuBVlCl3IXYxgZhPFbUR8dVphbuvubOO3/8Mv8ZmHd8pdjlpdT73ubsQgzNXlVKuBeA8xyRW6m9SFu9Aaoy4E18YuqKb/WT0WpMVdCzqutTao7RcCgcJ7zmVBUoFmYXCieH4VKEiXl9cr9dTY0EBHR4f8Y3c4pJ4+bZfCtbKeL0AQMju2900uHf9AjhMRVS8i/uX4Qwnuk9Yq0b8EyJKLeZLq5hXsevarBel9hU+izAOe8SH2vfJttMIyoKY15kGxaDtfainPQ6AE66nxCAI0KKBDdctoZtkdxYlpWaxJKYKE1sADT3+NKsE8KMdQnmelMLNAKXogH1KNrxi81M9Hrz6HVRuVX6UygihJpHAmlaqTsoASGA066WIRVk3J2qoVIEQnKzGu2PkES2QMwtwWBAEGjr7/I84f/gARfC3eSLSv1etkwKUgYhBAQTyTACXJZJppT4Cyqjp+4dd+h/qmlqvAVwkgFGlByzdTAghFkuetAAT1VuLcYydP8yu//geEY0m8Xo/0kZsMRhkYJEu7iokmI0x4Sq649Mvlg3jEKBRAQlKmSvOkXoIAST2MBm/ASzymEJeIwaqyJMoJY473FQuyWGzVHaYYmHkOI2XA5yeiKy4BZachp8jZCefKBKNmD8xaEcTEma86p0ZZi8lWTCICACk50SpYUSY8s9mouBfkxKI8tZjsxAQnSV2yCgC6KrhOI6heRZpZWuZUS2mIim9asBiNPPXkYzzz1B7WrFqOxSICGJWiNIV6WSiAcNXykSeRUeMpxIQp31lW3lP7wxVzs+o+UN0MKhBQF3fVXaHKSo1xUK9Td7fipxqRr56rAjDViqD2gUJgooIbNUhRjUdQLUyipkZra6usrSH6bSH3QpGG3y03M1+AIPrmuZPH2P/Gd9Fn0tKtpyzAokS3IDDKSBeDWCnFmJXlt9Gy+qEn6Fm/fXZ8XP2ASrEi78QI+179dn5hVNC7jFcQ/ENXuQoUSnFpDcsTmYn7isJJaqCkiAWQf+TYFWmHOWKJNOeHRlnS1syTP/+rVMmiUddPIS20Toh2fd4pjrz1fcKeUSKROLFIkkRKiY8R9xCxATmNktooggoNOlGXUhmnCk8LrHro83Su/iShkSoPYck4f+oQh995RTCYyfEs2BpF0StRrVKCAzEexHtLK4qGZDrD+gcfY9dnn8FoUuZA9SgFKd7yULilE0sA4ZbEdPOT5gsQRMf/w//8F3zvxZcJRuJy1ywyE5RcaiVYSEnXu7KLF08hJw6NRpZ9NRmVVEdlgld21OJ3jy9AIh6TBdQEFakEAGKAzY4kJdpaNWUqi6+IEhbWCeV+YuGca/FXFx9JopZvT12IZDsiLiFvqlTK914xXUszcr598R65/GQlJy2JELLyeQXQEW4GaS2RFgElpVFaF3R6OTEq0c1XaGDF+RajgZqaSixWo5xQy8srZHEZp8NBa3M9X/nyFzAZBGC6EgB47cJ8LwCEa59JkcEVQhqx8ArQIMz2sgBS3jdeGF+gnl8IFtSFudAdc22cgQoaCu+nAkfVtVBoVRDPJu4r+qs4hGtHuMdEtLwobKXWBFkIa8Fco3a+AEGUqEarJxYKSMvAlf4vtvMZGVch0/TzMSOyzLJOi7OmEbPejF5WG7z2SfIAYWqYfa98B60AHtLVpQDlTPbKuBcWOAWcKTEC2UxSMixmxeqZ5z6QIyet7OYVd5zgD9ISTaQ4NzhOT2c7T/zsL+OoqlfmgptPZ3JhTsRCHHz9Jc4ePSBLWCsWO7GZkDOHBALCgyIqr4raEUIWYkyLAE5tTgQRG9nw2LM0da6+Kp34qv4t+nIqiWdqgmwqLu8h63HkdwXqTwAAIABJREFUqzSKTZFwXUigL0mRxPcabM4KpYKkTHW+8kYlgHALyp3HKSWAMA9h3ejU+QAE0Y7YAQhz2fDoGOPjU4QjYcpsZXIyiEnu+iiJeEKm9BUie8V0D6FwlIsXLxMKBeXgUSyEyvRQbi9j27bN+YhlxdQupg5hZhfIXFglBHNaKBQh4PcTT4gI5CvkSsL0rgKPQt9pYVS93EHmg6ZUIFEYKCcmEoPRIF0lYrcuJhC9wSDNs2qbCv+6qOCml4BA5WsQvwvriCSC0ukwmfTSjGsSBC8I6ljhj0wRiycI+INSZpVuN40NNZRXlKOXk23e6iAnMoXKdtaNcZ08eyHnew0gzNXn1N28+p34t2pdUHfx4j3UhVtdnAtdBIV6vdb/r1oPCsGFClIkSM1bblQ3jvi3ytuhWggKz1eB41x++CINv1tuZr4AQVrBBEiXWFVZwOX+WKPu1vP9TFrC8gu0dA0q33+CKlyBvIrbIJ0i6JmSKZ9iPlBiDZS5obDEceECKMb6FTdg3pInxn/ef6hYC4UvX3R3kT6ZwWS0UN3chtli+UTtgusJTowxGVQ6cpmg3yefTby3AmSUQ/xblJMW7yg2LNKdIdOoNXKsm0xmHG5R6VEhZpqzL0t3o4iDyG9i8jVhlPavvHnewJhPARcgXwm0Viw6V44SQLjloXBLJ5YAwi2J6eYnzRcgXNvi1ea9K99eb1JVd3OFOxq1DTU96Np73AsT9I0kOV8ZFC5CxXi3xQIQbt4b5z5jLvkWQ263+zwLcd18AcJCPGMx7nntpqIYbS6GNkoAobhaKgGEIsnzTgFCkR6j1MwdSOB+Bwh3IJr75tJ/LQDhvlHYPF+kBBDmKbCbnF4CCEWS570GEK41GxfpNe/rZkoA4b5Wr3y5EkC4v3VcAgjF1W8JIBRJnvcaQCjSa/2raqYEEO5/dZcAwv2t4xJAKK5+SwChSPIsAYQiCXIBmykBhAUU/l26dQkg3CVBL9BtSgChuIIvAYQiybMEEIokyAVspgQQFlD4d+nWJYBwlwS9QLcpAYTiCr4EEIokzxJAKJIgF7CZEkBYQOHfpVuXAMJdEvQC3aYEEIor+BJAKJI8SwChSIJcwGZKAGEBhX+Xbl0CCHdJ0At0mxJAKK7gSwChSPIsAYQiCXIBmykBhAUU/l26dQkg3CVBL9BtSgChuIIvAYQiyXNxAATJ1E42l0KLgVgsKtnfrKIugUZHMhmXNM+ikpu7wikL04hDIV0RlM7iaoUxTqmgkC8Slad3Fecq3yvnLbZjMQIEhTtT0PEqzH06SUcrCumofP5qBS3xU9S+UDj/pYbyHPey6JZGVMlQrpWay+tcMHKrOpX6VT6QRzQcAKMVq1GpWLgYjsUIEARroEq3fEUXip6kOvMshVK3UkmF7IKCQl2pGjs7KjX5ipGy/pPKV5iv5JZXohzls7pePGO5BBCKOwpLAKFI8lwMAEEuJtk03/rm32Kv7aC5qZGWlgaqXC5JWToyPIjH7+d83wjPfOlxNFlBup7ndhd0rtm0Aho0GnRq5USlJGS+LK3gkNfnF5jZmaZIEv70m1msAEGsC/HRM/z58/v5+m/+L4SH+/nmD/fzu7/8s3mueoUCWJn0FZ3KIlmCLjgHI4MX+fDjoySSaT779NNU2835hUYp4CGLd6kgMA8YRIunP34Pc8c6llaVf/rKKdIdFiNAyOYy/OjF57C3ruOBtUs5deRjRv0ZHnloG0ZBI67V56mdC0Ch0LPQugb6Th5h/9FTuOpb2bV9EzabWY5R3/QECUzY9SkmAznaW2vlcM/KjYAA/xk0sr9cv8BTkdRStGZKAKFoolSwZu56/LbFvc9939piAQjiOf+vP/9zfvHXf0tWkxNH3+njDIz76V6xEos+y6lTA3xudzfvH52gzmXl/PlzdK7dQjLooWtpC4FAhNMnT5DI5Fi7bgN9p47gi6b5ys/9HGW62XIxs0WkCism3ssdYXECBLEOZEmPHePX/tsP+MVf+RWm+o6y9/BZfufX/w0vv/I2bR3daDJ+RiemMVrdtLXVc+TgcT7/xaepMOb4eP8B6pYsZ2lrHZGAj5deeo269i6sxDl25jzrtm6lwmojFfLgXtLJvtdfQ2Mtpywbo3HzbnpqnfeyWq96tkUJEDJpnn/+X+gfjvKbv/rzvPzP/wB1PXTXV3DgxFF6lq1Am4xyqu8C6x98HO1MPxcmQuza9SC1bgt//Vff5me/9lXsZiPeySG+//K7uCorIRPi8lSCDneIw/1GnnhsPb1nenE1LeWh1bW88MqHuGrreWzXA9htedB4j2u6BBCKq6ASQCiSPBcLQBBbiv/09d9i6yNPYNBpcVeUyZ3j5GAflyNmNq9q4cSpIXatsXM2UM/qFisDfWf4yYUA21ushPQO8I8ykbLR6ABPzExnSzUzo+fo3PnTdNcYGBkZwR+Os7RrKabZ4i73vtNhMQIExVicJTdwkD99Z5IOcxBbXQsnD+3nwY1tnLyUpLK6iumRc+z54i9wbt8PCWpdlDusbN26GV0qytEjR2lbvo7GqnKCM1McPHqEUW8MfTxE47IubDYbsVCMtGdIAoLp3uNcmpghG/Cx/gs/zYpah+qRkKNJVApV3VFFGl5Fa2YxAoRcLsP3X3oNa9pLrnIZl099TM/GtXz41j627drBxf5+GpuaWdLg5nt7+1ldlcTdtpYVna1YdRH++h9f5xe/9mVMej0/+PY/sfHJz+O9dJaTZ4foWbuRpvIAHxwOU12Rpr5tGR+9+gIbH99J3+kgOm2MTRvXU1dbNVtyWnFJqZbDoqmmKA2VAEJRxDjbSAkgFEmeiwEgyFfNwt//3T/ws1/7eS6ePUss5OGDw+doqbETxMGa7mbOnxtjy8oyRhINpDz9jI5NMJG08uz2DvaeHGDFkgZO9I3RVOfGbndRZjYSmDyHvfNRehrMsky1KMc8M3EJLC7CviCuSjdulwOdRl8kiRe/mcUIEFQpJEeO8d3jYVxZD5WtnZw+cpgtq1s5ct5DT3cX45fPsePhz3Lh8LtETDVcOHGER55+lhaXhVOnTjDpiWC12XCZ0/zk4zO4q2tpr6/k3NkTVLWtJRedYWZykq27H+SH33+DuqZ6TIkkK/c8ToerDL/Xy7QnQLnTQjCpY0lTzZVy3MVX1W23uDgBQoo33nyPzeu6ee6579G5YhPOCiPnTp/FWVlPvXDxaHQ0N7l54bVjbFvh4uzAJNt27KS5roI3XnkFg7MKd2UlvuF+MmWV6NNxWekxo7GyZnklb7x9hpbGctI5LTPjU2zduYqhkQzphJflPd243OWMDV5CY7IRCAVZ2rFElk6/16yDJYBw20NjzgtLAKFI8lw0AIEcY+PjVLorOLj/ABanC3e5E4Oo4W62UWYxEY0lcFh1xHMGcoko4UgEjd5GjbsMfzBEudPBxMQkWq0eu8OBXq8lk4goZmcRsCZ92xoCvgkw2EhE49jKbJRZzWhkEN29eSxOgKAEKabjYWaiYDWAVmcgHAridNiZmp7GYrWjIUV5RaUEhOFEjlQiSW19LUadjng8xsyMj0QqQZXbhdfnw2SyocmlSaYzsoR2OBQilUxRVVvN1MQUeqMRs16HrdyF2aAjFg0TDscwm43Eszqqy+335C5zMQIEgeq9Xj8Opx3P9BS2snKEVSGVSuAPRXDY7ZiMBsxGA9PeMDoSZDDgdldgNBiIhINMT3sxmCw47SZmPEFEWW5HmRl/MEplZTmTk9NYrTai4SAGixN3uYFoTJSRTmGzWdDrjfg9U6A3kojHqKqqRi/LyN9bAYwlgFDcubUEEIokz8UDEEQNeYhHQ5w9e57mJZ1UOuxktVq0soa9iJjWktPl0KpB0fn69hmUmvAyyC2r/UTskqxnL4PYtPkIeXG+7krQooyeLgGEInW52WbUAESpLhGVljcVSTOw8mHeJiyAm07+roYeKucqEesyaFEEJOaEnrTkpN6zcg0QOhVHPmZVtiH6igxiE2YpcbN8VkQuJwLc8tkQ+UyYYr/z7ba3GAGCkjWkhIoKlWZzV2SrfJcPQpWJCEIrOrRSl8p1inpl6oqSkSKDEJUAVaUvCNUJPWbkPUS+g9S9ouH8fxmyUq/iE/G9+PzeG8slgHC7I2Pu60oAoUjyvNcBgqzuKCcHJahNTvh3CP7VipHqzzsVZWG8rOY6C0vhveT5Ms1LpG6KpMt80p9cD4UffH4vuFAWhNuRoyqr+b7j7eroZrpR0vDmL/P5PM/tyOna9hclQBBjd46+PF95zGeczufc+ejwRucW454lgFAsbSjtlABCkeR5NwDC7Q6ga69TNojF4SpYqIVKnTCvLFyz22Ull/82UrMWBCBIjDP3AnC9rnm7/eBOu3qx71vs9m7l/RYjQLjTRfVm4G6u9hdCN1eiIG9Fk3OfUwIIty+7ua4sAYQiyfNuAASPx4PT6USvv/VAP3VyiEQiMhpdLKzpdBSfP0ZVpfuO3l4EIyaTSaxW6x21U3hxOByW/tG53lHsUqPRqCSNsdvtaig1uWwWMTHo9AaMIgZCWEjyAEEsCEajEZ30l974uFOAIK4Xf0KhkLynxWKZ84aTE5NYZEyG0AfyfcR7lZWV3bLVQ8hdEOBc7x43e9f5fi/eq7APFV4vvhPyNxgMt9w3g8GgfF9B4HOrRyKRkPIV/eN2j8UMEAKBgBz/hYfoB2Icin5wPWuS6CdiXIlzRL+8lSOVSs2O7btlpRIxFfFYCrvdlrduzs8CKN6rBBBuRbu3fk4JINy6rG545vUBgtgi5jix7wMsbWtJeS7S2Lkcu8lALpMTwcfyyGU16ITfUKMhk48F0OdypDCg12QJzwxx4JyX7VtWYjYIYhQRS6BlergfnPVUOcUEIUxCOulJhLRcQLU5DalMhh+/+x57du+WA6/3o9eI121kXXuV4nvMk+NpycgYgbR4nnQWnU5ZaKXHUlK2SQ8o2WwKncZAMOTn2JkL7Ny6ada3eSUFSpCsKH5KweqHJoMGfd6PKvypeb9oRtxHvHMGbU7Le++8w/IN23A7LfKe2rwjXfxIREPsPXCKiYkJfuYrX5QeVvF9NpvGOzEGVheVDhtZwQqYTjM5OcG5wSlWLevA5XKj0WTy7yDkohLFXZmEbgcgCC+tEM2l8+cYHp/AXbeUS33H2bB+NbX1dfKdtcIPLH34OWYun2b/YIo2tx5XZS2RSBB3dR0zkxN0LWkjO8tep/qZxWVa0ukkUxMTVFQ3YDaJTNOTnBq3s3N9u3KNVryTkKoSB6KVf+UJEfMK7jt9npalLVjEIqG4pPPxIWkGhyaor6uVIEv2Q9m/dCD6gOiPmQzvfXSInds3o9MJ5kQlXkGLllQiRu+Zk9R0rKXaaVDYGvPfy/4j3A9abT5MIUsyG+e1lz7k6WceU54hJ6SYp9uSwC5/vUbExQj9pug9e55Ke5qhgJMNK5vRicBMtPKn8JeTzUoZCB+a+HE9/9l8AYIEfYooJVuljL3Q5NBmc2Slnz4fl0OWWDyILxCn0l2NXq8Tg0i+l8JuCbFoCI8nQENTg9KmCA8Q76i+cSaLTPLJW5VEkI9WmvtE3EiOc2fO0t7TjUG6CuXFpKb7+OAyPLJhKVox9rUaLvb20rq0E4NeuHwgFPBz5OgZtm7bogDofJ8lk+LQocMEo3HWrNtCldNMTsoQAuEIfr+f5mbRh0VHUpk2YbSvF6pbuHToPaqXbaGruVI+ZzIdZ3xsivqmFgziEnJkpCozaHU6eY5g6xRijHsmeeGNt9i260km+o7gqqwimEzhcDXR3VYl5Xph4CKtLR0YtLo8eZMMwJBtqce1ydMlgFCkBS3fTAkgFEme1wcISnBRKuHhf/zTq9jKK6iw5AhrKrBo46xavZq9b7+Jo66VRx7aQf/xvew/OcrSniWMjQyjScaxuhz4pmaI6F20W1KkDTaZbkTSS2zCQ6ppGc/uWsMPX32bTDpKzZJVeAf6qKqrYsIbwuGs4dKFQyzv3sTadSt485/+kkT7gxiCQ5ic9XgvHGPVg5+lvdbBoSNHmJgRu3ENqzqbODc0QcwTYvm6Tt7/4AirVveQzmqIe4ZJm00EfdBaqcOvsaNN6VnaaMHetJT+3pNs3ryBV154EYNeR2W1myl/FJ3Rzmd3b+HCmbPsP95Hd7WWs2ELLRVGUjkdJz8+zFd/7dcIT41y4eRRtPUdJGe8mPQJdKYygtEkUyNjtLXUkNTqMJjL2f3AJi4efZ8To2lCkwMs3/lZVjaV8dqrL+FL26hxGokmdVRZs8S1FrZs2URVhTPPDnhlB3t7AEFQz6U4efw4vnCGNetX8ML/fJ6u5jpGgxmGB06xbNkqalu7WdHVyKn3fsD+6Qqq45dJO11MjQyyZutjjPf3YbPo8CWRxEODU37KKlzsemAzb7z8Enp7Jd6JYcxVbaxvt9B3aYxQzo0xMkplx2p2bOwhnYxx7PBBQkkdnskR7GUVpLVaUoFxcmWNXDr6Eat37SHuHaeq3MnhS4NsaG/FE40wMDjGE098nnqXhbde+yGu5g6GL/TRs349J44dw+l244+n2b6klrP9l4nkrGii41Q0b2aX4Fs4tI+LQQO68AhtG3Zz6NV/oWPVOoLhIOWGLF5tNXs2drD30BGq6lo5fuAULY0WEnonRL3ExS7YXovVJGLlkswEQliddXxu9xZSUR/f+Mt/ZM/OLt46OMTOdR0c75vmsW3L2HfsIlVVZejQ4Y+keebzu9Fo9Rj1eUbPa8b3fAGCpK0WMCod59ixUwz0nYCGtYQvHqK5fQnDA8Nsf+QRzhw7htc7jc7u5vHHHiPnH+aNfSdorXeRNlbR6PRx9EJSLozVDVVMTProaSznxEiErgYrQ14NlbYkOp2ecNpIvdvM+d4+WlduZnp4gM985lHefvMtNq3uZH9vP3aNhqRJT50uxb7RKJ3VDtK5LLFwjtGxiyzrWU48mmX37u34pod54aWf0N3Vgcfjo2tJOYPTJvY8spb9Hx7AVddGhTHFex/sp3lJN+d6j7F23UaGBi5j0mdIm9yUa4ME0VPlqiaZzLJz4zL+5ftv0dFWh9HkYGmVhh8d8RCfPkn3ukcozwbx2yo48u5PqHA7SWuMbG138u6lMD0t1ZSZ9DhMcGI4R2jyLAaTlVXL25nwa7jcu5/GjmWc6r3E00/u5uCBw9RV2Rn1xtm2fQddzQ3XjZ8qAYQiLWglgFBcQd7QgiBNBPDGi9+mbOlWTHEfU74w8YiHptYuzh4/w46HH6K9uYHew+9yYSqDzZDiwqCPphoHrpoKHGYL3oyOk/s/YmnXEjQaEw11tRhjE4zrm9jWU8Ubb31Mc52J80MBJofHaKi3Y21aw7Kmcn704vdYt203a1cu4+Q7L5NuXUFkclpaAsYGL/DFf/Mz+MeH2XfwGCZHJQ5NDF88iU5rIOgPsGx5E1MzBqrLEsxEs/imvaxe3c7+w6cpN6YI6JqoyXkxVDWwc9sGPtq7l+bWZt5/76C0Bojdk8bmpLK6ji2rOjhw8CgHjvWydWkLuiXd+PqO46zv4vKZQ3zm2Z8hNn2Zj4+fI+qZorl7PUPnjuCqqiOlszF0eh9da7dSZtUQSVl45MENXDj0PhfDZTQagsxYm3lwVSMnjh3hsifDAxuX88bLr2EwZKlv72bNmtVUOKx5a8YdWhBySuR3yO/h9Knj+NOVTA2fpqPaga5qKRfPHGL3nofpPTlAS0cjuuAI52O1JIaPUNneRWhmnKbO5Rzbe4BlK5YxNTpGKjlDc+daPDPTbN2xhf3vvkUg66DBqSOR0TPtnWHb6ibeOjqJNjTOstXraGxuwanPcar3LNVNLo4cvszaVS0cOdJPz/J6+s9PocmEaFy6mkRgDG8wRu/JU2x/cCehqJ9IDB7Yupkyi4GjBw8gzBT9x47iaunAaLJh0aUYDSZxaROEEgki6XK2r3Nzoi/N53ev5vjH7zKWqqTTnWIwVYNu8hxVDW5OXPSza4WTA4M6ntzRxccHDmGtbuDckVPo9VEa2roYvHCRqpoKquobGb08hl2fYDJjorGqltUrllBeZuV7P3idLSvrOXE5Sk1ZhsGIgw0uH2/1RakxxcnoLDgra+hsqsZgtlJbXY1uDvfF/AGCYttIJ8KcOH2WTHCaC7l6LP6L1FdXcO7SBGtWdHDo7BiahIelPRtYtaKHqbP7mMjasOaSDEwnqTNNEbKtRuu9QDiZA72GJeUWwhWNzFw6L9MLcdVj8A7hqG8nEvASnxjA3v0gNTYdGzas5Dv/8gO6W6o4MTyOLpdl06b1uLQR/vr7B9m+splgLIWtwo0mFqSytpah4SkeeXg72mySN956n5a2JcT9M6Q1EezNG1nfVsn4xAiHPt6Po6aDsG8GZ7mTiyPjPLtnJy/96H3Wre5mYOgy8XCI5s4uJgb6aeleS2qyn+GoEbM2SSxhYKkrxemwk5rcBDp7NSnPMOb21Uz0X6S9vZ7R4XHqy3KEq5aRmehH56xnQ3cTz/3zc9S0LMHr9bFzbTOHh8Cq9VJbXcfp3ot8busSvv36cbZ1N+I3lrOiuYbKuiYsepWQ6+p5vAQQiruulSwIRZLnjQGCEkAndouaMjdhzyQ6SzmaZIBIWocuk6WmoYYyWxlnD7/HYNDC2pWthH1+jBYbNqsBvVbwEuiJ+abQmW2Y9DrJTyCKKnnDKRqrrbz99j4amuqpbahjZmwaV5WDaCSOweYgEw1itliprK4hMD6MtqIa3/goFns5qXiI5rYOsvEY41NTaA1mKix6JoMxykw6gpEENZVl+CMwNXwBo8NNhUlPNAfpVBqTNkdGZ2bizEGcy7ezuq2OyYkxQrEk6WQGwadiMuuIJHM4y4UbwMT4+BSeQJhahx2tq4J00E80niYcDtHV1Y02E2PCHyUemMZd18T02Bhmm03m+CfjcUwGSIlUS52e1qY6Ap4pQmk9dl2GqMZMnbtMEvv4ohlaGqoZGxlDhG5oTTaqK90YDZ+M47htCwI5/B4vPn8Ak8NFLODFYdKDtZxwIEBtrZtwOEFVdQUx/zTepAViHnJ6IzpSpDQmUtE4FRV2YtEoIf80F4cmMVmsPLBzMxMjYySzBsrM4JkYZiRi4uF1rYx64mRTUUw6CGGnq7GCqekZEhlIhcPkDAbsVjsms5ZQII7RIO5lwazLEonG8fsjVFU6SYnemUpR7q7GYTMxMzVDmgwhjwdjhZveQwfQllXQ1t6GKZsiJ9gxtWZqKq14vEma6yvxeqcIRtNkkgkq6xuJemcwWc30nesj5B0m5+qRZnCRb6+12IiGIhg0aQxWO5lYlKRGS2W5nUg0Kl0gk14fVqtdWmeam5q4fKkfi62MdFaLUZchnDZQ59QzMOal3G6R3B22Mgc11a4bFgqbL0BQC4/lshn6+s7Rd/wo5s5N9FSbsJotzPjC1LqtXJ6KYNbnMFttVLor0aRjDI6M4yyvIBGNEo2FsLsbIR4inc2S0xmoEKEU1gpCfj+GTJyEqRxDKkhWZyIVi5BOxLC5GzHrocyq53uv/JhHt63Hn8pg0SouFofFgC+SxahJyX9byxyQCJLK6UmkMjQ31aHTaKTcBXdCJJGh2mkiZ3LispkYnxgnHBZF2uL09Q+zcfM6ErE4TfU1DI9OUumqIBAKMDl0iXF/RF7/6IPbCPgDtLS2EAwE8Hi85NJJtDY3FuKSgj0WDlLZ0EwsHMFeZiEaiWHRZcjYKvAMXcLkrKK5sZbLF87icNURjcWoLDczHc6h1ySwmWz4vB6crkqmpyZwOR1kDCY8I0N0rlqDKe8KuTYTqwQQirSglSwIxRXknQUpKoQD4u+wb5qMwUF5mTHvJL+1QJ1sJsm0J4jbJYIYP53qepl0ChEoabM7sFpNV+VBZ7NJBs5fpq6jBau4/zxTDIurjdtr7XYAwu3d6XpXKb53r8eD1x/A4XJT6SyTJnPJXJDL4pmeRm8po9xmkp9L5opUkrQwq4twkmuIqO40yySZiHL58gh2VyVVrnK0cmK+tSwREYowOT4k/dk1Da04JVHWrfVnOR5yORmAJwJW53PdjXQyX4CgtiWexeuZZsbnp66pFYdAqPN4lzvpJ0LHwsIw5Q3S1tx0J0198loZF6CRFr5YMoe7wvHJ+I1clqmJYULxDA6nC5fTjq6AQn1+D5QjlUrKAlBSr/PMtRaBqiaT8EPNfZQAwvy0cbOzSxaEm0noFr+/E4Awu0vJBwnOVs4T5DX5Kno3nyCvUKbcCsHB7acxKdwDahngOWacPNS59ej0m4lYfdbbf+ab3UH5fiEAgshgmDuSP0dOlHCWkadZGY4nCYnk3yp5jUqGk6fKuWbhFm2LYz6ZAp+QtQzSE+RJKtlOniRnlkRLCWAV/fOT+lF7tkrykw92lfw8V/9+XciUL2F88/5/azq+HYBQ+H4Kq5CiE5U86mZ3vur6/LsXAo/Cd5sL0M3OAZK06ubZODd7nqu+lwHR+ZRnyYKlln++cpZCqJSCnBLgqNZhUN5LGefzGZvKuSLuMTdbqvpWnvlW7lECCLciyVs/pwQQbl1WNzzzTgCCEu+rsJwVDEt8M5MEYlmaG2olGVDhodaCF5dEIlFsNqtcuBOxKKFIHL3RgNVswih2OgXtjo+OUFVTe0062pXa78pSo95L+S0eDTPli9PcUJmPOpdx0DJyXJgxBb3u7CEnHKXsrCgP7QtEqRC7knwSRL54tMzCiEQTWK3m2ZQmea9YhGAwQpnDTjQSwWp3SCrfUDCA0VKG2SQsK3JKKtjA3fqu9EZKXAiAIJ7n8sAlahuaMRp0s++UTCZkPQuxOJt0JrR65R0FhbVksiRHOBgkmdbgconUN1WHYuHNQiLMZU+c1vqqT7xynvRQ9rqhy8O0tjZdYenLZPH5vJhtDqxmo2KhyGRkSqXBZJSZKf7JEWJYKHdaZeqccDOJeAl3TS25ZJxqPj3uAAAgAElEQVSs3iRpmPO0VbP9SbxByB9AZxLmebPsH9MeH05nOSajnlg8gcUiShEXR59z6fpOAILSnrKcKlaUgviV/HdX2Dg0so/7QyEZeW8rs6PXaUinUnj9QdxuF5lEDF8oRm1NZX6MZvF5PMTTUF3llmNI0VV+QZ1NPVHvUni3vE9+NntE9AOFKVH5RTlUfFM4XqcmRnG46zAbFfBRyCii9DkxnkVmSz7fQkGLs9NKNOAnlNJQW6mkYKoJT+pdJUGbkq6SfxQVkCggS51vrpbm7fWBEkAo0oKm9pdSuefiCPTOAMK1z5Ajm83w5g+ex9y4nBq7HlOZnZB3hsr6JiI+wYVvIp5MY7YYOXHkDI/ueZQyi5H+Ewc4OZGg1mFBq4Om+mqmvQEqKysIx7KcPrSXzuU9uKrbsJtFAl6OmZkZRMpTVmvEoNdTW1fH8KVBdLoMdnctloyXNw/72LTMRVpETycSpJNJDGYzI+OTtDc3EglHaGpr4+LZM5RX1VHXUEN8pp8jAzlWLXWTTGnwzYxgtNhxlIn6Dzpee+sgD+7YwMj4OG53FfW1NcxMDvP+h4dZuaqHc73nWbl5Gy1VdoYv9TEZ0WAhS1NnFxXCxZEng1QmbGVXeifHQgGEF/75H2havhVXmV4WSQpMT+ALTjLjzWK0mKmvtJPAIH3RQu5JTKxc1kb/+V5On77Mpgc2E/FMkNFoMRotMlK9syrHy+eybG+3kU5rsLlryYU9VDU3452YlMWVTK4ajn+0lx07NhJOajBq44TDaaZnxtCV1dNSbSUUSZGIR4nF46xZvx6LQc+Zfe8wpa2XUfcWo5npUITQ6BDuZavQTPYRqljFliUVhCIRxic81Fc6CKRzMtAtHgpT1dBAwOvBQJq+y1NUuxw0tDZz6ngvDz+8E4tJuCJmkzDvRKWfuPZ2AMKtPIAYR6l4lNGxEQx6I0mNlXJjnIGpMKMX+1m6aiPmXIhUPMn5gTFqaypwV9joHZxmWUstOrOT5gYXhz58D0/aRluDG53Whi4VwFZVj9um4eSFUdKxKE6XG4fNQiTgx1LdgHf4HDaHm3TORIMjR9hQgU2bZnxikqzGQpkxQ1RkgaYzEnSWl5fhDwTR600kM2n8Y4PUdiwn6PdQVVnBxNiMBKt2VzmxRIa2pnqMBi2+aQ9TwQh6jY72Rgfnh0No0mEZF3VmRseqjiqWdXUQCQQYHZ2grqWe8dFpGuobSEYD6E1GBkdmqC43EYlnEVwLteVWPAkt7c11cu5RrKfqOJ7/eC4BhFvprbd+TsmCcOuyuuGZxQUIAoVnefPF7+Fs7CAeCWOwmDl76gJPPrqNl97eS0d7Hf5AhJrmNi6eOc9XvvIUJoORsH+aM/2XGOgfp6Wtnkg4xPkTH9O1+TPEInF8U0M89OAKjvWm2LG6movDI3hjRqLeSTqXttDXd5ZNOx/hxy++SmNTFcs37cSanuL1DwfRpWbQ6rWyQmNnjZ6+4QTpVIDW1lYcuTjDORfR0fPUNjTS0trM9Jm9JFt3oPOexxc1MXj+JNsf3sX4yCjbtnTz3e/tY12bDZ/ehVkHXT0rsBjhjdd+yNaHdhMau8QFH+xat4ze4wc5Mxmn1ZQg1bySnV2tyl5OMELKLY/Is5//hFKo1IUACELPP/jut6ht3Yhn5Cztq7Zy7tC71CxtZmpMFFiy4/PNsHbNag7v30d9awvDoz5++oufZaD/LKePncFeV8Xho+fpbi7HUF5NyDvBktZmPh6IYPJfoql1CbGsAU0iyGOffZRjB09i0Wc5NuBDE52mvaGCAV8WQzbFA9vXc+Tgh0T0NVgSM2AvIxPXU+mysXXHNlki/MxH73I5ZiU4NcTmrWt59yf7aat1E7I4sHguYOx5hq0tcOrYCT4+OkBVfTkOYw5PUoclk6OxyoLfWkNZcJjLEQOtriQBfQeB4Qt88Yufk9YtUSRIr72+r/l2h+2nBRCEHsMBLx8fOIDLYeVyzE67bYZLoTKCw31se+gznDjwIblMFuwVdNXYJHjweII4LDmc9R08sn0dpw7t5dRYnLXL2jh16iwVmgSr9zxBRXSc5w+PoRk/z5J16/GNDpON+ghVrcTgO0t1batMnawtM9CxaTvRqXFCsSiXB0YwaFN0r17FxKiHmrpahgf6mJqawljmlpZJTXACa10LNrOw9EXouxhmZW2S0ZxT0GCwc/smbBYzF88d49xwgFwiwWNbm3ju/TFa3SYaXQZOTBkx+C/z0BOfZaTvNPve/5h1j++Wc9PGjZsgOM6R/lEmxmeoc9tp7OwmPHoBk9ECVe1s7mmR/AYC7MsSUHIsz388lwDC7Y6Mua8rAYQiybO4AEExY+7/yY9xN7dz7NABqpvamBn38eTj6/jB99+ipb2FQCACFjtZ7xg1S7ppaajDPzHIhREPsUQEl6uckUvDJHwjNKx5VHIkxAMhnnpqHW++M8rnHl3Jqy++ytoduzn14RukLC6cFr2s8DY44mfbmla6129FEx7hxwcHmRk+Q7nLhT8osrTi9GzZztTFk+gNdvw+D+u2PMhL//PbrN3+IBs3rMV75j0GzV2E+j8mlHPhu3yCpmXLqaldytZ1bbz0wss0d3bSe/ocS5ctZ+3qHlmz/p03X6Vj+Wp6jx3C0biKrT2N9J0+wqWAjlUVOU6nrOgCHumOXbd6JZVuQYJ0577ZBQEIpPjh88/jy9pocJvxRlOMXrrEI48+xOXBUWmu10RmiOvtMqOksaWJC/3DPP3EbkZHhxm9cIm0vYKzh4/T3NFAdW01Ad8kZWYXfb4kRu9F2lZswj94gkzDWnavbeODd95jcHgMV2s3yYlBLJYc0ykrDZYkkZwFi1nDZDBBuT5LKmOgoaWemN+DpqyKHRtW0n9sP0NRG4GRc1jKnZw6N8hjm1YSMlmpz3j40FvJLzy+mv1796HXZ/nJkQmeerCNE33TOG06mppqOXDoJCZjGktNJ6ub9PRO2dFMnqaycSnxRJRYJseeR3ZIIqZiHp8WQBABpGGfl6OHPibrcNF79AQ1bhvmmk5M0Rk0ZeWSG8RV4Sae0pBLhVm5ZRMXz/djymWoW7qS9d3tDPafoG8kSCoWJqWvoDIXYP2exzBPD/P25STa0bM0rlzF6f37sBgTBJ1raDJ4KKuuIz41RV8gyc8/uZvRoYucPHGOrNlFrSnGTEaLJpEjJ9KWp/rRWpwYLZVEokEcphgNLe2cPTNI1/I2xqZgbXWcY+MJUukc5WUWdj28hf7TJzk3GiATmMZsTDFJIxXpaSpdZeSqVqAd62XZti2cPnqYs8eP07nrUQJDl1nWs54ltSb+6u9eZtv6ejxhAzptkhlvig1LKvBaqtH5pkjrTeQsbratabtS5G2eyi8BhHkK7CanlwBCkeRZXIBQpIe6STOxqJdjJy+yfNUKnNa5aYGvbSIRD3Dy9BArVnRhKYg9EJAmEQ5y+EQv27dvVurIJfzsPTLAg9vWSIvIaz96gyc/98TdebnbuMtCAITbeMxbvkQJDcyRSsb54P0P2fLAI9hMcOpUL5VVbulKytdovGmbiWSUUDCBy2WXQY+CQ9E7Pcn05ARD3hi7H9h8QwZDeYN8fEoyEuD85SECgSir16zGLuJQbmO3eNOHnuOETwsg3M6zFPMakcJ46ugB9FXtdDdVFQEwK8GL2WycibEg9Q018nHv1EpXzHeeq60SQCiuhEsAoUjyXIwAIZGIkcrksFpMaG9xBy4Cy2KJlAwW1Iogh4JD5IpH4yLwUAUbV8KUxFIVCQWx20Ua1b153G8AQfHmKmll0XgSR5lNCj6RTEi6ZL1efCv26Ldgys0v7hpBY50v8yvcVyJ4tLy6DrOkv71J0ak8bXE2nWRicoYyZzmOMuunGpR4bU+7XwGCKNUc8AcpczrQycyCW9DpDYehQretZJuIYMm5MxzutZFcAgjF1UgJIBRJnosRIMiUqtlg5FudUJTUOeW42vyrLkizsCAfcZ9POrjndyD3H0DIl/ieraOhAAZxyG/kgn2LOQP5+iAyIl1ce1W8h+ISU6LdbzSg1Ch2dSeq8D5c24+KNCTnbOZ+BQgyYySvT1mT4zaqmV4tMHUU50f1LEgQZ93qXPFpanLutksAobgyLwGEIslTLC6i2p2oUFc6FqcEhA5FdTwRJDdX9ce5quktzje93af+dDILbvdpbue6Gy0goqKmqBQ5H96I23mG0jWfngQEkZIYu/OpePvpPc3ib7kEEIqkwxJAKJIgF7CZm1kQRIlih+PedZEsoOgWza3vVwvColHAp/ygJQtCcQVcAghFkqdYXEKhkCSOKR2LUwJCh4LaV1C5zmVBEOVvbTbFj186FqcEVKpeg+GTdOThcBjxecmCsDh1K55a6FdYgUoWhOLosAQQiiNHyXYmTNBWq1X+XjoWpwQEQBATzFwAQdShKLmQFqde1acWC4gA8XMBBAHwxef3eqT+4tbAp/v0wkUoxu9c+v1073x/tl4CCEXS62IMUizSq983zdzMxVCKQVj8qi65GBa/Dm/0BiUXQ3H1WwIIRZJnCSAUSZAL2EwJICyg8O/SrUsA4S4JeoFuUwIIxRV8CSAUSZ6LHSDIhLNsRqarKSV986lMMg3ySr1JIa7ZupH5X66UdhLf3mLaXJHkXsxm7m+AcEWH4j0zmSy6We77fP0rKcwr+lv8OQuf7B33O0AQWs6kM1f54K/o8VqN5vtEPt35k0WTijm67k5bJYBQXDmXAEKR5LnYAUIqHaf/fD96q5O25nqZU+33B2Sdg2Q8QSSeoKa2Bv/MFDmDmfpqN6Kc8NTEBDmtEbfDwKUxH1XuSqrd5YvSj3s/A4SsKNMrQV+WgHeS8wOTdPUsw2E1EY2EmJ6eQW924LBomfYEcFZUUFHuJBUNMzrlpbyiHJfTKasD3rtZ8DcfzPcrQBBrfI4snokxLo6Os2L5SsosJoK+Gaa8EVyVLpLxiKzHUtvUhFmvwef14vEHqatrIB72EoimqK6upkxU1LzDuiY318Snc0YJIBRXriWAUCR5LnaAEA1O88GBk3R2LqO1qZZ0OkX/hX7J7WBxuLESZiqSw2I0kUzEWLZ8magtzblLY4iakDX2HENRJyuX1GAXpacX4TJyPwMEAQwk/XU6ycW+Xi57s2zbtBKLyUAyEScUCXD6zCCb1vUw7fESTaZpa2lBl0sxMjxOPJtl6dIliHp7i/m4XwGCLEOdyfD+Tz5AV25n0+q1mAx6Lpw6ira8kbpKKwODQzjsTmrq6sgmwgyNjEs2zelQmlwiiMtRjt7mkOXl9dri1sC4W32mBBCKK+kSQCiSPBc7QIgnwnzw3l6qm5awqnuJrP8+OTnJ6eOnWLp6LfV2LW99eFzWqZ+ZmGTTA9swpJOcPj9IJBRgSbWVo0NRGhvq2bCmE+0dM7kVSTHzaOZ+BghidyndR9ksQ5d62X9mgqc+twuDXiFaDk1PcKx/nJ1b1jA2MkQglmJpRxvpeIQPPviIyqYO1i9fJs+VhulFusO8XwGC6LtZTZazR49y6tIoX3r68+h1Wi6dPcaFsQDNLW0kwzOMTnjYtHUHNl2CCxdHKLfoePfUJeocJhrrqohiZk1PF4YbU2LOY1Td3VNLAKG48i4BhCLJc7EDhHQmJcvA9g7M8MDWjdIKMDU1xrnTfVS3LKHSEOOiN4dDH+fyVIgt65djMpsZ7j/PxfEgm9YtR6fTM3LpHE0rNlFuXHw7zfsbICjFksTynop52bfvMLqKTh5Y18rU+Cj9Q6N0dncTnhljyhenp6dLEmmLEgt+zwyeYJyWjg5soty35OVfnDvM+xYg5IFbIhrlw/ffo7a1kxXLlhBPxoiGwwwNT7CkcylJzzgnRsNsWd1KwOtncOAyGmctLRV6TvZeYumyHlqbahYlwBdTeQkgFGlByzdTAghFkudiBwiJeISTp46D3snKFV2Y9DqCAb8sABNLxEnEEtS1thPxTJLRm3Dq0qQsFcQDM2S1Blw2M6MeLwadkfaO9kW5A/nXAhBmJoY4cfYynT2raKp2MDJ8mWmvn/LKGiLeUdCXU11VTjQcwWE3Mz7tw+l0UV9fI91JGlGsafHhPznS71eAIN4tm8swOniJ3v4hVq1dQ21lBTMT48z4QpitNkwGLV7vDK7adtJRLwaDEY/XS0NrBwn/FP5wgrr6epxlVhlrshiPEkAortZKAKFI8lzsAEH4qMXg0mh1GAwmNGTIigIt+eI+WVGIR6shm03LUrKaXJasVosmKyq+ifK/GuQ5MgtCmKAX3w7zvgYI+YpZYt7PZlOEY2lZZlktpCUq94lKS0KfWaFFuUAIMKD0APFTI76XRZvE90UaOHe5mfsXIMhyTTKDIRIL4xBVU0VQai5DJifGpFakKSnuIa1exiuIQ1yj02nIZrISFKgskos1FLUEEIo7oEoAoUjy/NdTi2Hu5Lf7ISXuZgBBUC2Xl5cXqceUmlkICYiCTNej0pYBuRbLfUC1fD+MxtvrHaViTbcnt+tdVQIIRZKnWFzE7kRQLZeOxSmBm1VzLBVrWpx6LXzqGwEEMX4FeCjVYli8ei4BhOLqrgQQiiRPsbiIBaQEEIok0AVqJpVKXXeH6fP5SrUYFkgvxbqtAAGi4NZctTZEsSaj0bhoMzSKJaPF3E6pWFNxtVcCCEWSpwoQStUciyTQBWpGAITrFWvyer0lgLBAeinWbYWPWoD4uar9qdUcF2sKZ7FktJjbUQFCqVhTcbRYAgjFkaOs4CjMl6VywEUS6AI0c7MYhFKxpgVQSpFvef8GKRZZUIu0uVKQYnEVVwIIRZJnCSAUSZAL2EwJICyg8O/SrUsA4S4JeoFuUwIIxRV8CSAUSZ4lgFAkQS5gMyWAsIDCv0u3LgGEuyToBbpNCSAUV/AlgFAkeS4UQBD3FQR5xaROl7nxc1RlzOZyIlX+rhyywNxdTra/FwHCp6lflQRBlbMoviUred6FIytoF+7SvQpf514ECJ/OuFL0qPBcKNTYoi/drSG1UPotAYTiDt4SQCiSPBcCIIiAnBdfeoUjR48WtciymLAMBj0PPvAAux5+CJPRyOXhEb79T/9EOBguksRu3EyFq4Knv/AUXZ1L7xpQuNcAQiqd5qOP9vH22z8mlUoXTe4yS16jYcXybp599otYLRYmJqd47rvPMzY6VrT73KghvUHHY7sfZceObXMGDH5aD3EvAQTR3/rOX+Cll17G6/UV+ZU1tLQ08eUvf4mqSjfBUJgfvf46x4+fJJsnSSryDa9qLpvLsmHDep5+6vMyK+huHSWAUFxJlwBCkeS5EADh4MFD/Ntf/F9JptJkM8q+v3hHhmWdS/mLv/hvdC5dyq//5m/z2uuvoxU0u5/yIXc7ZPjKT32Z3//672K1Wj7lOyrN32sAYXBwkN/53d/j+KnTZNPF1q/kvuRb/9/fs337Nv6f//fv+Ku/+VsS8dRdkbVWr2H1iuX8+Tf+hLa2trtyT3GTewkgiKDmP/nTP+O5518gl1N2+MU4JAtinjHzv/7xf+ErX3qWD/ft5z9+/Q+YnJgqxi1u2oZOp0Vv0PKPf/9NNm3adNPzi3VCCSAUS5JKOyWAUCR53n2AkOONN9/mN37zd0imU5IaX1baE6Z5MdlocpJpVRAeK/OOcEUImlUt6DTkUoq5UTE7quZHxSypLNA52ppb+NM/+SM2btzA01/8KU6cPJ2n4Be0rIKZV086k1YomCXNsrinllw2i06rI4PY9erkQiQvyGnJ5dKS6lVQNcvP8s8g75s/U2lHw+OfeZQ//eM/wm63F0lLN27mXgMIp8+c5nd/7w8523dBylTopZDqOJdT6HKF5KQe5a+KfjVZRd8q8BE/BQGQ+plsKwvf+LP/yhefeYo//pM/51vf/mcyQp9Kx5D02VI/2cwsN79WayCTFf1NIWGWdNwqq7bod+TQaXSkSaPP6chpskqfzLepnCzonKGnq4tv/MkfsWLFirui33sNIIRCIX7v9/+QH735tjJI81TWyvgVVS9yaHMZqQdVb7r8WFOULetzzo7v2bGbH9Oiptav/eqv8Bu/8b/xzrvv8Zu//buEwxGEhVCfH/M5rQatqASp1ZATdMta8b9W9rOMrLqhzCPiEGNcdAidVksql0UvqJulPnMKrbO4oZgatEpxcZPByH//i2/w+J7H7lr59xJAKO5QKgGEIslzwQFCToPRZMZo1JOMRUmmlUVcGdL5yURnQKeFZCyO2WYjEY/Liadw4bgZQFBmADFhabCYjSTiCenndFdW4vd60ej1mI1GotEQGo0BYSYXy4YAJnn4gclkRq/JEk0kpblTfCcMIGIyEhOUgh1KAKEQIGiFaPQ6zCYLyWSMZFLs9JXiywouUCCiXm8km47LehrxROITvbsQDF4fIChVGGRfSmZk6W+rzUI6nSMZi1DmqiESmEL4mSXoU59BwRXojEZsRgPRWIx0OiufTSxKElSIRUQsfrlsCSBcBRCUhdVqsZPJJBHuQzkM8kBa1ZveaEaTTsh6KOlclowYP/nAAvWnCvrnBAihiIxXEvU0dHqhMGQber0Wi9VKMBCivLKWqG+CZDYnNxuKNSK/uRDzhV6Hw2onHg8RTwoYIbYAAiRo0WgzebygKQGEIq0tC9lMCSAUSfoLDxC0rNu6GVMsjcaa4ejRM3LQGvUGuWsQBE72uhZ2rW3llVff5aEd23hv/wHp/xXBabF4DLPJTDKZlBPG9SwIytIBtpp2vvTYBr7z3RfQm+x85vFHeOH579Pa1UNdhZXTR4+zeudOBg4cISgmkGySaCSBvbqWNe3NeD0TjHuCkM0QTyQpdzdQW23m1MlzpOTCky1ZEAosCMKF1NzaSmdbO+lUkCPHTxGLp7BYzMQF4LOYZVXNBx7ayeDJQyzvXsGrb/9EWl8SyYQEcoIAShBBiT8SVMxlQRDWKK0Gc3kNX9iznZdefAlyFtZvXsPAwCCRcIT1Dz3EibdepqpjJYnxCcbDUYwmDcFAGL29gofXrmBwfJRwwE8kkSIeiVJWUU1tTSUTY4PMeMPC9lACCAUAQcAng0bPo5/dQ2ByhMGREUbHZyizm0knhQUHkokkWx5/BpPnLLG4nv6hETQ6LdFYlHQqhVarVNkU50mQMIcFIRQKS0BhtFjZvG0L45d6GRjy0dJaS3VNNadP97HlM5/j/FvPEbfWUmW3cnl4ArPNiM/vB72VDSu6CESipEMzTIUSZJJJ9GYr9fXtJCLDXByclM9RsiAUaXFZwGZKAKFIwl9ogCAA/JNPP0N5WRka/zADEbHTz7CkrYuXXnybzcvdnAsa2LG2ldjFi7Su3MKRcxdw15jRahz4Lw6xYVs3b7/9AafPnieRyXzSxXDqtGJyzqTZ/fTPYUhMo09GCWctPLRjNd97+yirGsqJJiK8+9Y7/Luvf53DL7yCvacTTcLD++9+TNcDT5A482POT0boWr6anbu2M3L8OGU1TRg0Ib7zgx+RSKTlnrTkYjjN17+edzGQZdnKHh7YuYvQpV60VdV88OFh9jz2AO+9e5xNyyr44Ye97H7qCYxjvbR3rmNf3wgWYxhnZSPDZwd4avdKXtt/lpP79uKPp+cECKKqnwCHKzdtoaGuGr2nj6Stm5YGC8PeNMbgGDUr1vPqt/6aTZ99mpkTp+jYtoWBwYtMXx5A37wO5/D7HBmJU1vfwCO7dzFwrJcVa1oY9+Q4efx9+gemyZApAYRQiN/PuxiUwGAD//63f4vpsyfJ2cx89+X3+KWvPklv3wS6qJ+Dx06w66u/TPnUGRxWJ0NxE8HJftpWLGPkop+N7Q76gjn2v/xdJmOZuQFCJCYrdtY01LNxx4MkR09irFxFLj5OfUcXA6d7Wf3gQ7z4N3+MuWElXfW1WMvLOTU8TJU2RJ/XQJMhxPFzQ5jMBnY9tgciERprDPR7K0lO7+ed/aelhbEEEIq0uCxgMyWAUCThLzRAECboh/bsYeLMKR77wmOcvTSJw5SiP2jkkVWtPPd330TXvopqvLSvfoQ1NTbePHgULEY8Ewm+9OUHmbg4ytFjBzl4rFcu0HPFIAiAYLA6+aWvfZmBixP09DSx7/2D9KxaycVQiuzFY2idFRz+aC9PfPVXOPPa61R0t6DXavn4o320dm+nPDHAyZEozzz+ENrGJQT2v89oEpxlGt75yYekMkpcxL92gHBGWBBUgJDLsqRrGXVuFx1tVSTNNfQf/Yi65SupsJTx8YvfYSRnY9Xq5ZSb9Dy0cgUHB8Y5338ch2sJ2zZ1MjEyTS46zf/4/uuyHPdcFoSsiBHRWXhsz8OYtSaWd9dyrn+csC+IrbWDkbd/QN0jT7L/hW/RtW0PvpO9rNuzmcOHe///9s4+OKrqDOO/3WSTzQf7kWSTkIAJCcHEBGmLHcQWS7WMTMcOSmtrpU6pbf+xlukwRCmd8WukVKgWh7FDmeqM2v4h09o67UyVEVAKaqd2ihKbGCFfQEiW3ZCQZNls9qPznrsbWuXLmePuQs6ZyR+b3Lz33Oc9955nz32e98i7K87kVvCZkhFePdjH9Yuup/Hz1+Hf9w6juaMMR5yc6Hufo/1BtbplNAhnCYK17bKD225fwXjwODPnzWfPSy9z66qvcqQ3RKinjQMH2/jSXasJt7/N0huW4Z8I8Zc/7+S6m1ZQbI9T6nHjyjnD5qefS2qRPq5BCIXGSNhzaWi6li9+tpniGblM4mDvrjdYvPwWPjiwh5pFS3l759MkSudS466gqt7NK6//i0Xz5/Fu+wkW1LrZ985Bqho+x63LFzN4eIDQ8BE6T3uZEevmn+8eNhoETfNKpsMYgqApA5kmCCJKm1Uzh4oSF4HAADg9VLnz6AvC129uZNuzOyn0+iiwhRkO5XFNnY+hUJSyYgf/6eihpbmB/sEAkfAop4bHz08QEgnyXV4qXQ6O+YeYXVtPcX4ublc+77X10NxYT9TnA5kAAAYkSURBVOCkn96+PsquasAVC2PzljA5NEjv8UESOfm0NM0lHA7hLHJSUOhh4HAXpycj+MrL6On5kImwpXMwBOEsQRDR2Ayvh9raGsaCfkbIp67MxelQlAVNNfzpr7tI5OTi8bgZHxmnsb6aIyfHaKgqoau7l+rqSo4PjjDDEaPnhB+7Lec8IsVJcvIK8ZW4GAoGqa6rR15Vl7oK6DnmZ3alj2jCTkfbQQpLqylxJIh7S3FEQhzt7mVsMkFLUxM2W5xofAKPx8fAkV4mEhMkHAXEImMETp4ibrMZgvA/KwiiALQ5bLRcu4DIyAjDkQTV5aUwOU6Bp4LAsW7au3qoqKsnPNBPma+SkckYc6rKCAwMEIvbiebm4MmN80FX/5Rm8KMixdDYGDGbjRLfTOLhYYo9pdjz8qn0uhgZHcWesOPxltL27zfB4aa81IutsIjiIgdH29sJhKLMra3DI+Nj2E9FeTWn/EHCY0MEI3YqvU66u48qgpBnRIqaZpfMhTEEQRP2mSAIr+56jTU/WUc0GrVUzqIoF0GROAyUwtiGr2oOeWcCHD81OiU2TjkbpoTlSleeEjRaoiSZkGprruLxXzzGwoULWfmNO3nv0PsklGjKchzIe2QRS8nvlHoduzq3kjsr4VTSqaDohtU3pY4XNVZSaR1PiAhOhG5nlfgpsZWonzdtfHRauxjWi4uhozOpYrdwTGrXVR6KvWW4HNB/MqA+i3AwVQxHdItKMRKPq7yIQVU+KxsccaVW37x5IytvX8HGTVt47oXfK31C6ggZMOr4pDo9aZNICiMtgaQlUBOhmowqmxI0iuDU8kBYrgtbTg6xmIwVa4yJXFW0b02N85RLZf50djH87EH+9souhYvlSrFwFKhiiRhOZyHlvjKC/gHOKGGqJTBUo8Am4k8roylhovp/m+VokZ81993LmjX3snv366xtXc/o6VHrEMlb0uWinBFT92xK9ypxrVjqT1PPB3nMJGXPQmrk3pbP4opRt744Lyz7lNRS2frkFpbfssy4GDTNM+kOYwiCJsTTTRBkqti//wCr7/lBcpLW46G2HlQJtR1uzexZ/OrJLbS0NLP6ez/k7wfeTGvRopW3fY2HH36Q4qIiTVm6cJhsszlKEZ11rQ/Q0fkhog3Q1VLOlWgkwo7f/Jply77C1qe2sX3HbxXZTEcT58zVV8/liS2bVTGsdLVsqoMwNj7OI48+xh9felm98kk5UnRgkbK9bvjpA3z/nu/yxr79tN6/nqD2gkzn7q09x048FuXZZ3Zw45IlUwRDx7VdKIaxOepF2BAETXimmyBIt8fHx/nlE1vZvWfP1LcBHZcjKwKO3Hy+fecd3H33KlVp79ChNh566BH8waCOU1wwhnwTmTmzkh/f9yO+cMNiZcNMR8s2giBWtxdf/APP/+4F5fTQ1azJw87SG5fQ2roWt9tFV1c3P9/0OB2dnbpOc8E4BU4n31l1F9/65h04nemrtJdNBEHcQ2+99Q+e2raN/hMDWnFXlTKvaWbDhvuZPWsWgUCQ7dt38NrevWkhgXIP33zTl2ldtzatO9wagqB1GJlCSbrgzARBUN/2lSNQahnoraFvrT5axXlSC4xWrf70TNaWbz69+zFkG0FIjU2r0JCukWrFSRXPUq8JkpWOZJlZ9zg6X69jci61Mq35wi4CUzYRhE8zv1aO5V2P1KGwqp9+GuPo/Pm1nhXpzS4YgqD3OWFWEDThmSmCoKn7JkwWllo2SdGPQDYSBP1XOX0jGoKgN/eGIGjC0xAETUBmMEy2riBkEJIr7tSGIFxxKf2/CzIEQW9+DUHQhKchCJqAzGAYQxAyCH6aTm0IQpqAztBpDEHQC7whCJrwlMlFBqdUQ0v3e1VNlzDtw0gOpdS0lKX+aA7lbyIKlXLFJr+X71CRHRSLiorOqaVJkQeT38s3vyLszcvLS+sW4pcvWhfvuSEIF8foko9I7WNwyf9gDsw6BGRvCiF552piAUztY5B1HTcduiQEZPIXkneuJnuQyD1s2uWNgBB80/QgYAiCHhxNlCsAgbPFZq6AizGX8DEETH7NoDAIfDIEDEH4ZHiZow0CBgGDgEHAIDAtEPgvq+tLfu89YGMAAAAASUVORK5CYII=;" vertex="1" parent="1">
                    <mxGeometry x="170" y="90.5" width="225.81" height="109" as="geometry"/>
                </mxCell>
                <mxCell id="33" value="" style="shape=image;verticalLabelPosition=bottom;labelBackgroundColor=default;verticalAlign=top;aspect=fixed;imageAspect=0;image=data:image/png,iVBORw0KGgoAAAANSUhEUgAAAYoAAADTCAYAAACfiFSbAAAAAXNSR0IArs4c6QAAAARnQU1BAACxjwv8YQUAAAAJcEhZcwAADsMAAA7DAcdvqGQAACQPSURBVHhe7d0NeFTVnT/wr6vU0j9Iu4pUSnQhEiBQX9CCihJEIr4AwbBYq+1fI6RA8Q+u8tLYWlvrEiCsj2CjuFmIro99kT8hQRARq0BrVdpGDRDe2S3gCwW1aCtq6s6ec+65M+feuXPmzmSSTML38zwDuXdm7ss5d87vvNyZc1JEAJGrdir6zNmMEQsbsXy8XhdnJ8pHFqMqtxz7q4rUmqZtD2HMN/8de9AFuecNRW6//hiRfyb+snEpFr5wMkrrnkfZgOD3Bq+rw+15Zdg3qQab5vbX6xzh9yVe+/y/4MI7NqPgZ6+i8urjeOrbw3DvB1Px0trpOEe9wtlP/aWl+P71vdSaOL0uwU2X5Yg/go5T21GBgqJqIOB4PZo+wuEjH+HvetFxMrp274HTOulFoiyydetW/IP+m6gZmvDM4mXYc8plmL95Czb84mEs/fF03HTjRAxLUPamL7V9dbr6Wxj3leN4fsWzaDq2GrVbgKG3fEcHCek0dO0MfPhpd1wrtiG3E/dQQSJDOnVFj5498TXPg0GCshsDBWXAAew78DnwlXMx4HS9Smragl+sfUcvZEqq+xqCCdedgc9/uw5V/1mDP548DBMnnqafky7HdQUiUtT/Jx7e1qTXEZGJgYIyIBcjLzsDePspTLm1AsueXoFfVv8UE4bdiYYzztKvyZTU93XRbd9E3ue/x2OP78GXCidgrKf23gmj7/sRRnQ9hOUTC3DtnEr8Um5TPBb/uBTjLpuJGv3K1nBs7R04P+98jF6y01mx4yFcNeDruOiOZ3FMrfgQz0wbij4Dx+KhHWoFUYtjoKCMuOieJzD/6nPw1z9U419/eB/uq3oT+T9ehfLLTtavyJyU93XOWFzb9zg++ugrKL6tUIQGn9OL8NjapZg57B/x1tpK3CO2ec995Xhi4wfoO7kEBfplRCcqDmZTGiyDukTUoXAwm9K0C3sOAV/qYvb1E1FHxUBBKWt6fiO24GQMKbhcryGijoxdTxRK45IpePikUSjAb1G5dAPe7fVd1K2/E/n6eSLqmNj1RKF9uevH2PzIfbjnkd/g7+eXYPnPGSSIThRsURARUUJsURARUVIMFEREZMVAQUREVgwURERkxUBBRERWDBRERGTFQEFERFYMFEREZMVAQUREVgwURERkxUBBRERWDBRERGTFQOHaUYGCvHz0EY/ba/W6jkCd19UoT3V+5Y6aHqlKN/1OUDWl4poprdNLLc+7PznzYj4KFuj5xptJbXtkBRr1cuZk9jhbQ2CgsCVQa18IraMOtxdVI3dhI/bvbsTy8Xr1CYvpQUQxgYGi+K4S5ByqxiJ/TVLUrhZvGo5FHW2e5B27sQ+90LefXs6AxgVXt1BtpBW0QHoQtTfFVaKi9OLsZs67IipdHaBVHtz1NGA2Hp3UCxuXmAWdaC5NrwYm3YlivYaIiDq+hGMU+XOnY4TZqqh9CFWHhmPm3P56hdPPJvuw3Yc3aspIGt+3G9ynWBfdVnDkjfXpqZp6dJ9TUaNfEWX0rauH2U3m9jfXuq+Zip/J7RVV4yAOoarIu03vvoKOLSgNnHVjlh0CRPqNkesTtizCnpdTK0n8vOR/TaJ+dfd1QdvQ55wgPVA71di+ePjPSz0vXu++ztaiSpRPicYE3G3rRWs+B11X9/rer/lbft58EMexSz9hUNdw9DXGdRH22D3CfE4Ef9p7zteX9yFasgnPQXKP15fG8de/b7+eYwoQkA5OenvXyWOL9t/78znEuZnc84weuzUdvbx5EPusetLOdjxqX2XYKP7cOMd5vT8Nk23L83zCz3QrkDPcJbJ9fmGk95ULI9sjOyLzrhwQGT5/h36mNlLSd0Ck9+RavSw0LowMF+u8rymMzGvUi9rKyeb7nO32Dnidl/s6c/t6W32nRFbqZecYzG3p97n708fonJMh7n3muWv6vSWr9HJQGqyaEn0+7v2Bwp3X9vlTPMemng84NnMb0fd4zs2XHokkSg/furj0F+cvzyX17ZvH5fxtnkvcOuv7jWXPa5z8iuWf5N2uc47G+bh5bG5H7LvEPDZ1zu7zQcfuv+b9QnxO4s5XvCe6vfjzirs+/Kzn4C57t5EobbzXnHxNsnM1j9XNp/jPlbu8crK5T38++9M2SX5a0zFe0LaDjtWf317+c5bCbSvuuvHnUytpaGiIWO96irYqSkVrAiV4VLcmGhdUYmOvEqwxxyp0d9XB9c+kFPGVgukoG6D/tikox6Zoi0b2IZZjBDZjjY7SNQ/KrrElxrb6o2zGcGDTOk+NZcSMZP2OdVi0DCitNF4nzm9mgagZrHVqGIFpMH5pegO/Sc4rf+5ST/oUXy/O6dA+UcdxyPM+6NuG/z1OjahY5aPnmEOR6XEIIxY+7z0O33E6eqH0Lvv27fnUH0WjfdfRjmfw3KFeuGacc35h89l7XRVhluxO1fmnqO26rWT3HJcaXatFWF5Xghy9pIjrYLmRzhh/rUiDQ9ijWh7OcXg/A3VYsyl5mljt2idaeH3QzziX5ToP1XUo8t687pwxxg2oS1T7tJ6DSxyzcf2rssDIa/f6d8sEKX/u81gkPiOJFWGMeH7fLre14KT/CM86OT42HGP0+RRXmfnhXBvYtztpGSNbKmPkZ7jOeL8lHUPzpLVzTaVV5km2bYmWVNx48Pg7UdrrEJ5b3fp3S1kDhXvwGzdt9hSuO/ceQs7osXGFbf64QnGBxgqwsHLODTdqGv+6fugrrxt1ke2U1wEOLis2mmriMWez89KoEIO06mJ1u15ij1mb9PNCojRIh/28HJ4uEc85Oec94nr7Bf/cdB0k0hmc8314Y3wffMX8IAZJnk9OBSVW0DWu3iACoVvoh83n+HRV16cRTJztXusUJAnPMYCnO8TpWoiSha5ZSNeuEwVqIYqsaZKEKiA2Y5bYn/+WSnkdYlOZNy1U12EStnNQ7PmY7vXf/1yjMJQFt0j/5aLi467z5Ilmdr+oLt1k1s/QQcJbsbGlY1hhy6owrNuSaSMCszzWaL7mic9wiNNvCUkChf5wtaM7YEboWzq9D7NWEpaI5nHbEY+Ua+PN5fQDj1lfiDXuMSwUteeUyKtLRJ40gnhLseeTDEBuzWkn6taLmr4vEKaVzwPG4hpRUDi1YrldUZikWNNXhVbRBlxT5+5TtqpM5rGL16/1VrLSI1oqLzr7ytUB0izocibV6GMxH75C0pD8HFqOU5l0AqlKG5mv0eDqy2sdzGahPHpea0TFNRkZJHPiWkiSPR2zjuyxiOZn7GH2HLSWpIEiiKdWYFC1gV65Ijtc/sxyaoMZ4+mS6I9+ubGuoWYZkIfcuC4Vr0RpkBHmeckaqQxaCVsCYc5bbKtSdgvIGkqiQVWLhOkhu1WA3H6pXLjh8kl2r6n01d0TsZp+c/LZ6RpS75Xbhb+mH3COqmbncs7X3wXnJ7t+oK4N+fowrZSwn5MiLBcFhSws3Wsv9esw3DmEEb/fEJ9vFazl+Zpp4wTXPbt2YY+R1055IgrLFCtnOaOXYJOoTMkB5PgBeCk+HbOOuMit3YetLK1A4Y5djDHvGBDRf5rs443WnpxuCfMW28YFM5rVdJLdDbGM36lu1z1oNOtV371ohnsuDnFct6dca9DHPsd/h8bU6F0HgWlQOzW67/x+fULX4K3nJS8Y7Meu6AUjWhi+bhbVJy3O26wdmcfqkveFpxcsdBfkHO9dFzWlZaqfelaY7hpDqHyS3QTYgEUPboi7JbtZ+Sxrr5vWoVwUQjC7TtwxKE+e+9M6vktQpYH+O0oWhuLY6xaIIO/rRokX4nNiXFd+Tg29GtM85y6OO+HdPCHPIQn3u1bmfsN9vp1xho1zxD6NtJEBT60zKppxnyFdxoQyfqlqeXuChSUdW058eoeiA2rV9Nh1IdWUplHRy4C0AoUTkUVz1ewb1U1Zz6CaHOyUhal+zTQsSTLYZZczqRx9l+j9yf46f5+7cXHEjmsfxqTRVIsVqrFtjdl7rVELC0iDOYjVHo3+0GS39FnPS90kAGO8ZB3G+LuexGs21YlarNFvP2Z9bmC/eHFVTfS4UvnQyIHKNZ7j0F0C6Yx5hMonWaCIAlTUft1B7Khm5bMsmDejalkf41ZvR3yei7T2DGaLFkmlN53XXB/UbeMce9Wy/aG6tsJ8TsxzVd2QxvXhz/s+eZXom3C/Yc8hiYD9hv18O93ZolVjdCe66zzjHiKfPfkxHZgZouspSrxfthpU2unAmTAdW4zTinXH1MJ/5mQ3mfisInZdyMfic9vme2wnyduf9N9ZzLlj57nRNW3SP9dyOup5ZTfZR6+CXAuON6m7blqlICJqWVu3bk23RUHUXuk++iR3iTWPMyibqbviiNoaAwWdUNz7/1MdV0lJ3K8YELVvDBR0Ytjh3Go5Zlkfyx1kzaV/0mLOfu8XvYjauXYyRkFERG2BYxRERJQUAwUREVkxUBARkRUDBRERWTFQEBGRFQMFERFZMVAQEZFVhw0U0clOUpxj94Sk5vZtm1+lzBz5u1lZPr8ApUddn204XzR1zEAhf5Bt1r4SZ9KPdvqjbOasXs6jvRfklBL9TfLW/1nsTJHfUg8q3J2A7r222/N5nhg6ZKBQ00Pm5mVBgEinluu8x5zVSz7Mn29W06KypdQ62qS1Ja6B6XJe8Jr05mBPifOzIxkrqHWAC55eNcY/Q6H1POXPyltm7KOWxzGKbKNndPNMqi54J5mnDk1fA+3vRwVjAW6/Zx4Pk5zFTv9J7UYHCxRO7WjWJvGnnlAoVpuPb/J6a1Fu7b8u+rrY8/rH3tyHvzavap3G83KSFFWzciZDdyctCd+ySDQNq3OMaoJ5d6Ib41j83VVB5xd7PqBbIFobDHq/Qb0u4P1xtW9fusW9J7h7Qp1HdIY2W77YqZaXsX9v+rvb3el7Xez41XGoGe7cyXPMc/OnZ/xxRc/Dc30Edcd4qSlAzZnx5PvjWpC+lkA0T3zHlXCmO0Edl1Pzdyf0Mc/Bn37WbSlysp0wczqnOAe/77py0zVRvlELkD8K2NGsnDwg0ntyrV6SaiMlfX3rGhdGhot1w+fv0Ct2ROZdKV7TtzAyr1GvUpz3lqzSi4La/pULI9vlgtqO+R7x+uh+nG3G9hHO9vmF4jgSv0897+7fJY6jxHz9qimec/Gnyfb5U2LHrF5rnJPgHMOUyEq97BV8Xp59xKWvoPcTS0uZtv709h9ronzx8x+TmQ+CPp7Yvt3teo9R7ds8b3XM/nQIcz252/K+zklX27k4x2Veb+oY/Pntvy71/r3bDjjOOL7taHHp4KZX3HEkoI4n4Dyjxxl7+Pcdx5cHbrrG0lofm/U8KV0NDQ2RE6LryZ2DwDNJu5piNGBy9YLpnr5Q9d6Ccu8Ur2q+YD3xuZp8vw/6mVOkNnPmNDntqGy6u9NMhmqJiPNZbtbk5NzQ0Un7nUnvc86NVePy5y719fn2QmllbOBfzQmesGWjp3f0pJ2cEEhsQ0/BWfNgtagVl3trl2pqS1F7XZusZhrAly/J+fJBzUEcMHex7xjVtKQJz9uR0vXke13+3CUo7XUIz61OlKeyaybFGrdhxEKzL1+kgZw2d9O61GrbonWyWOal56fSnSlUmz3hv5xC1RibiJvXOiyRro9G8825HlM+TwrthAgUcnA7aLYxZ2J6Y/J2wSxMJTUwbs6LLR9FohDUz5tzY4fvWgrB/UC5ASPM4LWn68gcTNQFuwo8iZroZrALQQYis9CoXScKz0I9T7cTmIJmkSu+Xnyg9+1Ofi4+/nwJx+z6croB/eK3m3wy/FSup/ibKvqjXy5wcK+K4BkWEGDEznKwH7tSKdxl5SealwY94b9T+cgQd17rJSnenJEVN6ucODiYHUKOHJwza0Hq4dbcnH7Z/bvLkZvyWEQIKmA4k+8vstS6VL9t0QZcU+cen2/CfHXnSKP4UO4P6G9PRxHGFMRqxjVrN2PEjOy5Fdnpvy4DonfX1IiArp8kopScEIGi/7kBXQKCGjTslSuK+sQSvTeeaOargjjs61ORrJar54H2dDsEU91aKojYu1fCkF1wUOcq9z8cY6Ldc06tOaiLSQYUb23QX0N1WiPNo+esTuf2UnXHUS9cMy7xVdGc6ymaV6nO2e1vqezYjTDJ5BxTQOvARrZCgrqYdNqk2y2WSPbczk6JnBCBQvW3y7uEzLs2dlRg2rJDSWvBTndCNaZ5Wgl1uN3dVu1US/9qUDeD0x2SsNUhjut2/3NqDuZY4ZXfr4+v4IgPJDWlZtfTTpSXpti0D0N2RUAUKAvWYaN5l46gxnE2lXnPU6TVLGMcw2mViIBidDs0LpgR2EWUmvh0T7Rd2R0Xyz+RTtOrvQVrQNdNSteTLw2cfDGDqp/MS1/wVONNm7E4uh19nHop5hCqioyWoj6moG6ymIBKiGjFzhStRc+23H2mPFbk4/+8qGsijcCZhGph6+5ap3XpnkuSzx8FOkG6nmRtX9SizbEG3U2TtMYpu36MgWXnUYm+0cIudmuhfIxZX4g1xrfB3QJTPhf24tzn2Zd4zAEWmV84MsZFnA+DM9BoHuOa631dT/v07bTq4XTJNP/LXP1RNBqoWrbfKPy1oHTzn4egBo/dW33FYxqWeL5cmC61XSO/p2F6YNdTzqRy9F2ij0+OY6DEk3+xQlM+7xY2KVxPBeWYuTeWBrNEy2vRbtt3YoJaY86gtHubdZ+8GUClL38VEYQX5mJx9Jic7zTYb1c1x69ig8rFVfJLnu5twfJRjOdG12B/M2/UkMzPizO/eCauRWpJnDObmkXW1vzBsX2Q3zdwCr/k9/2nR9Zq1TfsUy1c5fcGVFBN4UuW8kYGFaySdz8SpYJzZlMz6bEAa9cGpUy3GGNdTURti4GC0qfGTtrjT01ku1hXYsrfLyBqAQwUlAb9/QTVv8zfoGoR6rZo9t1TduAYBRERJcQxCiIiSoqBgoiIrBgoiIjIioGCiIisGCiIiMiKgYKIiKwYKIiIyIqBgoiIrBgoiIjIioGCiIisGCiIiMiKgYKIiKwYKIiIyIqBgoiIrBgoiIjIioGCiIisGCiIiMjqpIaGBs5wR0RECXEqVCIiSohToRIRUVIMFEREZMVAQUREVgwURERkxUBBRERWDBRERGTFQEFERFYMFEREZMVAQUREVgwURERkxUBBRERWDBRERGTFQEFERFYMFEREZMVAQa1oJ8pLK9Col4iofWCgICIiKwYKagVN2L9iJgoH34zlv/sFvv2NwRg4+CpMevod/XwI772M8uIbUb5DL0c14d1n78e4EZfj4ksux3mDr8A3F7yM9/SzMfIYvm+8bggK71iJ/U36aav38ZuHp6BQvO/iSy4V7x0RvI8dFSgYOERt3/OY/bx+AVE7JWe4I2pJ2xddGxl8S3Vk58c7IvMmL4xslys/PhDZuv+Yet5KvG79ku9GRo2+KXL9kMLIvEa9Xju6akpk8NXlkT9+rFd89m7kV5OHRIb84LXIZ3qVWBlpmO8eg7vq3chLPxDrJtdGjupVwd6LrJx8aWTkDzZF3nE3+PGuSNUtYt38rcY+hMaFkeFie0QdiZwumy0KamEv4bGfn40fVN+Gfp31KqlzDgb1Pk0vJLD3Zxg37gH88Zy7sfq5+zDs/+j1rqaXcP+8v+L//fz7GOxuu1MP3PjIA7h4XSWePqbXHVuJec9+A5XmMYjXjXhgKf7v2/+GxfV6XZD6SvzbR9/D0w8Mx1c76XWd8zC5+ifo/3RFbB/S55/jc/0nUUfCQEEta++b2NYtF/3dQjYV596B1RseQ9m4PJgxJuo3a7Hx/Im45XS97OpUiOLh21Bb96FaPFa3BruvuB6XxB3D2Zg49gysrdmil+O9WvMcel43Dv5d+Peh7P1vnHxuP71A1HEwUFDLOvd8DDr2JrbEDxo0W+PvG5B3xZUIikEXXzgA+3fvVH+/9c6f0aVrcOul51fPxAdvHUSioYq3D3+ArqcFv/esr56Odw4d0EtEHRcDBbWwK/Gje7vg4Zvvw8Z3/67XZcbOve/gK6cHF+LdTuuCDw47g+Vf7tYFf/3IqPn7/Wk/9ug//bp16YyPPkz83rf/a5/+S7RcPvyr/ouoY2GgoBZ3+viHsfaeU1A++hY8vu9TfBLqTqMwzkLvPvpPv365yNF/9hxyIU55aS1ejdvvh6hZ/zpO1ktBLv7GIDQ8uzrgLqqdWPui966tt478DR+tmuzc6TR4MAZe/s+4e/kbAe8lal8YKKgVdMJXC+7F+lcfxnWfrsB3Cr6FxfWf6OdaweCZ+OF5z2FKyePYdVyvazqMjT+5FatOvwo9u3bDl/Vqv243l2HyBxW48Yeb8a4baI7vxn/cVoaPvjEUX+oSa9Hk370K9a/+Fn+Qj/p6vPHs/Rjw4hSMnPYszDFvovaGgYJaT+czcWb+t/Hk46Pxh6kjcXvt+/qJdL2HdxN9FWPXPhzUfwKnYeyS1Vj89V/jtmFDMFjW+K+YhF/lP4jlYzvhk5690FO/Ml5/zK5dgUl/WYirh+rvSFz7UxyZvAx3532CHr3O1q+L1+m0fEyufhBX1/8HnnpbryRqhxgoqNV9Me82PLniFrz904XYpNelo2ePL+LtQ8HjB3K8oGfvXL0kyNth5z6JV+q36Fr/Gjw6sTc+FgGl+/kX6hcl0DkPN/9sDRrEe1VrYeOTKLv8H7Fj958x6EJjH0E6DcOl5+3EHxLfWEWU9RgoqG2ccxUKuv2lWf33A/J6Y8frf9RLpib8+jdbkX/+IL2cyIdY8/zHKLz2LL2cino8+/uBuO4KvWjVGQluuiJqFxgoqG007cKeY13QTS+mo1vRGHx9869Q4x8AeO9X+EX9SEy4Wi8n0PTi/ajsfCtuO0evSMGflj6Al0dOwehk3w9p2oBf1w/CkIv0MlE7xEBBLWvvClQsfxUH3EFkqekw1tz9EP5082RcpVelpdtNuPfmA/jX6cYg9fHXsbj0cXS9915PIX78uDl4/gl2/fIOjPzhJ5g1v8gTrDbNGYp+Nz6B2JBCk3ivcbuUHARfcCMmrh6Oh+7qr1dKB1H/ykF4TvPdzfhR0f14766f4pbmRESiNnaS/C0P/TdR5jX9F9Y+OB8P/f/XcRgn4/OPP8WpXXti6J0P4sGbEnzjOtBOlI+cAVQ+j7IBepXyCeqXzcTdla/j2BdOBk75Gq6cWYH5E3t7voi3bvalmPtr4AtfAD777FT806jvoeInN3p/VkSQgeK7f56NLY//sw4g+1A58Vt4bN8XxHs/E+89ExeVzEH5VOMnPZR6LP3Wj/BI49s4pfOX8A+ff47/Of083Fp2P75X0CPwS4FE7cHWrVsZKKg1yfkonkFR1Wzk6zVElN1koGDXExERWbFFQURECbFFQURESTFQEBGRFQMFERFZMVAQEZEVAwUREVkxUBARkRUDBRERWTFQEBGRFQMFERFZMVAQEZEVAwUREVkxUBARkdVJDQ0N/FFAIiJKiL8eS0RECfHXY4mIKCkGCiIismKgICIiKwYKIiKyYqAgIiIrBgoiIrJioCAiIisGCiIismKgICIiKwYKIiKyYqAgIiIrBgoiIrJioCAiIisGCiIismKgICIiKwYKIiKyYqAgIiIrBgoiIrJioCAiIivOmd1CJn13Gl597TUcP/6JXkOp6tz5i7hk6FAs+/dH9ZrUMA+yS3Pzk9oG58xuAb/73asYeP5gvLRxIwuoZpLpJ9NRpqdM17CYB9kp3fyktscWRYbJDwELp8yTtdHtb9brJTvmQfZLJT+pbbFFkWGyq+P48eN6iTJJpqtM32SYB+1D2Pyk7MBAkUGyP1w00pwFyrCTdPraMQ/ai3D5SdmBgSKD2N3RssKkL/Og/WBetR8MFEREZMVAQUREVgwURERkxUBBRERWDBRERGTFQEFERFYMFEREZMVAQZQBZTWN2F8zWy8lcMMSvLZ7Mx69QS8TtRMMFFlgQuVm7N8tChrzkazQyQRVcIl9vbwEE/QqkzquBM91aHNXqDxYPVcvt3uzsdq8ttRjBcr0s0TJMFBkiyMvYHZePvqoRzW2DSrBa5Xj9ZMtrPsozGmtfWW98Xh03EAcOXIUg4a2QrD2yXRwdiohY/HWXPfach5V23rg7Ga1bEQ6vdzYetcotSkGiqxUgSc2HEX3s/rq5ZZ0FOs3bEf3wrvYJSLdMBKDu29H7aI3cGTQ2PadJqJlVFF4GFV5wzFtlV6nlRfHryNKhIEiS+WddYb+y6Fqhv7uKLPPW3WXxHcnhKqhvjBR1DDPwOhZYWqy/m4Ms889qJbpvN6zTh13dnZ9TBh1Abpv24LyVTNQK9Jk8KigGrMvDRJ0Ezq1eSOd8vQTgZy0qygU+S5aeBXyPZ58s6V7EN0y2vAUyvWaxPzb9uaNO/6i/hfPv7Zqhci/eRjdXRxq4TxnHVsWHRoDRTYShX7poO2oKq7QK0JYsAXbMBCXevrVx2PUBWfgyBsvYqVek0h5cTW2JeuCUgV8CXpsuCfWjbHsMEYvcPvza/HCG6IldMHIWAE3dwgGif/MdaowPvIOduvl7DEbt4qCettrTrqXvyZbWrf4AposVL1pMPudsSK/9NOaDBJObd7t7nkGX5s0CqJsTaAW04aJbYmWZLQbctgMJ9+SpnsA1TI6ivoXavWKxCZUDvF0TVVtG4hSf+ViUAkufc15fugNEzE07x6sPyIOVR/T0OnJ90PtFwNFtnBrkfIxKWxN0OR0V3n61d1ulFAf4gqMW2bvgir7jijotlV7C4UFsjUiyhG935UvvIEj3c+CW3kuGyrOZdt2zzrZWgoTvFqdCmrb8coCvRwQfCdUjsUgUZAvNNJg5fThKg1idMBZNtHIQ5G+c1+AKFtTFibdgx3GgRDdSyunT/R0Q8kACSO/FHHOT7jpQiccBops4RnMzkftWaJJn+KgpiqkBw2J1oCj3Sh6OSlV+CTqghqPs3sgWts2qYKlR47znlUHRfHkFq7yPaJW++RTqD/irpuNSweFq+m2NhXUPAG6Aq/4CuNQQe6GHPQwA06zhEz3QOEHrD3dZKKiEufwwewL7NRqGCiyVPmTovbZ/QKMCvlBV1a9aBTIstsJWP9kCt1XQqguKCujcJUtGryBF1Y5XVJqnay1H5Hr9MuzxQ1LMH5QrM/dfagupfY4qK0C9hn4mnVcRHLGJyoueCNWUREtSyITA0V74q895p3l6/OuxbTV232FtH4qtFgX1ChR1MTU4oBYDOrqkDVxs8bp1nTLZKTStW/V2pHrRPU4G7udnHETb6vOeYjAKQpcc1DbMwajOLV+L/94kRCXX2GET3cvHbDHJWmV6u62Knc8hCgAA0WWUv3SRs3b6fsfhVujhY+oCQZ1Ech+9UFD8KhRSKfM7YIq9G5ftXL83+9QA+9HvS0XeQziWEsLEetikjVcte4MHD6Qbd1OtkF/fauyDg5OS8/b4ppQeZe6AyhK3TElCulJ5t1DCfLLZ6WMCr7xgdDp7lNefA/Wi3BfEXCHWVmNvmtq9zs44umiCnecbgBrnVu4qa0xUGQLUfhEB7NllweqY3e9SKLwWSgHqye5rxmCVwIHR2VNcqAo5A+HHMQOprqg9N9R4hiGin3C7J6ZhID79J3arCh5jRaNXpexvvsMmnuLKOgTj5t4gnRAGszBg77BbJl++u4hN50S5pfPgqew/oh+nztGFTrd/dw7qXoYx+E8SvGM8151XUHdQeU8J44zZNeTG8Dk+3h7bMd2UkTQf1Mzya6KbCDvd1eBJpXba9sJWSjZZEseUDjJ8pPa3tatW9mi6HjkXUXBd8kQEaWDgaKDce/z5z3vRJQpDBQdhfr2rvwJiMO8g4WIMopjFBnE/vGWxzGKjoVjFNmPYxRERJQUAwUREVkxUBARkRUDRQZ17vxF/Re1hDDpyzxoP5hX7QcDRQZdMnSo+Jf3BrSMiE5fO+ZBexEuPyk78K6nDBt4/mAcP/6JXqJMkbXP7W/W6yU75kH2SyU/qW3xrqcWUPXoI7pJzfibGRGVnjJdw2IeZLPU85PaHgNFhl122SWqpnTliBG6sKJ0yfST6SjTU6ZrWMyD7JRuflLbY9cTERElxK4nIiJKioGCiIisGCiIiMiKgYKIiKwYKIiIyIqBgoiIrBgoiIjIioGCiIisGCiIiMiKgYKIiKwYKIiIyIqBgoiIrBgoiIjIioGCiIisGCiIiMiKgYKIiAL97W9/Q+fOnRkoiIgo2Pvvv49u3boxUBARUbyjR4/i008/Rffu3TkVKhERxcjuJtmSkEEiJycHp556Kk5qaGhgoCAiIkWOScjuJtmScLFFQUREVhyjICIiKwYKIiKyAP4XXx6FnhwjELIAAAAASUVORK5CYII=;" vertex="1" parent="1">
                    <mxGeometry x="159.56" y="270" width="240.88" height="129" as="geometry"/>
                </mxCell>
                <mxCell id="34" value="" style="shape=image;verticalLabelPosition=bottom;labelBackgroundColor=default;verticalAlign=top;aspect=fixed;imageAspect=0;image=data:image/png,iVBORw0KGgoAAAANSUhEUgAABkQAAAJuCAYAAADhDm6IAAAAAXNSR0IArs4c6QAAAARnQU1BAACxjwv8YQUAAAAJcEhZcwAADsMAAA7DAcdvqGQAAKzpSURBVHhe7N0HgBRF2ofx/7IsORsIgndHBsGcAyCKoKJwmD3vVBTFiOeBiuk+w4kKp2JEUcxZkVVEMAJmz0yOBjAgOe6yAb5+e7pme2ZnA7DAbvP8vLrurq6uDjO77NQ7VZWWvT5nowAAAAAAAAAAACKsUrAEAAAAAAAAAACILAIiAAAAAAAAAAAg8giIAAAAAAAAAACAyCMgAgAAAAAAAAAAIo+ACAAAAAAAAAAAiDwCIgAAAAAAAAAAIPIIiAAAAAAAAAAAgMgjIAIAAAAAAAAAACKPgAgAAAAAAAAAAIg8AiIAAAAAAAAAACDyCIgAAAAAAAAAAIDIIyACAAAAAAAAAAAij4AIAAAAAAAAAACIPAIiAAAAAAAAAAAg8giIAAAAAAAAAACAyCMgAgAAAAAAAAAAIo+ACAAAAAAAAAAAiDwCIgAAAAAAAAAAIPIIiAAAAAAAAAAAgMgjIAIAAAAAAAAAACKPgAgAAAAAAAAAAIg8AiIAAAAAAAAAACDyCIgAAAAAAAAAAIDIIyACAAAAAAAAAAAiLy17fc7GYB0AAAAAAADFeOzxJzRu3FuaMXOWNm6kSWVzpKWlqV3bNjruuGN13rnnBLlli9epfNkWr/lV116vr7/+Ttnr1wc52NqqVa2qfffdS3fedmuQA5R/BEQAAAAAAABK8NNPP+vKgYPUvPlfdMZpp2mfffb2G3mx6SxA8c033+r5F1/U/Pk/6K5hQ/WnP+0e7N0yvE7l09Z8zb/6+htdfe2Nys5eL/FSb3sbpWrVquqO227WfvvuE2QC5RcBEQAAAAAAgBKcdMpp6tnzOJ179tlBDsrC408+qbFjx+nVl18McrYMr1P5V9av+dE9TqBXSDlgvUXeHf9GsAWUX8whAgAAAAAAUAwbfsl6HNDIXvbsmdqztWe8pXidKoayfM1tmCy/Zwi2O3sd7PUAyjsCIgAAAAAAAMWwuShs+CVsHfZs7RlvKV6niqOsXnObM4RhssoJ73XwXw+gnCMgAgAAAAAAUAybmNvmosDWYc/WnvGW4nWqOMrqNWeorPKF1wMVAQERAAAAAACAYtiE0EzMvfXYs7VnvKV4nSqOsnrNAWBTERABAAAAAAAAAACRR0AEAAAAAAAAAABEHgERAAAAAAAAAAAQeQREAAAAAAAAAABA5BEQAVCuvNb3T/rzn1w6QrfPCHYAAAAAAAAAwBYgIILtKnfVNGUO6a8TDt9XHVuFGsKbt9He+x2t0658WrSHV3C5qzQtc4gu6nmY9m77l1Cwo6U67neYTrjoAX22MigLAAAAAAAAAFsJARFsJ0v10ZA+OnDv4zRgxFuasmCpVucEu0x+tlYsmaPPX31fM4MsFCVXq6a9o3tvOEXdOlyk14Lc8iB3/pP6+wF76fjLR+itKQu1ImtDsMfkavWShZoy7gVN/DXIAgAAAIAdyarxuuSQvdSuQ5D26aqzhn3qfWLG9pGt2R+M0M0D/qmrh72irxblBvkAgKggIILtYKle69tZZ434SsvzgyxstrEXtNaex52vu576QnNWZwe55UDup/r3aTfqw+XhIAgAAGVrygu36NYXpgRb0bYj3SsA7LByl+qrJy5Rv5ELgoxyYuZd6tZhL134erAdScuUefFR6nXZQ3r+vff1+hO36KxjjtO/3l0W7K9YMi/eS+163MWXTAvZUyf1v0z/usJSP520d5ANYIdBQATbWK6+H3KyBr63Otg2GWp23PV67p2vNeOnn/Sjl+ZM+VxjHv2XTm63q7cXxcnNK58Bh9yxj+jFP4INU2cv9R85Ud/PLXiN337+dvU/srmqB0UAIIqKa8Re9N59EWrgnqIXbvHuNSnRfr8JFr2n+71ndv97i4KMaPN/Nni/ANiR/PaETtnrMP3j2R+9T8aBOj30wKffacbUWPro5kO8z0f5mjFhgn4LihTLD1Qcp6G0em+xVS8O0nWT1wRbgfw/NO6GO/RBWXUUCQJL8R5BQYp2oKm8aaz2hx+p4489Rif0Ol0X/ONMHX7owaVLe+4e1FF6A0Z9oP99nJieuiTYuS0ce7PGpzxnfz318au689hg01zysHd9SXlABBEQwbb104O6asR87887p7a6Dv1Q7z/UT4e23ineMJ5Rp5H27na5ho2/Qz2DPFQsc2fODb3O0u5n3q5rjvmL6gQRLnuNWx96hq554kkNaBfLAwBUfC1736DrbwhS75aaO6aiNXIv0nv3b5+gxJQPPpHq19OKGVO9q9j+/IDd/e+V/bUEgZ9Ju1xQ8F4J3i9L/ijrs22N13P7vUcAVHArl2lF/hr9b8jJ+uvwaQVBkZCd2rfWTrayZpXK1VSLba/UO1O/08MnBtsR9NFH3yR8ho1bPUVfzgvWy8Ru6vtKQRBsxm1HaPK1ZR8U6fWgV/f4K9U22C7OzGHH7UC9SSbolrP6qGv3E3Tte7+rwUH9dPfQIaVLt55f+jaqIBBx7O+364DDjixIz83Wrrt1DwptJj9w8bAGBJtF6647LzpCmnS7/vFAkBVc1/8+Pk2FmmIeuFA3TZKOvOhm2uIQaQREsE19NuKJhH9g6/QerodPbVzKXiChuTL220vtmocmYO92tu6d+FuhPyhnDDkiNIn3n9T3tVzNf+kiHRlM7t23lBNuFK7Hu5r5L2pgzwOD6/iL2u11tC5+9JvCY71mLdAnz8cmFd+/Q8t4Ha07HKYT/vWcZmUF5eJeU9/Quf58xBDNWPqhbj9tf7V221aqb2z/P9+LHRXzvv7pjgvdXNasMbr9nKOTzr+vup16vV77OShUGjZB+nP/0gmH7xG7Fi+1aLuXup0zRG/OL/4rM7+886q+LnSvpbP0wyE6/aA2amHn9F/vi/RSkefL0qzMITqnW3ii/tjrc9oNI/W/3wof555lLB2h270HvPTD4V4d7j5bquPhp+rGN+en/NACAChCxzPUq5U0dxpf+y/ZFE2bU0/tTumilss/0QeRfWRT9MIjn2jn3jfo0qMaBnkB7/1SKA8AIilX80b+XSfe8a3K0aDHO7zq1aoEa8kqq/LWHLrixPt1eydp/uxZQQa2lU/m/KKkPkFlpL+euv4I/fHckepx7YQgL/DAhYXztpZjD9OeO83WW/HzFQRIDrj1w5RzFY299h3N2OkInbote7EA21ha9vqcjcE6sJV9qmv3PV3PxX/j7q7+4z/UNaXtHTBjiDr1GKGi2+8rqUX/TI0fvGc8wGKBjGNHFBxxYPdjNHPC21oVbHe95yeN+muwUYzkejqd31+/PD5C81J8faTOUffoA69S/1s9HmtsTwxaJKnTVXdPfFx/dQf4AZEr9H6wpd27qnvGRE2YFwyNtXt/vfXhYM0sqV7vOn70rmPpa+fqyCvej99zstI+Ay39UDeeca6emlVESCC9kXo9NE7Duwc38t7lat83U+tiW770+m3116vu0o2n7BHvKZIs8XntrlP6t9SEESmuP30PXfXBOF38p2DblHSNJvk6PaU+Z4r3GACUxIYFylRvXX96xyCngH0Df+TiLon7pjyvW8fMDTY89Q9Vv0uPUryZ2L5d/8h0tevdXjPGfKIVfmZL9brhDHVMODbIC7Z8/rHuGE+r1Ne1eWzIrDFS7xsUrtK/xxntY/dQ6NrD1xg7vuDO6+mQCy5TYvt4Uhnv+ntpTOj52jf3H9HizsVcQ5CX8jmfIr0cfj6eeodeEGukTy5fps/OY/VP2tW/RqV6X3ji76U9poaupRTPqVAZ2z9RuyQdV/Be3dV/jp8uD3aY5PfhZkr5WhSltD8LF3TR4kcK7jf+miW/3z3xfYWeUYqfl019jwCINBvWyL7NX2o2WXr3q/V+eLToQtLV8NihenXoUfHPj/6QSic/qYVNz9Zrpfl2v1/+XR3zyjgNKqKwffv/r0/8Emx5Ot2qGQ+eEGwE3HmDzabn3Kpj3r1ebx/9kt4Z2KbweeLbF2nuyddrcuww77ig/GbY5GecwpbUkfu/m9X13Fe1JNh20ttepnGvnO99UjTe67qX97rme4/xts3oMZPy9ZqloT1OLXjWJun1SPWa2Rwh17gHryN0+23SNddKt0+93/v7KNiv0HHJdfrvseP1hnfuUfFMT/i9V9x1uHu57Wi9fa2V8a4hOHdplcVrfviRxwRrm2HXS/TsayerdbBZoqUf6qYTb9TYYLMoPW97Vf/uMK1UZW1IrbNCPzIznjuyoDeH9QQ5U3rmOemsM72r9M7/yZIjdGjCj9hsPXPYhRoebIX519HoHR3Qd0SQE2I9Ra7fQ9/fepKueivIC/jXpBdTH1cKH33wdrAGlE/0EMG2k/uzFobDz+lt1aFMh0raoHkjBuqhn4LNFL4IBUO2xORHUwdDzKr3BuvfEzahH8Gq93XdjeOL7nnw8/sFwZBNlfuaBv2r6GBI6f2kB//xj+IDDfm/K/OKgXrN9es+6t/6z1G1g42Y/OUz9crg47Rn+/11+o1jUvSOSfazXk4ZmPDkT9NjIz4NNsx0DTulhGs0dp0Xnaxh1s0mpWLOWYr3GABsCX+IojFLdMgFBcMI9dr5E4285XkldhhYoU8nSaf4ZS7QIfXnKtPmYLAG9XBeeKyqeOOxq9srs2TMVp/D5I/FK6Sddw01foevPWiAtmu7ZYyWHBoaQqn3zvr0kfBwW7EG7HCZfrtMVOacYPcmKPycvWexs7ej4VG61H92sUZu2xdvWE8o31stY1WVkUV6b9Jc1WvXwX9ODTu0V705E5VyRKY53ms2rUNwHd4zOFTec7qvoGypnmVJGuqoS63uerEggNVRBsEQu8+pM1bE77M4m/Sz8MhU7RG/15Za8clLsedR1OvpWfTeVO0SrruV9/MSGh5sk98jAJDs1+maXWwwxORr0VuD1POK8WXyOTUVaxT/6xPNdbsNzeSnl9R3/vWJwyMFjd7Nb3NlvtOlXpmERvKUftGokyfoOFf3bUdo4RP/rJjzmWQv1+Ld+uvhwQerXnqQ58lo0lN333OSKv+6POjNk6u8ItoCNtfMYf/0nvURujQhGGJBE/d6BK/ZxW/E9nv8YMf8s/Wae/avNNf9134Y7E3lDV2Y8Bp7dTa3/DYaNP47vXbObrFAiO1LCIYUfx3+e+BB6T5//6YFQ8qFP2bq58XBepnprk4dGmjp1I9LDIZYUGK/30NDaj03W+3OTJ7Do7XO2u+b2P4Tb9SAvrFysUCIHZc6GOKuY8ZXmx7UmPf7Mu/v9yYMm4XIIiCCbWfufP0YrPp2a64WwWrpVFeTjifrykfH6ONvZvoTc//400x9/dzZwTc1zCxNGBv65kuy9Ho64oa3Y5O3z/xIN3UK8jdVenOdOfKjeD0jz2yugr+ZsvTWi2PjAY6MWn9Wl/6367l3Pg9NKD5RN3cqmEp83fvj4t+oSaVKm3/oic/mesfO1ffPnaMmXt5fR8XquvuoWJmYrrrbfy5esm4fc2dqbuiPtYanPxdMXO/V8/kYDT97P+1aOdhZjNwJd+r+qQVBmTqHXK83p9j1zNSHI08peP7r3tejz7jnv5P++vDruumIeqFnE8hZrM+eHKDue3bTjR+m6qRZIL3FmRr5kb3eMzXhmgNUI8g3Sz//SK4dbOUzN+mhUOAovfExGjJuiubY/Sa/Rvnz9dDQ14oOQtU5WNcHx86ZMk7XHxIO7MzSK89ND9YBoJSsETs0cbRLIz8Jf898ij7wtlv2TvzWfsfTrfF9rhJHnaqnQ05xDdQNdVRna55PkTdnarzx2J+f4tBTQ3UXLlPWrFE5c453XUcm9nRo2Tmxcd2ubUWr3okNy0nDbS16b6Lm1j9Up4TKNDzqMr/Mpkn1nL1ncXoxDf5//KEV2lm7xgt01Oll2Ttk0VTNWF5P7ToEJ2jYQe3qr9CMqSkiIhagCJ274VGn6pBQ2dI8y+1t54IHWYRN+VmweWtCPTs6dk14HkVpeNQZiXXv4f0sLP9Df/hbm/EeAYDyaOZdun+yzVcRbqhuo0H3nK2mC9/VG0HgIvPeJ7Ww060JvR16PfiS+jYNNorR6bZQ3Sde5h3zi94eW7GGflr6+gAdclAXHXVMN53z4s66YuRLeu3N8Rr/ypMafmaunr3xZg2542bdMPxDlU3buQWSCiZUv0x3JwQT7PXQOXeHepB4r9nFR0iTJyjTNt3rek+oB5HN8XKbV6YoM+dovnZTy3hXCK/OB4vvgVTidQQ6XVyKnkzl1nv6/oe1wXrZ+uOXUgyL9daN+kd4+KwHvtEMNVAjP1jlLNMHL29OT42/qNFOy/T7/GBzE4z9ZYm0U8NNbLMDKg4CIth2KldOHGZoyW/6NVgtlXZX6IWxt+ucJkv04TP/Uf/+f9cJhx+mYy5+0ftzosDqVUVPPbfTSfdr1PltYpO3V2+mZjslzdcRSsXNL7Lvta/otmOaxevpdvPVOjbUUp8/Z2Z8CIae907SE1ccLs0aqwevvlD9Tz1ahxx5koZ+FuoesW51Md8I2kdXPX+LujS2p5ehOs0aq25sR8nq1lG4KX/RC2frmHOGKPPbVcpotI963Txatyf1lE5l8rj3Coa+Sj9YVz/cT3v4Y15VV7Nj/qnTO8R2mZnffR2seTKa6+xnvtRHr1yvkzvuokIjsubM1lNnn6zbvy8qNNFAp902RN2a2ZOurjYX/Uu9C0a6knLzlBesfjj5i9AEeLvqbw+M1Bl71Im95+w1GvKA+hVEzpQ/cZxS/3nSQKc8+IzOD47NqLOHzr+jX8IfeD/PYWxXAJvIhlcKvokeTv438J1Ff2iJWmqPQu3sHbVHK++fzRInmw432CdbpD+8zzUrPnkkMSgTHg6ojNgk6gUBn53V64bERm0L3Oyya7Dqi11by8I3HmukXvKH/61962lSmp4FJSryORfDb2SP9cLZGhNpL5o6XStadUlofO/QrojJ1RN625iG2nVn77VdbE35pXuW21uJ7+VN+llIfj+Vnt8LJNXPwua8RwAgWZP2ap3YYT6F2JBZY+/poTpBTpmaPV8Lmx6tE5Jbq9ser2Oa/qK59iVzzbJi6tSjFB8MCwk3sFdQuZN025CJWhF8mFw9f6z+r++p+uvxPdTj5LN18bO7aOCle/r7sueP1s0DnpX7etz0Z/6pywYE6Z5Jm9DLp2BSdeuZkdirJvZ6LHzi1HjAxE/h3h9Fva7FaXulLu0UBGISengUpRTX4av474H3f/gtWCssL2uNVq/5Q/OnTdeUz97TCy+/r/8F+0pS6onT45OcFzHRufdXyS9JQ1ptdfMXpZxfBIgKAiLYdlq1VHi6B62bqWmbMPRQ7m9jNfCIdtrzuPN1zX+f1vi3JmvKgqVasiI71BBevL0OPaIM5n7YXQceFm6V92TsrqY2jILz8+yg+3GWvh7eR/vscbjOvPQWjXh1vMZ/PkdLlizV6hy/QMl2P0jJpyu1Jmfpou7hv8JzteCDERrQa191aNtZFz83y7vCkvyiWXNDpfI/03V7hoNHh+rOqcE+T36eC1E4GWp8QD8NG/ulpn32iq4/rlliYCR/vkbe9qJSh7FqqU5C9Keu6tQMVhPM0cy5oWHFahyizvsF63Ht1Sb8LeL8vCJ6iOytQ49Iepf8aXe/V07cnJn+xPYAUNG07F04KBMftqqMJJ6jbOvefhr6Q0jZUFk7B0GlsguMxHojJPci8nsPRW5y9XDwZnuy4de8Z2xzmbj3au+WwT4AKCN1euiBT91QQ0F65WwVdLpI15//Pkrjw/OHYNv7eJw+KG5os/R0VV74ld597/0gzZCbY2TJdJfnpfFfbdoXPgNtB47T7RaouDcxSGHzkyS8d/y0ZUNS9XrQ6giGvbLgRikCI1vjOsqbRTMW6g8t15Rxo/XC0w/qhkGDdWnf0/whqg45+gR17X6aTrvgEvX9163679MTS/HlkgnyO1g0+kuwXTSbq+N//jweNvSVpRdpawC2AQIi2IYO1P6hngT2jYNnRnxa9LBFCabrv6deold+jpW24ZCuvONRjfnkE338+c3a3JGvtpqdGqmxt1j52sU6666vtNyP2NTW3mffoPuef0cfe9f97Dmh7gpbTV31fGSSnrmyi/5SPfHHPT/rR40b3EM9h5U0/NNKrSqjAW0zGh+g8x/6QJOGHJEw9FX+d1/oy2C9QmjUJDFAAgBloeGu2jnFcEDWeDttTmmGGSpOrCG6vAyZlKjoa5sybW5Cj4jCPSZiPSKSJfdA8OcxcYp8zqXRUaffEOvZk7L3xuaYMtW7GpvQ2wWRXIrNU1HyaxZ7f8R6hZT+WXpPU4lxidTPsqz5PVWKmh/F2ao/Cx73zIuaF2WL3iMAUBoZatHvab1+9d6qFuRsFa2bJwyNFTfzTb29MPGb/ZPHJzeOz9bcEucQqfh+m/NDyV8SbOB9vq9fXw38VCv+JcuMWi7PS7vtUvqRHJL0uvxsNZ18vS583bba2MuW4vVIkuJ1nWldOkoUmzPE5ntJHvoqUSmvIwIa7tZAtb13wW/f/E+ff79Aa7y8jJ2a6/BDD05IB7UpfZfU4V/N9h5ht6S5QJL1135tbBL1wpOab3fNGxKoRaQREME2tJuOPyaYJCzwx4vX6o6vS+6joM+e1ss/B+tePec+MlKXn95Ne++2m3arrmBys83xV41yc24kJZuCI7WF+u6rpP4MSz/WF/Hr8zRuqt21UmOee79gqKlON+jlm8/XCYe21m7edafn2D+z28JOOnzAk/pg5nR9nfmorkzoobFB8x4bofeCrdSSelakd9XdwVwoKVPw4GY8coMeTTlreoYan3KC9g+2fOuzStFTpTit1LZl6NdZyt5HX+mbcMNGELQqbKq++SpYDeR++LG+C9ZNjSZNN/uPXQAoWkcdeWg9zR0TmiDbM+WFMf7cGUnTcGyyWEP0mMSJtRe9pxe2whBQm6rjkYeqnndtCb0upjyfMP+IX2b5J3o5VGbRey/p0+XBhi8YauqT9xW/Tb+eYN2X6jkv0nsvuAm1U/Ri8OrYWnPP+4GKVh1S9KQpYo6XpOfkvz9CwzuV5lnaM7Chp+ZOCk8invwsLS7gPYj4vBplpOMZwUTwKSZ5964zdt1l+bOQ4vXcdVfV0xIVxM2m6IWE4eM24z0CAKVRt4HqpdfSAYNf0WsD9kg5esHS6bNjQ9XUqrPlnzniwyRdGmr4nqWhV9icIRcFc0O4eSFcg3xM5sXXFzvPZVSsXFnC5/KFr+qGiX/SRQMu0xUDrtUjb16jQ4Jdh1w7UR9/GKTH/l7E58tS8F6n+87ZTZOvjb1OvXoUfj1s3pALhwVDNwdztYy6InFi/MueKGY+1fDxKbS16MfC+d67o0CJ1xERLRrWlHJ21mEDrtPN/06dbvvPTfrPBQkTuBbvgQt10yTpyOs/0FOXBHnOJQ9r/G02nNYP+t37YQ8PrTVgVKohs1Lwh7TaWbsVG3Cx+pPnIymdnrt5f+gsXaR5wTYQNQREsE396eKr1Ss8OGr+fD168sE66cYx+vb3VfHeIlnLftG3mUN0TpfLNNYyfvs9NH7hb/rs3dhQT7mrpunRC4fqi9iObWSDPr3jAj06LXa9WQve1o1n3KHQzBlqe0xPNdEvdtkFZn6ot3/zj9CCtwfruheXxfLL1P/0xku/FfS6mXGPzjlniJ7/ZLaWZVVXg7276fJ7x2nI0VWDAp5i5y+JOWi/PYI1T/77+vfJQ/TO7KXxIEbWstn65NF/6dhrQt8eWTpRtx7TUUdcdK/e/TZc9hs9f8ld+jjY9rXbW/sGq5vriE4HhiZvn6Xh5w7WOz8E76msBXpn8EA9G2q3qHFIZxUaVcv3h54d5B27wH+HadW0kep72auh9191dT2u3PVJAhARNkm4ayx2QydlqreuL+qb7Jui4xn+sEDhOT5ufeQP7ZE4wcf20fAoXXqBd+PhOU7GeB/Ew/OPpCjzsk4tNKl6bJLx2HwffrlpHRLnavEUfs6PaMYuBfOTuKCC7XOBhYS5UWyopbJ4TRa9p0nx3h0pdOwgm0R8Ujgq0Kq3Oi8ueAaZc6x3SWhostI8S48/QfnyTzQyKJPqWYbnTrn1/oLgyZay53+9d41Lwu9FS951dg4usix/Fgq9nt4zOiWh7qnaI2nIrM15jwBAiRqfo5e/+1hP/e3PBcGQVeN1ySEFczQcfuOn3mendLXr3n0TGtgTJ+kOD4dkwyTd3ulDXRPfd6rePvolzXgwNGfIiff7PQYmX1tw/LgepZtUvaKrW7dWsFaUNZr6wjDd+H83e+kejduccbFKoe3Ai9RJ3utkr1uK16PdyfN13ED3BVPr5eG9PnpSf3X7r5DuK25Sdc/88Hwg10q3h4e+8oMswfukRxBoKfE6IqJSVVWtUkWVZj+nrt1tiKzEdP3EFf5+73+bZOy1J+mAWz/Urme6+UGCdKb0lj+R+gRd9dCH3h8/18T37fdVKYfMeutGvTWrgR9w+d/HD2tAkJ0oNnRXu/36B9ul16JRA2nJr7H2OCCC0rLX52wM1oFtIvf7IerRe4TmlWrij666+6fH9dcZQ9SpxwiFO2HEpVdSev6G+Dwiu/d/S5MHt/fXZww5QseOKDiq6z3F9fwoWnI9xarhXfNn3jXXzdVrfVvrn++F5rYISfeuO9+77pjgPv11m+j9Cr3vr3t276+3Phxc5LcE3hvQVueNSdG/4qh79OOgmUU/t0D63tfqw8wLix8CKvc9Ddi3rzJLipzYOV0PkVI/s+re6/K597rEvv/0Wt8/ec/MX/Xsrv7jvT/K4jc/Xbcfcazi1YafTe73ur17L42Yl/p5J0g/QDf97xWdHfQBTTxnCUp4PQAAAABEjzUG2/wJZc4CIt2v1vtuHouMnbTf3/6j4QMP2c5D1szS0B6x4Mk726gBvCye8SbXkTtNd598th6ZF/9aYdHSW+ji0edqaq9Y7xmbX+PhE2O7yoXXLy0c6CjnyuI1P/zIY4K1zXPo4Kd1d8+mWv/1I+p02fNBboGS9pdrlzzsB2CeOexCDQ+yStZfT318mvTckfrHA0HWJvrog7eDNaB8oocItrmMPQdr/Ls364j6m/D2a3emTu+Qqnwltbj4AnUOtraV3Vs0D/VGCElvpF73DFOsbT9DPf92gsIdYuLqHKOLTiubr9sc1f88tUh5MaVQZy/965a+Jc+HkXGUhj17qdps4jciSpahNmeP1NAgGLJFMvbUNS8/pF6NS3hfVWmt/q88HQ+GFNZALVqEJ6IP8Z7XVQ8MJBgCAAAAoGwkT77+zft6ZrsHQzzBPCPH9IxYb4BkGXvon5lf6psPx+u9t4tL7+iLL0frshY9NOz92PawYocr2vYyx38odeoeqQnPt4VPhvxdp/W9UKcUEewoaX+59sBofbC0tY71h+gqnZ63dVO7pR/qpc0MhgAVAQERbBcZzc/W099O14R7++vYjk21c+3w6KmVVL3eTmp10Enqf+816uHn/UkXj3lPdx7XSrWDRvkqtVvpuKHvafxAf+DTbarlZeM0bshxauWuu0otNT34H3rg3Y80vHvBn64ZR92rD57pr4MbVYsFUNKrqdHB/fXMxJE6PmWkZDO0G6SXnrxSXVrXCs0NEmjSU+f940C12jm8L0O1d26lLv2Ha8IXr+viPVONXFtYxp6DNOH7tzW8f5fE+rx7qufVd9A/hujNe3oGmd5lXfGcnrvh7+pc6PWNnf+gk/pr+NtTNOHmI8ruj/2demj4h5/oZe+8B7Wup+rxQFHonr9/R9fsWz3IT6WWut3zjp7of5AaBRPRp1evp1bHXa/XJpb+eQEAAABAhfD6peqWMC/EG7rw5PA8I9FXrX5jNWlSXNpVsY+13mfLXcPb24P13gnPCyPNHHacrpm8m/peHhoKDaX246zZxQ4NWtL+8qtgWK5Cc5mkcsnD+ndn6YOHbmS4LEQaQ2YBpVBWQ2+hfCp+mC4AAAAAO7qtNmRWeTDzLnWzAEiw6et0a+I8I9vAdhkyq4LKvHgvXZMw6/1u6vvKuAoXwCoPQ2ah7DFkFso7eogAAAAAAADsqNpeqXdsuK5w2sbBEGwamyw/4fWaWvGCIQCwvRAQAQAAAAAAAAAAkUdABAAAAAAAoBhpaWnauJERx7cWe7b2jLcUr1PFUVavOQBsKgIiAAAAAAAAxWjXto2++ebbYAtlzZ6tPeMtxetUcZTVa16tatVgDeUBrwcqAgIiAAAAAAAAxTjuuGP1/IsvBlsoa/Zs7RlvKV6niqOsXvN9991LolNQ+eC9Dv7rAZRzadnrc/i1AQAAAAAAUIyTTjlNPXsep3PPPjvIQVl4/MknNXbsOL36ctkEMnidyr+yfs2P7nGCstevD7awvVjvkHfHvxFsAeUXAREAAAAAAIAS/PTTz7py4CA1b/4XnXHaadpnn72ZA2Ez2fwRNmSS9RKYP/8H3TVsqP70p92DvVuG16l82pqv+Vdff6Orr71R2dnrJV7qbW+jVK1aVd1x283ab999gkyg/CIgAgAAAAAAUEqPPf6Exo17SzNmzmIC781kAQqbP8KGTDrv3HOC3LLF61S+bIvX/Kprr9fXX39Hb5FtyHqF2DBZd952a5ADlH8ERAAAAAAAAAAAQOQxqToAAAAAAAAAAIg8AiIAAAAAAAAAACDyCIgAAAAAAAAAAIDIIyACAAAAAAAAAAAij4AIAAAAAAAAAACIPAIiAAAAAAAAAAAg8giIAAAAAAAAAACAyCMgAgAAAAAAAAAAIo+ACAAAAAAAAAAAiDwCIgAAAAAAAAAAIPIIiAAAAAAAAAAAgMgjIAIAAAAAAAAAACKPgAgAAAAAAAAAAIg8AiIAAAAAAAAAACDyCIgAAAAAAAAAAIDIIyACAAAAAAAAAAAij4AIAAAAAAAAAACIPAIiAAAAAAAAAAAg8giIAAAAAAAAAACAyCMgAgAAAAAAAAAAIo+ACAAAAAAAAAAAiDwCIgAAAAAAAAAAIPIIiAAAAAAAAAAAgMgjIAIAAAAAAAAAACIvbaMnWAcAAAAAAAAAAIgkeogAAAAAAAAAAIDIIyACAAAAAAAAAAAij4AIAAAAAAAAAACIPAIiAAAAAAAAAAAg8giIAAAAAAAAAACAyCMgAgAAAAAAAAAAIo+ACAAAAAAAAAAAiDwCIgAAAAAAAAAAIPIIiAAAAAAAAAAAgMgjIAIAAAAAAAAAACKPgAgAAAAAAAAAAIg8AiIAAAAAAAAAACDyCIgAAAAAAAAAAIDIIyACAAAAAAAAAAAij4AIAAAAAAAAAACIPAIiAAAAAAAAAAAg8giIAAAAAAAAAACAyCMgAgAAAAAAAAAAIo+ACAAAAAAAAAAAiDwCIgAAAAAAAAAAIPIIiAAAAAAAAAAAgMgjIAIAAAAAAAAAACKPgAgAAAAAAAAAAIg8AiIAAAAAAAAAACDyCIgAAAAAAAAAAIDIIyACAAAAAAAAAAAij4AIAAAAAAAAAACIPAIiAAAAAAAAAAAg8giIAAAAAAAAAACAyCMgAgAAAAAAAAAAIo+ACAAAAAAAAAAAiDwCIgAAAAAAAAAAIPIIiAAAAAAAAAAAgMgjIAIAAAAAAAAAACKPgAgAAAAAAAAAAIg8AiIAAAAAAAAAACDyCIgAAAAAAAAAAIDIIyACAAAAAAAAAAAij4AIAAAAAAAAAACIPAIiAAAAAAAAAAAg8giIAAAAAAAAAACAyCMgAgAAAAAAAAAAIo+ACAAAAAAAAAAAiDwCIgAAAAAAAAAAIPLSNnqCdQAAAAA7gqwF+uT1F/TKhM/1xfRftHzlSmXlB/uUoVoNaqvhXw5T195/1d9OPFi7Vw92AQAAAEAFRkAEAAAA2EHk/j5ZD15/sx6c/Ktyg7wSpddTm/73660B+wYZAAAAAFAxMWQWAAAAEHnZ+vq+M3Twkf01fFOCISZ/hWZNXRBslGPW6+XFobror0foojFBHgAAAACEEBABAAAAoiz3Bz1xVmedfN93Wh4fFitd1f90hPoNfkCvTvxI02ZP13yXpn2uT98cpf+cd7Q67JwRlC/vZmrI8d111g2Pa8K0pVof5AIAAABAGAERAAAAILKWafTFp+vmL1YH21J6w6669bVP9O07D2vwuUdqnyYNlDBFSEZtNWx1sM64+l69/snnmvjgudpn14oSGAEAAACAohEQAQAAACIpV1PuOEtXTyoIhtQ+8FpNeP9+nblHbZUuxFFNux89SK/+57hgGwAAAAAqLgIiAAAAQATlfn6rzn/sR7lRsmp3vkUTHj9LzensAQAAAGAHRUAEAAAAiJyfNfK20VocbKl2V9067CQ1IhgCAAAAYAeWttETrAMAAACIgq9v0UGnPx8ERNK13/WT9PI/GvhbZS9bP3/6up4d/bre/3Cefl25UllBt5T06nXVsPkBOv7c/rrk2PaqU2xAJlN9Ww/WxGCry53TNaq3t5K7SBNH3Kj/PP6Z5q3J9Sqtpg6Xv6zXGw9V86smxwqXQrw+AAAAADsseogAAAAAEfPZ6PEFvUOqH63zz9gawZBczX/5Gh174AHqcvb/aWTm15q3rCAYYvKzVurXae9q5MCTtV/XgZqwNNhRWrlTNaTn0ep734exYIjJz9bKVcE6AAAAAGwCAiIAAABApEzVux8tD9alGl1PVPetMlTWPL340OuatSIUAcmopQYNGqvD4YepQ5MGqhU6b/6icbr0zKGaUupYxjKNvvg8jfwhVH9YtbreuRoEqa6qpwf5noxaLr8g1asW7AQAAACwwyIgAgAAAETJym/13a/BuqfdPvsFa1tJej216X2Vnnn7c82a9oW+/Ow9vT5qpF6f+JG+//ZzPX9ZB9UOiub/8JRue3lVsFWC7x7QHZNWe9XvpX4PjtO306Zr/uyv9eVLV+noXTOkHnd45/ooSI/rrMbBcZ7DbnT5BemuHsFOAAAAADssAiIAAABAlPz6m/4IVqX6atWmTrBe9qq3P0OjPpikt+48R4f+ubYKdUTJqK2DLntU/+5cPcjI1+cvvqBQvKZIX4weo8W1O+mOt57X4KP/HMw/Uk0N9j5HN5zbwi8DAAAAAJuCgAgAAAAQJfN/CgUcaqr2VouHtNUV99+gLo1KGo+rjvqccaRqBFua/b2+ClaLsy6rsk4Yep/67BRkAAAAAMAWIiACAAAARElunoqYdWP7adxQ8bhGfp5KNY1I05N1YdeSgi0AAAAAUHoERAAAAIAoyais0Pzi21TWsl/1y5zP9MZLT2jIoMvU/4ye2v/gQ7RHn8e1IChTWvUP7az2wToAAAAAlAUCIgAAAECUNP+TmgSr0m/6YX6wupVkzR6rIef31J57tNceBx+tI47vqwHX36mRme/p7a/ma9mylcrajC4re+y1T7AGAAAAAGWDgAgAAAAQJU0aa9dg1SYxnzV1ZrBexnIXaew/j9SePa/SyMnztSbFOFgZtRqoQZP2OuKQPxXMIVJKlTMYLgsAAABA2SIgAgAAAERJ3f21b9Ng3bPgk8mhSdbLyiq9cfmJuvzNRfH5SjJ2bq/u512l4U++rg8//FyzZk/XrK8/0pcTX9GT13QtmEMEAAAAALYTAiIAAABApLTVkYfWD9Y9M17RkzOC9bLy9XDd+t7qYKO2DrpmjL795BU9dPU5OuGQltqtYW3RvwMAAABAeUNABAAAAIiYg/v00C7BurRQz975qpYGW2Xhs9HjtThYTz/wnxrRt7WqB9sp5efHe5IAAAAAwPZCQAQAAACImn0v0UX7pgcb0rqPb9M/X14WbG25XxctD9akJh33Vt1gvSgrv566FYbtAgAAAIBNQ0AEAAAAiJwGOuff5+kv8ZhIlj66sacueHmRUsx9vnXlTtV9T3wdbGwbebnb/C4BAAAAVAAERAAAAIAoaneFXhrSSbWDTeWv0LvXHaOul76kWVlBXomyNev1W3TSdeOC7ZiMygW9TxZMfk8/BeuFZevroVfpyYXB5laTocqhSUumffdNsAYAAAAABQiIAAAAABG1U+/79MyFLUITnOfql7f/T8fuf4ROvOoBvfvtr1qWFBzJXbVIcz59U8P/7ywdudcBOnbg8/rmj8QeF52O2FfxkMicETrjosJBltxV0/XoOV112hM/SrvsrNA071tBC+3bvmAWk+Wv3qHhP9BLBAAAAECitI2eYB0AAABA5ORq/sv/1Fk3vq/fN3dm885DNH9kr2DDkztVQ3qeoZE/hCpMr6Z6dWvEvnGVv04rV2bHJlKv3UnDhrfQ8L6Pa4Fty9uePUJ9/PWwTPVtPVgTg60ud07XqN7BRml8fYsOOv35+GTv1mukVoPaquKv5+iAa77QQ5tSHwAAAIDIoYcIAAAAEGkZan7K/Zr0wQgN6NQk1FukNNJV/U/ddOug7sF2IKODBj93l05oWDB0lvKztWLZMi2zFARD0usdohtfuU99dooV2ar2HaDbejcs6LmiXK1x17NsjdYHuQAAAAB2XAREAAAAgB1ARqNOGvDou5r65Tg9c8u56r1fczVoUCspQGK9KhqoxX5H6W+XPaBXP/ufpr0zXGe2rhbsD9mpm4a//65evOZ07d+8rqrHIxFeHU3a66/XPK0PP35M5/xl00Iwm6+OjrrzLY0ddq46h6/Heq4031cHNgu2AQAAAOywGDILAAAAAAAAAABEHj1EAAAAAAAAAABA5BEQAQAAAAAAAAAAkUdABAAAAAAAAAAARB4BEQAAAAAAAAAAEHkERAAAAAAAAAAAQOQREAEAAAAAAAAAAJFHQAQAAAAAAAAAAEQeAREAAAAAAAAAABB5BEQAAAAAAAAAAEDkERABAAAAAAAAAACRR0AEAAAAAAAAAABEHgERAAAAAAAAAAAQeQREAAAAAAAAAABA5BEQAQAAAAAAAAAAkUdABAAAAAAAAAAARB4BEQAAAAAAAAAAEHkERAAAAAAAAAAAQOQREAEAAAAAAAAAAJFHQAQAAAAAAAAAAEQeAREAAAAAAAAAABB5BEQAAAAAAAAAAEDkERABAAAAAAAAAACRl7bRE6wDW+Szz78I1gAAAAAAAAAg0cEHHRisAdsHAREAAAAAAAAAABB5DJkFAAAAAAAAAAAij4AIAAAAAAAAAACIPAIiAAAAAAAAAAAg8giIAAAAAAAAAACAyCMgAgAAAAAAAAAAIo+ACAAAAAAAAAAAiDwCIgAAAAAAAAAAIPIIiAAAAAAAAAAAgMgjIAIAAAAAAAAAACKPgAgAAAAAAAAAAIg8AiIAAAAAAAAAACDyCIgAAAAAAAAAAIDIIyACAAAAAAAAAAAij4AIAAAAAAAAAACIPAIiAAAAAAAAAAAg8giIAAAAAAAAAACAyCMgAgAAAAAAAAAAIo+ACAAAAAAAAAAAiDwCIgAAAAAAAAAAIPIIiAAAAAAAAAAAgMgjIAIAAAAAAAAAACKPgAgAAAAAAAAAAIg8AiIAAAAAAAAAACDyCIgAAAAAAAAAAIDIIyACAAAAAAAAAAAij4AIAAAAAAAAAACIPAIiAAAAAAAAAAAg8giIAAAAAAAAAACAyCMgAgAAAAAAAAAAIo+ACAAAAAAAAAAAiDwCIgAAAAAAAAAAIPIIiAAAAAAAAAAAgMgjIAIAAAAAAAAAACKPgAgAAAAAAAAAAIg8AiIAAAAAAAAAACDyCIgAAAAAAAAAAIDIIyACAAAAAAAAAAAij4AIAAAAAAAAAACIPAIiAAAAAAAAAAAg8giIAAAAAAAAAACAyCMgAgAAAAAAAAAAIo+ACAAAAAAAAAAAiDwCIgAAAAAAAAAAIPIIiAAAAAAAAAAAgMgjIAIAAAAAAAAAACKPgAgAAAAAAAAAAIg8AiIAAAAAAAAAACDyCIgAAAAAAAAAAIDIIyACAAAAAAAAAAAij4AIAAAAAAAAAACIPAIiAAAAAAAAAAAg8giIAAAAAAAAAACAyCMgAgAAAAAAAAAAIo+ACAAAAAAAAAAAiDwCIgAAAAAAAAAAIPIIiAAAAAAAAAAAgMgjIAIAAAAAAAAAACKPgAgAAAAAAAAAAIg8AiIAAAAAAAAAACDyCIgAAAAAAAAAAIDIIyACAAAAAAAAAAAij4AIAAAAAAAAAACIPAIiAAAAAAAAAAAg8giIAAAAAAAAAACAyCMgAgAAAAAAAAAAIo+ACAAAAAAAAAAAiDwCIgAAAAAAAAAAIPIIiAAAAAAAAAAAgMgjIAIAAAAAAAAAACKPgAgAAAAAAAAAAIg8AiIAAAAAAAAAACDyCIgAAAAAAAAAAIDIIyACAAAAAAAAAAAij4AIAAAAAAAAAACIPAIiAAAAAAAAAAAg8giIAAAAAAAAAACAyCMgAgAAAAAAAAAAIo+ACAAAAAAAAAAAiDwCIgAAAAAAAAAAIPIIiAAAAAAAAAAAgMgjIAIAAAAAAAAAACKPgAgAAAAAAAAAAIg8AiIAAAAAAAAAACDyCIgAAAAAAAAAAIDIIyACAAAAAAAAAAAij4AIAAAAAAAAAACIPAIiAAAAAAAAAAAg8tI2eoJ1YLtZvHixVq5cqaysrCAHAAAAAKKpevXqqlu3rnbZZZcgZ9vi8xcAYHNs73+/gLJAQATb1fr167VgwQJVrlxZ9erV83+xAgAAAECUWSBixYoVysvLU7NmzVS1atVgz9blPn/VrVtPtWrXVqVKDBoBACi9DRs2aM3q1Vq5csU2/fcLKEsERLBdzZ07V7W9P8QtGAIAAAAAOxILiqxevVotW7YMcrYu+/zVsFFjValSJcgBAGDT5eTkaNHvv22zf7+AssTXQbDdWDdt1zMEAAAAAHY09lnIPhPZZ6Otzc5hPUMIhgAAtpT9W2L/pmyLf7+AskZABNuNjVlLMAQAAADAjsw+E9lno63NzmHDZAEAUBbs35Rt8e8XUNYIiGC7sXFzmTMEAAAAwI7MPhNti8nN7RzMGQIAKCv2b8q2+PcLKGv8NQQAAAAAAAAAACKPgAgAAAAAAAAAAIg8AiIAAAAAAAAAACDyCIgAAAAAAAAAAIDIIyACAAAAAAAAAAAij4AIAAAAAAAAAACIPAIiAAAAAAAAAAAg8giIAAAAAAAAAACAyCMgAgAAAAAAAAAAIo+ACAAAAAAAAAAAiDwCIgAAAAAAAAAAIPIIiAAAAAAAAAAAgMgjIAIAAAAAAAAAACKPgAgAAAAAAAAAAIg8AiIAAAAAAAAAACDyCIgAAAAAAAAAAIDIIyACAAAAAAAAAAAij4AIUG7l6oNru6jDvifpvplBFgAAAADsYGYOO07tOhynoXwuAgAAW4iACCq+mXerW8d91O2/s4KMimCWhvbYR+163K2i/6bPUlZWsAoAAAAA5Uq2Zo+9S5ed2kMH7LOX2nWwtL8O6Ha6rn5phlbnBsUqqNxFH+r+Aaer68H7B/cWS3ueNFLzgjIAAKDiISCCyPpt3E066ahrNC7Yrnjq6Li7J2rq16/qsrZBVqn8rjdvPFOdB00ItgEAAACgDOVO08OnHaVe1zypD+ZnqE2nU3Xp/12kM47aX7vnzNXrN5+uw06+TR8vC8pXMLnT7tKJx1yqByb/ofp7HqO+g27Upad11dGHtlN9ZamCx3oAANihERBBZK2c8T9N/2PtDvjH6kpN/2KG/ljLn+kAAAAAytoyZQ64QPdMkzpc/KS+/PINPTP8Ol1ycn/dOHyEXp30qT64uYtq/viiLvzHvcX0iC+vftOofz+pH2scodvfe1+vPnKbBp19ki654W7d98gLmvTq5dqk76sBAIByhYAIAAAAAAAoldx3b9NNk9eo6d8f0XMX761qQX6BDDXqM1wvXtpG+vEJ3fbiqiC/ovhSX1sUZ5/u6tUglgMAAKKDgAiiJ5hT5K9P/OJtfKRrvPV2li4eG9tvcn/Uq9eeqc4H7O/v63DAMTrp2jH6IaFTRTDPh3dc7o9jdPmJh2tPq2ffo3XWg98p2yuRkL/3Ier+z+Q6tszM//b0ru8yZQbbxs559anH6oB9Y/flX/v93/j7YuVP1yi79Q9viN23ly583d8NAAAAAFtglV595n1lpe+v8y7aQxlBbiq7n3Ohjq6er/+NHesdFXj9UvmTo0/zPo9dcYL23WsvtetxV0Evkuw5enHw6eq8/77+fB0d9j9BFzzxrYqcWnHZp7q/f+/4HCZ7HtxbFzz4qZYGu2Pe0IXevm7DpumH0Vequ193cRO0N9NuO3uL6d/oi5I+2828S928ulN93opNBH9pwme5eJ59Hr3CXff+Ovzsh/RN7ANmKH9f7XvclXr1x6SLcM9w5jJ9POzc4FlZ2ev01iIrG873nknnczX0k8Jjl/lzpHjP7uCgXLt9DtPxV7yW9Hk29bO7dfh56uDl9xn5W1Au7Fvd3MWrr/dD+jnIAQCgPCEgguhp0kP/+vcNuujQet5GS53krd9s6R97x/bnTtfQPifr+nFL1eL0Af6+gb0b6ddxN+mEMx8r/Efbigm69JxHpGOv1A3/7q9uu6zSVw9dpAFPPq9Lz/ivfjvoQi//Bl3aqY5+efcmnXbd5K03TNfPj+m03jfprZV76Jxr7b6u1Nn7V9MPsy0C4t36sXY//XRYfW+jZe/YfXvpnH383QAAAACwBb7R/6blSwf21El1gqyiZHTSEfYR7PvP9VEsJ7BBn3qfqzL3vkuffPedZoy/MjYEVe40DT35NP3fuN9Ur9sFuvn/btS/++6pRY+erwtfTTEZybI3dOHx/fXAd2nq2u9Gv/yFB2frswf769hBkwp9Jsv/7Cad//reuu+jrzVj6jgNKnLcq711yZVHqPaSV9X3yAv1wFeLyvjz3XKNG9BXD6qHrrruRl169M5a9dUInXflU3p6wN90x28H6hIv/+aLj1CdX97T9Wdcrw8KXcAGzbz3fF39TSude811uvr0PVT1l7G68ux79Oqwc3TRuDo61cu/edBpapPztUZd1F8PJ3zQnaV7zr5UI6ZWVue+Xjnv2V16eA399O7/6bQrxxcEsALJz+76i8/U0dWlGRPeVKGQyMTnNWZJug4442/aPcgCAKA8ISCC6KnTTj1O7qNjWtf0NhrpAG/9FEsHN/V3z7z3Ko36sZHOfnasRv3r7/6+c657SmNvPFhVZj6m4RP9YgWmzFTDoZm69yKr50Ld+/KN6lQ9S5OH/Vc/n/ywnrsuVscl9z6q/i2l1RPHJf3BX3bmvfaGZuQ30pl3DdMl/n39XYMeel2f3Hm0v79O+25e3lFqU8PbaLyff12WDmnm7wYAAACALbBKa7K8jxotWxfbOyQmQ812qyfl5ycFFH7Tj7sP0mPntEoYbmvm8EHe57Tq6nTLa8oc0t/7HHOSTrn4P8p89w4dWqiPyCplXv8fTc47RLe++ZruuNgr65W/5J439Nzfd9Pqtx7QqKSW+t9+2l3XjPyHWhce46uQnU68W68P66mGaz/T/Wcfq4OOu1KPl1lgZKqm73qnxt8Tu8dL7nlJt3SqrqzJ/9UdP5+kUc9cq3P8ex+upy5s4X3AnKSxHweHxv2mz1efrMxnY2XPuf5pPe7dtxY+o+tf3V23vDLc+7zo1XH2tXrulm6qnj9LEyYkPpAGh1+tNz54peDZ3fei/tXRO90HY/RO0o0WenYZR+kfvXb2XrRxejUh0JKrd16fpKzqXfX3PiVFzAAA2D4IiGAH86Wey/xF2udvuniPxD/hdzqhu/bx/tD+/qtZQU6gcXedekCobJ1OOtz/NlFHndmvfeiDQDN1OaSRlPWjZqfqOVwGdmm0s9K1WJPejA3Z5VSrVoq/6gEAAACgHNjn8E5JAZVpGjPB+5zW8ixdd2LSxB3VjtL5vRsHG4FVY/XS5CzVP/58nZRQPEMdeh6pxpqlr/8XZDl7H6YuJUdxAhlq1OM/eu+Lt/XwxQer/m/v6c6zj1Wnfs+VwRDJjXX8KfuH7r+Ojjysjb+21xnnq0PoGnfvfIhXOks/zCn8AfOgv56inYJ107azd53esn73cxLmPsnofJj3OVf6cfbsWIavjc67/kz9JeF5NNAh++3mLX/W/HmxnLgUz27fk49XU83ThLELghxP7ni98l6Wdu51lrqV+lkDALBtERDBDuZ3LVruLb65UwcF82vE07436RNv18J5c/yScS3bqkOwGlNHdWrZspbqJH3ppXJ6uvf/a7RqZWy7rNXpc6Uu27OWFjx9jvY/4ERd8N9xmr66bL6nBAAAAADFy/A+80i/zZ1dit4SuVrwywqpek3vE1RYY7Vqk9xaPl8//CbV3/uAlMMsVU5Parr49Xf94S2Wv3JebP6LcDrtGX8Yp/mzE7/oVrpeLUkyGqrTxQ/qvU/f1P2n/1lrP71DJ5zx6BbOjdFS7fYIVgN1atf2l7VqJ33A9D5f2ifM1SuTB7HaTW3bJ91N7VqyMRJq1orVFZdRWZW9RdbapDqyF+qzl+/S1QP666RuXXTYYQfpZH8ezsJSPru2p6hXS2nu6y/H54BZNXqMPs7fTSeeHAxXDQBAOURABDukOgedG59fo1Byc42URxntdeGz7+jTl67Tqe2lL5++Ticd0U2XvJ5iTF0AAAAAKFN7ac9W3uLbjzWxpIhI7mR9+K2UfsDhOjzIiqlk7fwpVatePVgrneY9r/Xnv0iV/nVcYq+S9HQLC2ymak111PUv+sNx5c98tPAwyxVM7rR71fOQ43Xuba9q6vLqatLpdF3xz6t0xVFJPXECqZ9dM/3jjP2VvvBNvfSNba9S5tgvld/yBJ1W5PwsAABsfwREsIOpo1re39ircnZR92B+jUIpmGuk/MpQ7XYn68YnX9fnE+5T70Yr9f6N/1YmHUUAAAAAbFWNdcYp+ys96x3dede0YnuJ/PzEw3o3q7qO7tOjFD0zYp/Tfpv6XaEJvc2qNWuDtUDdOrJ+EMurtfA+w8XmwEhOPdqX9RwWGerQ/QjtoiytSbrIn3+YH6w5uZo1//dgvbzJ1bgHntC8yofo1vc+1ptP3a37bojNZ3Jwk6BIKdXpY5OrL9E7b37rPYRn9dI3TKYOACj/CIgg4hYkjX96iHoc4f2l/c2zenBaxYsg5GZnJ3zoyGh4uP7WtZGUv1i/LwkynQU/KHnoVwAAAADYEnVOu0rn/TldC5++QOc9MSdhbsOYbM1+4kKddv8s1eh0nW44ujQDVR2qTgeke5/Tnin0OS130VMa/tqKYCvQuLu6tpSWv/moXi3zzvLj9Z9BY7Wg0I3lauqED7VYO2u3ZkFWk0ba1Vss+PIzLY3lxCx7WS99nB9slDfeZ+SfvWur10JtwvOv5H6pl97axMkwMzrpeO/z9ZIJr+vpl97QXCZTBwBUAAREEFktWv1F6fpJz986XC+/8rQGDZ/g5Wao23XXqlOtX/Tk37qp17UPe/tG++mBWy/WSV0GKjN2+Laxbo7eDs4fTuOnp/pelDTvgdN10PGXauhTQdmHBmrAC78rfZ9eOjneu7m5Wjf3Pkz8+JJuutsr89S1uvutYBcAAAAAbJE2+udTD+iMFuv1v2En68DOp+v8a+7SE95nrqHX9NdJnQ9Xr2GfKb/tZRo1/ISEib+LlqFel5+jP6d7n9POPE59hz3tfd55VU8Mu1g9jn9FtQ5MHsqpmS78z9n6c86nuv6oHrogKG+f+4Zec466n3RvfF6LTZern9+6TscccpiO/8c/dfODdh3X6vy/Hq3Tn/5FtTtdoUtslnJTp6f+dmQt5X8zTD3/dpv3DLxrePA69Tz+MWnP1MNPbX/N1fngnaXfntel59vr5l3zk7fp9CP/pak7b+o1e5+v/36idl4+Qfe9+guTqQMAKgQCIoisjBNv0t0nNFPeN0/oxpvu06ergsnlGvTU/WPu0yWHNNCv40d4+27RjbcO1dOTV6jluf9IGt92K1v+qR6y8yel/xbxzZwm+x2qv+R+q6eHxsrd8tQ0NT7pDr3x2BmhDxreh4lb79CJu+fp61FeuXu+kLt1AAAAANhiDQ7RjZkfKfPGU7VnnV/19VtP6o7/G6ZRE6bo9zoHqu/tr2jyi+erw6Y0jre9XK9n/p9ObLNR3z49TDf+3xA9MEn6671P6J9tCjddZOxxpV575Qad2CpPX/rlb9aN/xmhMdNq6OgLTlSLoNym66GbnvyXzui4i5ZOn6TnH7xZdzz9nqbm/UWn3ujd14PhIE8dHXfXs7r16N2VN/1F7xncrFte/FWd//uybtir/Da37Hv1Y/41r/3KXjfvmkd9r/bXv6SbD96Ma97n7zqt5RqtXr2zuh3PZOoAgPIvbaMnWAe2qSlTpqh169bBFgAAAADsmGbPnq2OHTsGW1uH//mrDbNdo6wt0P29e+oB9deEMRcxfwiwg5k9a+ZW//cLKGv0EAEAAAAAAMCm++ZpvTiXydQBABUHAREAAAAAAABsoly98/TrWsJk6gCACoSACAAAAAAAAEpn5hO6+a5X9cAVJ+hfb0uHDr6WydQBABUGAREAAAAAAACUTsYqfTrqZt0/KUd7DnhMI/o0CHYAAFD+ERABAAAAAABA6bS4XG9N/U4zvnlfz/TbQ3QOAQBUJAREAAAAAAAAAABA5BEQAQAAAAAAAAAAkUdABAAAAAAAAAAARB4BEQAAAAAAAAAAEHkERAAAAAAAAAAAQOQREAEAAAAAAAAAAJFHQAQAAAAAAAAAAEQeAREAAAAAAAAAABB5BEQAAAAAAAAAAEDkERABAAAAAAAAAACRR0AEAAAAAAAAAABEHgERAAAAAAAAAAAQeQREAAAAAAAAAABA5KVt9ATrwDY1ZcoU5eTkBFsAAAAAsGOqUqWKOnbsGGxtHf7nr9y8YAsAgC1XJaPyVv/3CyhrBESw3dgf5PzSBAAAALCj2xafjfj8BQAoa/zbgoqIIbMAAAAAAAAAAEDkERABAAAAAAAAAACRR0AEAAAAAAAAAABEHgERAAAAAAAAAAAQeQREAAAAAAAAAABA5BEQAQAAAAAAAAAAkUdABAAAAAAAAAAARB4BEQAAAAAAAAAAEHkERAAAAAAAAAAAQOQREAEAAAAAAAAAAJFHQAQAAAAAAAAAAEQeAREAAAAAAAAAABB5BEQAAAAAAAAAAEDkERABAAAAAAAAAACRR0AEAAAAAAAAAABEHgERAAAAAAAAAAAQeQREAAAAAAAAAABA5BEQAQAAAAAAAAAAkUdABAAAAAAAAAAARB4BEQAAAAAAAAAAEHkERAAAAAAAAAAAQOQREAEAAAAAAAAAAJFHQAQAAAAAAAAAAEQeAREAAAAA0TZjqDq37q/RwSYAAACAHRMBEQAAAADRNKa/mrdur+a9HteCIAsAAADAjouACAAAAIAIylTfqyary53TNf/OTkEeAAAAgB0ZAREAAAAAEdRLo2ZP16jewSYAAACAHR4BEQAAAAAAAAAAEHkERAAAAAAAAAAAQOQREAEAAAAABHI1f9wTemzyD94aAAAAEC1pGz3BOrBNTZkyRR07dgy2omCj7KcpzftvY5q34v1vw4YNSk9PV35+vr79fppmzpmnhb8s0u+L/tDylauUlb1eOetztWGjV65SJVWrWlXVq1dTvbq19afdd9Oee7TRPnt1UN06dfwzWD3p6RbHTPO37cc3LS22DgAAgCKM6a/mV0nDZo9QnyALRclU39aDNVGdeF7b0Lb4bFShP3/NGKrOvd5Rj8y3NbhdkAcAETH9jmM0rM3bFXLes+i17WFHQA8RoAxYYMIPhqTFgiEb8jd4uWl+MGT82+/r2D5n68zzr9S1/3eX7n/kGb36+jv6YPIX+uJ/3+ub76bruymz9NW30/XxZ1/r7fc/1guvjNOQYSP0N++Yo3r+TQOvvVVz5s3368vLyw/OFwuG+OsWfQEAAACArcwa7pq3bp+Yug7V9GD/jmZ0vyLu34I4rftrdLApzdSQrl7ZfpnBNgDEfi/0fGyhJl4V+33ad0ywK4n/u7eE3x/2+6jzHTODrTD7skPw+9oSv4ewgyMgApSFtDT7nx+ciPXiSFf2+mzddNvdOveiazR1xnxVSktX/fr11LRJY+3ebDft3rSx/vynpv76bk0aqnHDXbTzzvW1U4O62mmnuqpbr47SK1XW3PkL9N97H9OBXXrr9TfHq3Llyn7PEztX/NzEQwAAAABsK03P1djZ0zXfT6PVT4+rZwULiviNi1t6zWP6a+CkThr2/iC1D7L8HmnW4NjrcS0IsmLaavD7Q9Rl0uAiGzwB7EgsGNJH47uP1tjzmqrLnd7v08xz1SrY6/hBV+93igVNUguCrV6ZgZOCrASxnp/zzhsd/M6O/R5KHTgBdgwERIAtEotEpPk9NrytDRtVOb2y5v/4k04/51L99/7H9bcz/qrnHrtLT464Qy8+PlwvPTlcrz59v8Y8P0KvPfeQXn/hYY19aaTefOVRvfXqKL358mPKfOERvfzU/Xr8odt15y1X6+or+6vzoQdpwFW36r/DR/gBl0qVKvmBEf/cQU8RAAAAANi22mrwA+eq2cJ3lDkjyNpBjH5zspqdd0VoaLlM9b1qcqxh885OQV5YLw08r6km3rvj9qgBEJjxhsYv7KQBV7cNMjztBmlweNgsF3SdPV3DOgd5SabfcblGyoLUo9WvaZAZMv2OBzSx6bl6KH6eXhrl/X5a8Ng9oR5swI6FgAiwRdyQVbH5QtIqpemz/32tHn89W59+8Y025Odrp3q11eWIg3Xg/nurTevmata0iRruurN2alBf9erWUb16dVS/Xl1/e9dddtZuTRrpL39qpo7t2+ioLofrgnPP0O03X60xL45U27YtdNPt92vAoH9r9Zo1saCIH4mx4bNiVwQAAIAkvUdoPvNhAFtPu9ZqoYWaMyu26X+juV9m/JvNBd9ELvgms0upekskDst1jIYE9Toph47xh6jyyiYEZVKdr2CIGi18XD0tP95TJLl8cn1hmRo7qal6nBhqzLSGxtnTi50HoP2J3XbI4BGAVOZrVnG/C0rx90v7q9/W/HAvtQQzlTlhoZp1PyFxf5sWalbSuYEIIyACbJFgHg9vzQISlm654179vmipdqrfQFWqVNHU6bOVn79Bubm5/nBa+Rs2+METC2T4wZQgbdhgKdgXJCvvjlu6bLl+/W2RmuzWRC+Mfktnnf9PrV6zNnYVfh1ERAAAiJSV43TBfuGGuZLTXheN08rgcKAkK9+8VHsVeh/ZhOpmsgYW2neQLnhzlb8XSDBjtuapqVq1CbbNpMEae3xsWK1J/jeTbdiWPhrZYkgwbEtseJh5VyWOeW/Bjp6PNfe/ER0rd4nmXJU8/FRppDif32vDhq6a7g9REx/6K2hMHN0vsfzY85r7NaU05i1NbNpNvTZ1kvek4BGAHVS7E9Sj6UKN7HWMhs0N8srcLM1ZKLVoEw7cevg9hB0cARGglCzo4JYF67FtG7bKemusX5+jJUtXqHatmsrOzlbVqlU0d/5PysvL9ef+sOBJpUo234i39JItXbJ8q6Ngv7eeXinYV0nTZ8zR8hVrVDk9XQ133UWfffGNvvluir/Pvyb7z5ZBAgAAAICtL1N9bb6MzpdocDg40PRcDQz1lHDDtowd2SvI8bQbpIfOa6oFE94IemhkathjC9XlzvA3ontpVOa5ahZslVbK8/UeUUzvjZmaNU9q1rIgqtP+6hGJ9xQyfdZ8qUXrIr6VXZw2atVUmjeL8fuBHZsLzkoTJ9mk6v0ZwgrYRgiIoEILBwA2NaXqkRFOyeXd+ew467GRl5cXLL0ULG2/ze9hZSxQUbNmDf244Fd9/NmXfp05ObnakL8hXpdLVr5g29/tr1vPEksWFBnz5tvxem27SkYVrV2b5V+Hfy3B9fjHeOey9YI6Y8l6pSTfZ3IKl/WXoefkridVeUsAAKAM1T1Oj3wVfKu5lOm7h45T3eBwoCR1j79f3xV6Hw1RF39vbMzyxH2f65Hj6/h7sYNzQ035KZisNxx4MEnBgplzUwzb4okNITVPfnjA72nSST2LGXKqtIo6X9HaavDlNq5+H++etmbDZFsbrQYAfDbklfVYa9Z0vt8zk8nOga2PgAgqNAsMBGv++qakgh4ZqVO4bPgc6emV/N4eLmVkWMrw16tVq6ajjzzUH+aqWvXqQZkMPfL4C36gpFq1qv4yXLcl1yskIXl51hvEepn89vsivf3+x6pXr64feLD96ZXTtXuz3fxzVK1aNX4Nlb18O86dx4IW3oq/br1SUt1rOLnzux4s4edk924pVXlLAAAAAHYAbqipIMWGxIoAf7x++8Z2rGFy6wZGAKBAi8tjgZGyney8iB5pqYY5BHYgBERQobnggLXF5+TkxBr/FevBYcltWw+K9d7+devWac2atVqxcpUWL1mq3xct1i+//a4FC3/RzwsWeukX/ept274VK1dqXdY6vx53DqvLhql68OEndL+X7nngUd1z/0jdP+IJPfbUC3pk1DNasWKVd75crV692k8bvWv4+NMvdcvt9+iuex/WZ1985ffm2LAh36/PJkdfumyZ1q9fH1yv2egHVSZO/kTDHxipAYNu8q85z7sHK7d27Vr/+Keee1X3PviYHnr0aT3+9It69qXX9PJrb+qNce9o0oefatWq1bHAiFej3fuy5Sv0x+Il/n3/+vsiLfzlV//eLfn37e1bvmKlf+9W1taXLF2mH39eoGnTZ+rb76bq2++napr3j+eMmXP0w48/aaU9J69uGy4MAAAAAFJp2zI8NFaB6a+/owVNW6ggpDJZY5MnWp81r/AcIvNmJ9aVVKao85WGP0mx31sqxbVssdjQXACQzO8xF6yXjViPtAVzkyYLsd+XmzMHEhARaRsZ5wbbyZQpU9SxY8dga/PYsE7r1q7ThVdcr59+/kU1a1TzgyQWxJD3zrb91tMhJzdX63NylZuTo7S0SsrfuEHrs2MBCEtueCmTVqmS38PCen5Uq1pFNapXV81aNf0yFqSYM/cHLV663O+NEeb3kPDqyKhSxZ9DxLZdgMPWV6xY6QcNGjfcRbvt1sjvaZHm/WeBDqu7bt26fu8Ou3C7Fis7b/5Pyvauu2aNGn5PEVefu1abVD3fhury/osFWGKBG5t/xIIu++3TQW1at9CPPy3U8pV2/lx/aC93vxttqC57UN5BGd792D1bjxbbZ+ey685Zv17rsrOVl5vn51fynk2VKhn+87V7qF27lqpkZOiBu27WwQfu618XAAAAKiqbiNomVrchs8LzOGBrKovPRiUpq3P4k55P6KaxwUTkqYzu114DNSRpGK3gvdU5lD9jqDr3elwt7pwen9vDP3ZS+P3n3pNN1S/z7dicHoWOS1Em1fnG9FdfBfOIeOvNr1LoPDM1pN8b6jXS3VfseIWuLYEdf2+Lop9DofqdEuoFsGPwfo/1ff0Ejbq6rf97dVibt9XzTe/337xzU/5eSf17Ncz7Hda1j8Z3H53Ya6+I35dl9TtoW/z7BZQ1eoigQrNgx/RZc/TB5M+0dNlKzf1hoWbO/kE//PSrt75As+f+qJle+mnBb/pt0WItWrxMfyxZpmXLVmjtuixlZa/X+tw8bdgobUyr5CebM8OCEKtWr/PKL9fcHxfom++ma8q02Zo550dVSs/Qbo0baddddvZTw113VqOGu/oTnTf0lvXq1vEDCZbCQ0vt4pVt1qyJLKQxz6tzzryfNXveT1riXfeKVWv188Lf9MPPv2ju/AX+eeb9uFBVq1XTTvXr+XOR2JBYNiRXODXygyuN1XS3Jt41NVbjRg3VpJF3bd61NPKucbZ3jhdefVNfede/YOEi/xmt8e7bgkM5ufnK8wMiabL4yvqcPK3LytGateu855Ljl7Hns85btyBJ7Tp1VLdePdXxljVq1FS1GjW8Z1FZq9dm6ffFi5Wfnxd7UQAAAACgkF4aZb0uJg0O5h7xUq931CMzsVGuz8jpGtZ5cjBklaW31DN5UvVgMvaJVxVTJtX5rlLB/CS9r1C/psF5ug6N9SSZlzg3SrENhm1aqNnCd5Q5I9guLYaqAWDanaBWE2zOovbq+ZhNqh4EPIoJNm8W7/flJO/347z470sCsgA9RLDdlEUU2d6+Q4c/rPsfeVY779TAHzbLekZYMMJ6c9jk4umVKvk9IFyvB+vZ4fcgCVhZv+eDV86tO7Zt0QKXY/vs2OSeGuFjjNv2jw+W4ZSK2xcLoFjvktiwWW7ydqszVR3uul1KLGclYj1VXI+P5GTsmPA92DBb7rnZ+VMd5+q03ii1a1XTU48M0x7t6W8ZLe6bdlKXUv/BVHBMs/Ni30zxv0Xo/YEXm5yVb5puqti3JL0VG6u7pG9ilqJc2Sj8OmMLBd/csqE+Sv/ztpVsy2vxvz072Vvh9wNQfuRq/rhn9UGtzvpHp78oI8jF1lWReojAKeLb2CUoTQ8bADsW10OkIgYp+LcFFRE9RFChWcP8b4uWqFbNWv5wT9aoX6VqVVXOyPCXNtm4rbsJxv2G/qRkAQULkth+V6fjBwmC7XDgIRa0KEhWT/i4MJdvdVlgwwVU3LoFHCzw4ZIFdXKt14oFG7y67dqqVKni9xCxbVefLW2fuwfbdkENW1qyoIotXT1W1pauvNu2+qtXrx6fnN325YWu1bbtmDDLt6HFVq1Zo06HH0gwpCKyRs/4N+ASU18bK3nMW36Dtyk0CRtKZg29KZ5t89bHaMimfpMwKhLec4UnKbUPAkXtK2sWQLJz+e/14hT5OpbiWJT4czD6TQuGmPmataP+XADlToaaH3eOziMYApSgrQZf3mkTJ0DO1LDHFqrL5QRDAADYXgiIoMLbZ689VCndAhWxRn4XSHCN+OF1kxw0cMmOc/uMHRNObr/V44IQrm5LFliwYIILOJhw/VbGBU5ceZdcvmPnsuSOcXW7ZIELS+Hj3LWHr8mtu3x3LleP25/qGo3Ld+vuuixQYtvpXn3ek1KHPdr4+YiY3seqS7Daog09AFDWJmtgv8xgfRsKGuj93jRbyLq1d76DYOGW6HN8p2CtudrE4+rWA6kgaAIAQLnVe0RseC835FaxrEdJbE4ThqoBENb+6orZOwSoqAiIoMLbqUFdbcjL9Sf9do3yrsHeBQWskT+8dI38YS44EF4PJxdIcEGF5MCBCxYYdy6Xigt6uOu0FL4G43qRuJ4almzd9Sqxpct3dRh3flu6ddtn53LJcdtWl/VO8Ycd885hwtfkUrgOO29uXo5Wrlzt70PFZcPizJ9dkGJ/jNm4y+FtbB6b3DP8fN1En9Ckwdu0l4XfA8UfnmlzhF7H0BjlC+bOCtZQvCJ+DnqPCLZDw2WFeqcBAFDe2ZwnpRvzv60Gv++VLXJCZAAAsC0QEEGFF2uIjzXGW8DCJht3AYhwQMCSC2i4IahcmXCDv2vYt6U73o4Jl3N1Wj2phrMy7tgwd2y4nLHggsuzpdXtluFrtKXbdinM7XfXGy7r6neBDBdccevGnc/ux+4rVT3u+fnDkVX28r3/pk2f7R+PiAkNbxRvtE41/E2pvhEX5r79bd+uz9SQrrF1/xwph/FywyfZt+qCvIRzhutz39YvyIulxG+au+GS/HoSzrmtv5EeuieXSv0Nw9AxRfS0KBiCyiV3fynO66XCwYkU5Yrq1RF+b5Si50ezpk395cR7S3G/Kd53mx9I6aRhhSZd3USz5vnza5guxweNGsW+d0MK3UvR77nw6+e/t5N+JuPvY0vh901pr6XQz0nRPV4KXUsZSR4mzb+neNBqoUb2KtiX6npL814DAAAAAMAhIIIKzRr3c3LytNEa+73/uYZ717BvjffJeS7Q4Br4w4ECx/JccuWsLhcgCB9rdVmAwObgqFGjRsI8HI7V7Xp1uB4fLhiRfF7j8l2wwtbD1xJOdn4X6HH35coaV6crb9suz7iydqxLbr/bZ8LHumu2OUpqVK+mrOz18WMQbdNnzQ/WQhY+rp6bHBSJWfDYYI20+dadUENzgcka6DeIxsZp9i18R5muETn+bfKm6nFi26AxODbhdwFrWE3V8PyOLgomj47xyl2yefeyyfzr7JN4/8aeZ8rGa8eCFEnHTRpcaAgoa2iOTWafyizNSbHLhoAqCDRY43OK60vJK+sasTsPKdU3H1tcfq/6WUzEu9+LimlgT2wgL7A5w1VZV/SEngibxDXOu+uxScBDvaeKfe/G+I3/pe2h4r0/Lgpev1QT18+795jE19zeNy44UIprSf1zUoQSrmXbsPdjKa8XAAAAAIAiEBBBBZemH35cqNzc2BBZbggpW7fkGvjDjfouqGH5Fkiw5MqFucZ/x44JJxcgccnVYfVZLxU3SbnrQRIuY8nqcMEFF/iw5CQHGFwQwti67Xfnc3WHj3FlwudJFr4fY2Vccs/R5bvzuaWxoE4lb33R4iXKzs7281AxWeNywbeui26MjzUouyFvvHRnigDFJok1KltdfsNyfPicIMW/yT9ZY62hPj6vyULNCUYqik/K3LSberXztu8KAhxNz9XYoJ5hnS1joca/ntSAvnChWgTDhcXKWN7m3ktRQg3ploLgUfw6Q88gfL/Di2rsH3NPPEhhjdOxZzUkPt+LM3NuUCj0HAqG6yoYDi2WRseCE56Jb8Ya1Uf3c43P4aGOvHIt/cwEBWW9eyn1MBBtNfiB2P0ueOzy1L0kZgzV8KDRv+BeC16rTZvEtKxZgCEUZCvpvRsKKvhBI1fuzm6xvAQzNeSSgvfxQykCEAvULen97Zn0Vux5lHQt4frD7z/vfdTDzwsr+VpKJ/XPQTJ/2BH3eyX+3huhPjNma16QmzDEH8OOAAAAAAA2AQERVGjW/j93/o/KyEj3e1+EG/JdEMA16rtt16AfDlC4dVu6AII7xrh6w8nywsGEZFafBUNcQMQt3TG27SZHtwCK27al2w4n1/PE7XeBELvGcHL1u2TcM7BlckruqZJ8z8aWFmyysu44uz8rW7VaVf3y6x+aOds1VSHS/G+Vhxo1S/tt96J0Pjbp2/pJQ+Ik9N4wvdQzaPyNNdzPtC/D+7pcbmM3F2zHelrE6nHfpC8030PTczUw+IZ/weTORQsPG+SnzewZE77uhGfQ7gT1CAITRc1NUdBLp5MGxBunC56LE7+f+HNI7CGTMNxSoZ4g4eu7JDTnSVsNvjqpAXrC5cHztcbrTex90W6QBvjXHeuZUygEFO/pEPT+CRS8VvM1q0yDV8UJB4ZcACrco6iE927oXvpdGXqGvQcVmlNm3r2XB69HJw0rYkzy2Ps9pvDzKOnnqKCHULPzrgi9Zr281zcx4FGaa9kmQj8b8QAuw2UBAAAAADYRARFUaJM++kwffvKlqler5jfWWwO9CxI4LoAR3pecLHBgS+O2TThQ4AIBtt+WLpDgyrhyjqvH5tmoklFZVatkqGbNGqpdq6ZqecuaNbzkLWv52y6vuj8ElZW1YzK8VMVbr1a1ijK8a3cBG5fceSw4YdvhoI4ld11uO5zc/YZZXsF12/ljvWds6QIwJvw88/PytG7NOv284Bd/HyqmxEnVi2rUzlTfeMNq8K3y+De5N0+zlm2CNWNDQSX1Skgx10O88de+DT/jDY0PGmt7+oGN1ENBxc2bvW2Gw0oQbkj3kt+oXMJ1FiPe86Mk1ksg4fnFvqFvw0xZYMcFiWI9Lwp6iMSU/vrs/RA7R4oeOKXQZ2QQXFj4uAYmDfGVcoi2ciEUgFo4z3vnlvze3bx7cT06NkUpfo5CvS1Kb3OuJSzVz8GmiE1EG+8NYyYNVnE92gAAAAAASEZABBVadla22rTcXStWrPC20vxeFOEGfNfw74IExgUJLNk+K2/Jel64Rv9wfjiA4NZdvtURFi5j6xY4WJ2VqzXZeVq7Pl+r1+X425ZWrl2vFauzE/JWeeuWVmflaV3OBmV5aZ0dZ9vespJXp1dxoXO5bePuK3x/rpylVPdk7FotyON6griAj78vtG7PyOrw69dGLfrtVx1y8N7qfnTS19MRPfFGVAuGxIImZdtg7RrhreE0GNop/q36kPiwWfM19q53YvvjvSzaqJVr2E8YKmpzG2ETFRoybLPrCzWou2GOTDzAkxwsKtC2pbvBUAN1aGipBO0GaZJ/rQUBD+t54oIqBfNBJAdAwtf3QKhnyUwNuSPxW/nNut+rh86LVb7gsT6bMdl5L40qIrDW/sRuKYMt8WHS1Fxt/N4VFgSI9RrY/MnWN0WmxiY875Lfu+F7GXlX6BmOGVpouLAWl78db/ifeFXqSdfd0Gb+vd8bfh6l+DkK90RKGHYs03t9E4NapbmWbckfUsve0/H3zLbsJQQAAAAAqOgIiKBC696ti67910WqXtl6bOT5jfuu4T65wT85MOACCK6MLa2x3w1RZeVdCtdjwnVYYMAFRtzS+EEF71qO3Xtn9ehYV9061tPx++yk4/ZuoOO91HOf+jpur7o6pn0tL9VU9z1q69iOdfy84/aso2M71PHzuu9RV332q6uuHepr9bosaYOdr6BnSvgawvcVXje2Ht5nyd2fBYEsuXVbujKWvAPjx9p5C+raqHVZ2WpQv54fjMKOwuZOiDU+Fz1p95YIzTWQckgu11i/UBMnxc7f5Xg3BFF44vWCIbNiqXx9k7zPle5b+wXPs2Boo/BwWInaX31JfL6Q+NBBhYZEKnpIrIJnFQtgxPa7HgUFCq4v9HpYPXP9zATtrw4mSPdMvGoznnPvEYnf/HfiQ2qFr7VgCLT4cE+hQFJBoKCshZ9DwfNKHHKqmPdu6F5iPRtcuXeCzETxnjNWZ6qJ/uN1FLy2pb6W8M9J+P3n3df4IDesqGuJv8fKeuiqNi2S3nvee6qo4fqCuYMAAAAAACgNAiKo0Kw3w54d99Bbmc+qdq0afmO9NeZbcMAFDFyjv2vstwZ+16DvGvmtnHE9I4ztc/muXLiucEAhuS4LWFg9tjy8ZQ212Vk6uk11dWlVRT061tIJe9fxgx6996uvPgfspJ771Pbya+i4DjXVvW0NHdWqqrq2rqqjWlfRUW2rao9d03RIq5pav369vDvz6o2dx+6xpOt11+mu0Q9weNx2ON8tXTJWZ3jdyrhlpfQMVa7iXWPnQ+LnRoRZb4PwN/mtB8YWDpmVqJdGJQzt00nDUgyZZRLm+wjNA+IrNFRUOeX33ig8GXpswu3i5uKwCdETj7OeHikDCklsaDSbvL7PyMQhsrrcmTxklqeI60vdc6VggnS/gX0z5lYpaHRPZD0CxgY9UArEhl+K9W7xhHo8hAM+W5s9z9g1lO69m/peXC+XZKGeMxbcSwo6dLmz8HtgU66lqJ+TFm1SBeJSXUto/p6yfubee8/1OiqW/Q7anvOaAAAAAAAqnLSNtGJiO5kyZYo6duwYbG2e/HwLgFTS0mXLdcKp/ZSXb0M6VfaDBBYsMa5x397q1gMkFqgomCS9KFbGGv1dYMXWw9vG5RnLs+QCFHZtldOly3o01srla7VviwbK3ZCjnNyNys7fqHq1qmrZijXKWp+vypXSVCU9TVVt3pDK3rJKZe/68/35OeTtm/PLOlWtXVv/eWWuatWs7tVb2U4eP2dY+NrCyzB3H+Frt/Xk+sL77RmG792e5arVq9Xyz0301mtPx4MviBD7RnbQ88A1pAPYjsrVz6RN3G49ZUJDcwEANltZfDYqybY4BwBgx8K/LaiIaL1EheYa8S0IUrt2bb9B3jXiu3VL1pBvyQVJLM/2h8tYCnON++Eydi5XLrxtKVyfCxykZ1RStWrVlJGepjxtVOX0DP2xfJ1+XrRSq1bnaH3ORq1dl6MqGelavjpXeRulxSuztHDJWu8Elbzy6aqUHpvTpLJXx8aNFsyxiyq41uR7cNdhbDsVF9RwXDk7zgU2wse6Om2fBULcBO/rs7N05qm944EmREx83oGmapV6OgsAOyo3pxBDVgEAAAAAKhACIqjQ0tJiDfu1atZU/bp14o3yLjDghsiyhnyXjAUELLmGftf4n7x0gQN3nMt3x1iyMhYAMbZt+4wFXzbkb/SWlvL8Cchtf55XttHOddSwfnXt3rCe9mvbyM+b9ctK1atZTU12qamqGZX006I1SrP5PCrFzuFV4N1PcE9pBT+67hodd13ha7R1V86Wliw/zLbD++LJ2+eendXj1+VlWg+YatVrqPmfd09ZHyowN1Y/Y/QDKIo/pNp0zWfIKgAAAABABUJABBXaRsV6Y1gjfZPGuyg3NycIXsQa9l3PEAuU2NIa7V2jviW/jiAI4Mq7hv3kRn63bstwMuFzWZ4FLSyUkJ9ngZI075qst0dsGKzddq6jtWuytWDpam1M26ApPyzTwj/W6MC2uyjf+y87xyuzU01vmaPV2TZRfOyclTbEzufOZcLnN26/KxNet/v16wmW4ZTMjrFy/rP09vvBnaA+/x7tP+8wm3y+fv16RdaDCGCMfgAAAAAAAEQEARFUaNYE7xr9Dz9kf7/h3tZtT3KDvy1do76JN+6HGvJdkCR8nCvnjjO2bsnK2DEWAHG9KCzZkTZc1sYNG5VjQRG/qnxt2LhB1aqk6c+Namnd2hx9P2+x1mTlaP/WjbRr/WpesY2qWa2qlqxcr0rplVQjw87l3413rAU7Yuf2Vzzu/C7IEb5Gl+fKuHVLrueMyw+vx+/BW3f12bo9g3Aydn8WuIltxBaIAPfNb779DZQvoZ9N5vQBAAAAAGDTERBBBRfryZCWJh3V5VA1ariL1q/P8eMPyQELx/JcsjJuknXbDu+348Lb4eSCB5ac8HbsWK9+b7tW1TTl5eQq3ztH5coZSk+vrDXrcrV6XbaqpqepeePaWumtL1mRpaXL1+mn35dr+ZpstW5aVxkZ6crL2+BPsl6jRlXl5G6wvi9KSzp/eN2kCoyEuYCGO87da/iek5cuWd2ufpv0fe3atf66XRcAAAAAAAAAlFcERFChWcDBb7TfmKbatWp6qUZB74UgyGGN/JZcrwfH8ixQ4npLuLxwGVt3ydXjkuXZudxwXC75x3n7q1aporz8jfrm52zttEsDLVqWpTVrs7QuK0c1q2eozZ93UpOdaygnN1/r1+f69dhc6Q1qVVVTy1+fr1Vr87Vs7QZVrpqhyTOXqnJGFaXbue0/7/zhwEdyEMS4MnZdtnTr4X2OO8ax/alS/P79a/Cesfs14u0DAAAAAAAAgPKKgAgqtLSgkd/+i/X08PJsEnJvnzX85+bmxofRsuSCF27bNfKHh4hy5cJlTfiYcFDBBRJcWbe0OuvUrqnX//eHHv9kpd6fu1FfLdigWX/kaOGyPC1dmavc/HRlVK6iGjWq+6lSlSpanVNFPy7fqNnL0/WFV37CzBw99MFSvfv9Cu1Ut47fw8S/x+B6wil8PbZt1+Luxd1PmJV3ydVhZdw9WHLcuitr15DvZWWtX+/ne5mxJQAAAIAd14yh6tz6GA2ZEWyn4pdpr75jgu2yNKa/mpd0fgCoUDLVt+tQTQ+2AGwZAiKo4Aoa9C0AYfNubMhPDEw4riHfBQbcfss3fq+H0LoJB1NcXeFjjJV1yYTLWapfu7rWrNugT2at1KtfLdezn63W81+u1avf5ejlb9bpVS+9/PU6vfTVOi8/S8/+b7We/Xy1nvl4qV793xJ96h2XnZfm1+PVWOg8Jrxu92fX7e7RuOuz63bX7vbZtrtWV0943fa7c5pwmTzvWa9atToo72cDAAAAiLjpdxyj5q3bhxIBCADYKvwg72BNXPi4etrv26TASKHfx/0ygz1hmepbYhlgx0FABBWaDZnlLzdaj4VK/pwb1i5fuXJ6wrwhrhHfuN4S/jFBgCAcMEgWPjZZ+FgLyLhzWv3Gjs3z1r3dql29smpUSff2bdBvS9dpxoJV+mb+Kn0xb7W+mLtKX81fq+kLs/TT4iwtXbXeDzbUyKikmtW8etPTlJsXu2Z3/Y7luWu0pbuWcHL36e7P3atLrg5LFiixPDsumTuP8ct4KScn11/39sZ2AAAAAIis0f3aq+eEbho7e7rmB2nsec2DvaXUbpAmeceN6h1sl6XeI7xreluD2wXbAFBRWTDkKmnY7CHq0vRc//fusO7BvsBMhX8fe+UmDU4KeFgwZLDmnTc6oUznO2YG+4EdDwERVGg2ZJbxG+o3pql69erauGFDvMHflibWYB8LBFjQwspbL4qcnJyE4Ijtd8cYy3NzjLj85KBAOPhhycq587mlBRnyN3j7bcYNb79Nkl69amV/LhELeNSs5m1XSVOV9I3K8E5jc4l4NyLvEP8YO6W7Plu63h+W3PW487ttV96tWwqXddsuz9UX5o4Ln8dYvf59VK2qcRPe959BqgAKAAAAgCjJ1NhJTdXvgUFqH+SY9lePIAABAGVs9JuT1ey8K9Qn2DZ9rk78/Zu43UsDz2sqzZsd70Uy/Y4HNLHpuXro6rZBTi+NurOTFjx2j0YHOcCOpqDlF6igChrqg2CEHwQoCAaEG/2tcd/yLchh68YCI26uEWvYd0EA4wIBrpeFy0sOHLigiiUrZ+Xd+W3bv67g+NiyIFmPkdzcPL9HyAY/aBILOKSlxY5xdVqy87pzuetw503m8t153TW7usJ1uiG2wtcZrtPybF/4vuw6KmdU1pw585WdnRXPBwAAABBlCzX+9dJ8szhxiJaEbyMnzzMS356pIV2LGtYlts/qSRwipn9io54/vExBnvVosXqKPcYE85q4Mp3vyIyfDwC2lwVzZwVrm2OmMicsVLPuJyQEUdSmhZppvmYx1CF2ULRgokLbmBZrrDe2tMBGLBBQEDhwyRr8Lc+Sa/y3wEhGRobf0G95Llldts96nLgeIlbG1qtUqRJv/A8HCoydx12PsXVL7hqMW7dj3Lqd03HH236XLC987bZt53Vlw0urL7zflpaSz2Xrrk5bd+Xcca5Ox227fX59GzYqOydXOTmxuVYAAAAARJn7ZnGfEsagX6iRvd5STzeMi3/M5SXMM2LHXC49UNzQL/LPfZHuDcpM17DOkzUwVYAjzKun4JjR6tfUOyZcrwVDej2uFne6c0/XgLmDNXJhsB8AtoM+x3fyf3817/dWkFMC73fZRY8tVJfLXa+RWZrj/R5r0cb1Dgm0a60W3u/cOVsSawEqMAIiqNDSNhYEISwYkpWVowzr/eH9Z8ELF8xwQYBwkMGEgyOWLNhRrVo11axRw6/Xyll+VlaWP7yWlXX5VrcJ51ly12NLq996X9i6JSvrriVczm3b8S7gYKysu0ZX3lJ427ilq8u4c7mydl82xFUN794s0GP3aMEguz93L+Hj3botk/Pd+apVq6o/Fi/Vgl9+jeehonLf4Cv8YbLwpJnuW3PFfFvO/2aelWOCTQAAgEjx5+gIghX2914RgZEud44oGOal9xXq17TkniVd7gzP/RELvmjSW4l/n3YeoknxoV+kPiO9a9FkjR0TZKSSMFxMWw2+PLHe0Xc9rgVeveE5TfqMtMBJsAEA20P89+1kf1L1i1J+Bg/1xus1TwNmb6X5mYAIISCCii1N/hBT1hj/62+LNH36TOXl5So3CEJYvksWGLDggn+Yt23BAEtWzoIdZv369VqzZo1WrlrlBzKys7P9PFfG1i3fuCCKJeOCBuFzusCJK+eCJuHAh0t2La6sbbtAhku2z9VnycpYvi2N7Uu+HqvDrtcFZlZ597V69WqtW7dOWd692f3ZPhfssXV3XDiFufMZO84CUTbUFyoufxiB1oM1MdiueNwfgARfAAAAto1eGuX3pHCBkeQv1TRVqzbBaqmlOCbFsC7NWhYqpFY2ZP6sYoItLVonDheTYKZmzZO6HN8r2AaA8sR+33q/a5t6v+isd16h37fu97GlYzXWPht3HRqfQwRAYQREULFZO3wQMPhjyRKtXbcuHgCwoIHlG2vEt23j5guxhn4LIoSHzLJybtuSGx7L1o0LDriggQsOuG1jeZZcYMPlWRl3XpfsOq1uuzZbjwUXCoIQ7njb5+7L6rG67Rh3rcad0627Y90zsGOtl4jl23ksGOIkl3fJcfuMXZsdu3LlSi32nnmVKhmqV7dOQnlUFLFxmAdOCjaLMHNubKyAZueNDv7IiqXwN/O2qzFvVeBgDgAAQEVmDXGxIaiGM9cGAGxF3fSQBUZU3O9b73dy5rlqtvAdZfqB5CICxjNma95mBa6BaCAgggptowqGnFq1arXy8vL9YaFcsMEFM9y2Nexbnq273g2u8d/yLOiQHLRwwQc71o6x3hWWrJwdZ/ttaduuTqvLXZctrR5Xd3ifHWv1Wp4lK+eCD26flXXXFq7T7XcBEdtvxxtbujLu+iy58pbc8ba0bdvvjneBlvDxts/u23rQWEDE7tPb4Q+9VaNG9fh1owLqPERjzyt5PIBC445uiaRJK2Mp/E2Xgm6/xU2c6fduuWpysGXjThddTzwlDOtQuvP44sOAFaS+xQ3NAAAAsENoax05tnDi39Smv/6OFjTtpl7xYbRSmPGGxi9sqh4nbtnfqhPfTB76Kzb2PgCUH73Us3OwWipF/H6eNa/k361AhBEQQYWWFjTyW6pdq5Yqecuc3Fy/Qd9YA74Nc2XCQQHbb70/rJHfgg2WVzkUKHDlN2xwc4yk+Q3/1sPC8i3wYckFN9xxLijiAguxOmLBCbftAhd2Tncu23Z5xvJt3ZU37hyurCXj6rZrcT1M7Fh3vKvT1t0xLs+4PGP5Vo/dg6vX9tu2PUt33/b8LN8CUDs1qKv69eghUjG11eD3p2v+yNINDzDxqoJAQLHzh5SG/QEWrBYoYkLMCZer52PhT6NeudJ0AfYDGCmGArNhHVIdX9x5rK544AUAAGBHlam+yXOGzBiq4ZPKYsgp+3JL6G/BYHLgZt1PSBjuyiZVL/hSykwNueTxLWzYc3OKDE74ssvofhV5SFkAUTC6X9Ln4+D3bfzLit5234TP5oV/J/a58lw1S/j95v0e9z7bFky8Dux4CIigYkuLNeJbY3yHPdqqefNmylqX5QcRrNHeDRFljfeW4j0fvDzLt23r/WGBhvU5ecrJzfeXLmVl52itV9+Klav93ig2GbmbeN3qcawOy3f1uWT1WrlwsnK2z7jAh+XbsW7blnZPllzdVsbWXTl3DitvXB3WQ8aSO5/VUclf98p6x9m6PTirw9XjluFrsGdoQRCbUN4CLZZn12FL27by+Rs2aq+O7bzjqviBFERRbEzlZPZBdIuCIv7kcAXDb823br3+jsITYi5Y2FzDgnLxnixBF+A+I718m2zT11T9Mq2cTeDp/SF4bxDAaHquxrrzuLILH9ewTTjP9FnzY9vqFC9jicnqAADADsdNpu5Sr3fUw/sbbMv/LvL+lruzhYbH631cOm90oWFam503RK3udefvo5Hy/tZ7fwsb9uxvU+/vxPAXgMYez6TqALavPsdLA/3fSYP9SdV7Jv++bdc6mFck9DuxxRDND/9ObDdIk7zP2/Piv98GS3fyWRY7trSN1loKbAdTpkxRx44dg63NY+/ejdqgDfkWOEjXwOtu1Stj3tEuuzTwG+mNNfBb47412LsGfVu3PAtsWON+lSqVtUv92sqokqEa1aspw6urcuVYcMACKbb/iy+n6Nffl6hKVet9EguoWMDBsW37cbLydlz4R8vyUv2o2THhpZULs2PccbbPlbM8dw7Lc8fZurtmW9/oLa0Hhz0bm/jcAhgmNy8Yoit/g/K8FAuGVPaPcz1Ewj1T3HmtbguQWDnLtwnan3h4mHr2OMo/zupBxWRDRcV6R1iDvwUUimJDTAXflrNAQ1EfPuM9KixI8bYGF/rGXqieJF38P84K9tvcJfEPwjbUlvfh2HqXxMp5KynPVcTxhfJnle48bQq2nfj5AQAAtlBZfDYqybY4x2bz//ayhr5Ufzc6Nv9dH43vXjhIsnVs6/MBQFG8z7FdZ2vglgZ/t4Jy/W8LUAR6iKBCS/P7bRQECU7udawqpVuwIF3pXrK5Ltx8H4415lvDvjXy5+bmaO3adfpzs8Z6YMi/NOzGi3XToPN0w7/6avCAv+v6K8/Rvweep7vvGKxWf26iH6fP8OrLitfjBxW8pZ3blpb8QEQQxHBLF6iwIIL1wrDkeorYui1tu4Y/H0cNvyeKBWssuf2u14e7dju3Jbs3l9zQVha0WL58uebNnK1OB3bUZWf31N96ddFZvTrpjJ6H6ew+Xf1l7277qe8pR6lZk120YuUq7/j1/hwhdt12Tku27s5jSzu3u58qVauoWdPG/j16mbElIq6XBsZ7T8zzPiZuDvtw6YIhQa+OeA+RMuJPEleG7Fs1/gR2BfxvECYPGQEAAIBoKKO5SQAAQPlCQAQV2sagcT49PdZb4qAD9tGeHdooKytblbw8CyJYo76xcsbKxY6JDSdVtWoVzZ3/s+4a+bLGT/xCX30/S1Omz9H302bpk8+/0atvvKeLL79BH3z0perv1li1atVSnTp1VLt2bX+9Zs2afgoHM9y6JQtq2HW4AIcFPmzbBUbs+uxaLLlAQzjwEd62pQuOWF12Lkvh67DrsvPafaVXq6qpM+ZqyfJV3nGVVK9uHX++j3p1amiXneqp0S4NtGHjBmWvX68N+fnKzl7vn8ed2wI8jsuzZ2aqeNe+bl22Ro8ZH8sPep8gajKTxonO1DA3z0bTFtq8j4dugspQj46Uc4rELJjwRny+j9F3uV4aTdWqjb+SWrsT1COI24SP15i3gkBM4UniSz5PL40Khsoa5iaymze78FwkAAAAqFjG9E8aDtb7G9h6B3e+pJgeKwCwrXifRcth7xCgomLILGw3ZdKtznv3brT/vLexJWu0P/vCf+qzL6eqUcOG/nBYlm89G2xpwQRrvHcszxr9Y0NEbVBlPwCRpsoZ6dYFRLk5ucrJy9cffyxW3oZ8NW/R3D/GBQbC6+GAgUuOW3fnDpcztnR5trS67LrcdYeT7Q+XDe9zdbljLS1btlx1atXQn5s2Ua2a1VStahXle/uzs3O1Jitbvy1eJhtezIJK7tz2PGxprC63bmyfsTzrVXLgPntofOYz3rlsGC1irBVV0UNmFQwxlaioobACxUxC3uXOIdJVqeqMSR4yK6XOQwomgw8NbxUT3ENxE6HHh/sq3XkKnk+ixOG4AAAANg9DZm3nIbMK/T3pCf+9CQBIiSGzUBHReomKLS0WXAinrOz1fiO+CwpYXjiw4AIFtm6N+pbSK1dW9WoZqluntmrYcFVVrPdFTdWsVVsNd91VjRs1jA3M5dXlemtYsgCLW7fzFCV5Xzh44daNK+eu37Ztv62HyzmuXHi/fz/eNbohuGrXrhWbID5noxYtXq2ff1muX35fqaXL18pGErN7yMvLjQ+JZUurK3zNVr9x57Bj/PN65bNzc/08m6geUdRGrQpNJmkBh+I+rJakl0YlDJHl1VfMkFk2cWbChJbJH07bDdJDbhivMJscM0W9FsRImGQuUOJ5khAMAQAAKCP+8KQl/X3ZVoPfn751/v7yzx/rCRxPBEMAAIgkeohguymLKLL/5vXewvY2tkCA9Vjo1vssLVm8Qrvuuqufb8ka+q0R34aosoZ+2zYu4ODm4KgWTKRuAYXYsdbrobKWLFmiX37/TS1btYoHQVwd7hzGBSas3uQggh0TLmvcursOtwznWy8XO5etWzJuv12ncce65AcrvGTrK1as0JpVq9S6ZStt3GD12HXErs3mWlm5bm1C/S454XuyZb73nCoFz2fxkqU6qtNBGvPiY34d7nqALVfQc2PrBh621XkAAACKtsP3EAEAVEj824KKiB4iiARrnLc0e+58/f7bUj/wYYEEC0JYQ74FMWy/4/It2bo1+tvSD1oEgQSfd4jr+WCTtFu9JhwMMf5xwTUYW7r6LbkAhUvhsiZ8nGPrrrdGONnxTrg+t2737Xp72LZdW46Xl5uTo9y8fC/l+cu8/A1eigVCwvOZWDJWpwnfg58XrFuenadp00Z+uQ1BeQAAAAAAAAAojwiIoEJLkwUeChrjZ86a5zf4u8CFNdobF8AwlmcN+26fNe77vRsqxYbAsnzb4w+N5aU0L1n9FlTIysqKBxqsDheIsMBAOM9YIMKdw53TrTvhPJdv9bhrcktXzrbd0vLcfpfsOowL7rhAjb/PS/55rEAx57PkjjPuPFbe8mPrsWean5+nli3+4pfzCsaWAAAAAAAAAFAOERBBhbbRQiIb5TfyW4P9nLnz/QZ8C4isX78+Pjm47XON/hY0CAcK/InXvf8sGGLrFvzwe1F467bfThAbYsorvyFxqC3H1sPbJpyXHGAIs20XiAivu+u1vPD53LYlY3Vb8Mb17rBtY+X844P1+HH2PLw8/+igDnced14X4PGfR5Dn9sfqkl/GJmNv37qlX4e7HgAAAAAAAAAojwiIoELbaP9Z63zQGP/74iWxRn8v2aTi1tC/bt06v/E+HuDw2NIlK2vDYVnkwLZtyCxr+DcuCKANsWBEpbSCYIPjAi7G5dvSzmn1uSCCy3cpzF2zCZcJ5zvuWLffuHLhY42d20p4e/1t+38bAizDAifW+8XygjrcMS6gYvnhOUrsXozluWdXr04ttWj+Zz/f1QOUjV4aFUxouXXn9dhW5wEAAAAAAMD2RkAEFVqagqBBsJ2dnRsb6iroNVGtWjW/t4gf6Aga/N3SjnON/1bWtq2s9aCwpcuzMhstWmK8E9nx4WRBBxf0CG8nBwhs2/Yn51ueBU9cAMW487qytnTJXVc4ufMadx0u5du1VIqVcfdnddgQYZW8fFua5PM57hzuvFZPsMNbj9Ud20y8LwAAAAAAAAAoTwiIoELbGA+FxFSvXtXPyc/L84ePsgCDLV0jvi1do75r6HcN+VbWBRUsOOGve+WsbJ4f4KikDfmxwIeVDQcxXDDB1WXC57S63DldvjufbbsyLrnzW0rFzmfJuGNN+PzGti3oYUGQrJz1Wp8bmwdl9dq1WrtunbLXr/eHBzPu+ky4bpdvS7tmW3fP1MpVr1Y9Vs4/AgAAAAAAAADKJwIiqNDSYl02/AZ5s0uD+rHcSpX8OURcvgUMXE8RF2iwdX+/l6yRf13WOn/OEcvz97vklfMDIkEvC5ccFwyxHhQukOCWxvaFAwzJy3AKc9t2vEvuXOHylmfJtt09ufu09crpsblF0rziebm5sWBLsN9/Vl59fo8RLxnbdku3bvXEyhdclw279cfipfpg0kf+tgWLAAAAAAAAAKC8IiCCCm6jtdwraKNXs2a7+T0ebJ4MCwLYvCEWGLF1F7BwwQOXbBJ1CyCkW9DA22fbxuYScfOJWH3hgIcLFlhywQI3Abmxpavf6rZ9rteHH2Dx1sNBC0su+ODqdddqKXwuS+48bt3V69bDya/LS15h/x7sWVStUsWfY8U9Fydct3HHG3cNjl8uLV0vjn49do5g6CwAAIComH7HMWreLzPYAgAAAFDRERBBhZYW9HBw7fRNd2ska5e3kEZ6eiW/wd8FESy5gIYLboT3mQ3esVafbfuN/0HFVt4l4wIDVs4CAxaMsHUX9HD54XVX3rjjjR0bu4fYeU04EOLYPrftyrq6bemOCR/rl/OfRpoflHHlreeLf1xwXS6Y4up39YXP4/JdsnutXaumvvluhhYtWhx/NgAAAFvXx7rz7+fozL/fpQ+DnDI3Y6g6t26vno8tlCYNVnNvvXnXoZoe7E6Uqb62v3V/jQ5ywvygir8/ljrfMTPYUyC5TOmCMO68Lh2jITOCXYFC9QYp1TUAAAAAOwICIqjQYs308biF6tet6zfMW+P+hg2xAIINlWXbxhr5XdDC5VmZeLAjaPh3gQFjE4e784QDA45bt2NcEMFxeZaS2T471i3telxZVz5ct3Hlw5K33TGuntiQWel+vkvGlnZOO9rVYUs7xvJtv21bsMTybNueneW54IrVu2LlGv24YGG8XgAAgK3lw2EWCBmpb4PtrcKCIb0e14JgM27hPCWHEUb3swDDYE0MtpNZQMIPqoQseKxPQsDD6kgu4wdhiguK+AGb5PMu1MhehYMiAAAAAAoQEEGFZs341hC/cWOsQb9q1SrWqq/s7Gx/2/aFG/TDeW7d5buhssLBEm+n939pqlq5srKzsvx63bFhrh4XWAivJ3Pnc0srZ8ldoyU7hyVbt2uxdXdd4XVX3o53x1m+cWViPTdigQ3jD58V4o5zdblytu64uuw8Vp9dq7Fl5coZ3pLeIQAAYGv6Wc9eeY4e+i7Y3IpG3xULhjQ7b7TGntdU6jxE82ePVj9vtcBMDenaXgMnBZupzBiqi4JAh9U1f/Z0Devsb0qT3or1JvHKDA/qcGXm39kpljHpgSKDG+4apU4aZsfEr2+hRt5VEEiZOTfx/C5Nurqtnw8AAADsaAiIoMLzG+6DRv4qVTJUJaOyv24N+NY7xLjghJW1RvxYkKAgGGFl/flCLCgQ9AfxAwTe0gIE1svCymSvX+9vuzlBbN0FE9wxJny+5GT883nrrpxbGpefnOeW4XUTriM5ucDFho0FAQ3v//w8C4z42wG37uo1doxxeVafu2dj+TVrVtdO9esl1AUAALBV7NVPQ47bJdgoXqz3Riz1HRNkBkNh+fmbNDdIWw1+f4T6BFtxnYfEgiapzJoXBC2aqseJsQBEnyvPVTN/bbLG2jWlKKPex6qLv7JQ419PNbTVTDsspvOxwTW1Va/uwXW4YEtIizYEQAAAAABDQAQVnjXEu7Z4C3TYxOiV0gqGfbJ5RKyMNebb0vJdEMOVcdt+Xd5/3mosL9jv1+v9l7VuXTwY4gIirh5bt+TqTJVM7HoLrseW4RTO88+bVMYFc2zd1WWsfrfuuPNa2Q3eT7sf8PGuz+3z/j9epx0brsPW7V6M5fl1BPdm2y4vJyfHeyY5fjkAAICtY3f97a4n9NzAw4LtkvUZWdCrY+K9sfk/4j0rmp6rsSN72VohfY6P9dCwoa0KDWUVZwGS6ZpfRB1m+qz5wVpztWkXrLZrrRbB6rxZ4WBHKPgx5q34UFgL5s4K1ooQD37MVOYEd63zNSupZ8nEqwqCQ8wfAgAAgB0ZARFUeH4Dvt+4L2Vnr1duTq6qVK3iB0JcgMJYQ75tO+GGfRcQ8OuS5ccCDv5KUK5Semz+EQuIOFaHW7oUDo64bVv69Xls29bd+WyfC7BY3XacLa2cO9YtjVs6tu3qsnqTk91b1WrVvPXYPCKxsrHgSH5+8Gy8FL5mY+WMndvqsHzb7+p117527TotX7HSLwsAAFB+tNXgB4IeGQsf17A73PBUTdXvgUFqb6up9B6R2OsjmFR9UwMJbrgqNW3hXUkRel8RD9r4c4tY0OKqybGMInn3dXkwrJYma6Af6OijkYViN6GeJCF2HoIiAAAA2FEREEEkuEb83NxYr43wUFkWaLD94UZ8t+6WJjkgYGx/ngUB0mxy8nS/rvXr1/tlXDkLGBirJzm5MlZP8jGpku13S5ds2+oyLs9Yvl2vW7qyLlmeC7TY9dsQWQXHekuryw+FeNvB8eFrtqVLrj7XO8WCTcbuy565PSMAAIByp90gPRQENyY+5uYGuVeDXY+NIrS/+m1/ro1wYMQCCfGht0qhbcvg2BSTsZvYMFbW02RIMERWTJc7C7abtWwTrCVJDto0PVfD4tuuR0rQiyU+d0hBvQsmvOH3mAEAAAB2NAREUOG5hnxTrVoVv5E+NoxTrLeF692QlZXlN+wbyzcuYOC2YwEAf9XvHWLblmHVp6dX9retXguK2DHuHC457jwmVmdBUMGth/Pctstzye1z9SeXK6q8pbBKlayHiwUzCo6z2/QW/rp7fsYFRcLncPkusGPP19Ytz4Yoe2TkU34ZAACAyAnNEzLxzU2ZdySFGbNVuNNGL42KBy2ma1SbgjLFzf3hgjZ+en+QVGKPlF4a6IImRQRpAAAAgKgjIIJIcDGMPAsEpMUa7y04YI33trSgiAUvlixZ4jfm+2Xz8vyllbUeD1WqVPF7lmzYEAQVvOOMHzjwUnrldD/f6lm3bl28p4ixOow7n5WzpQu42DEueOICMG5pZY2rw3F1uGXyMXYuWxaXHFu3+v3/KhUM3WX8fC9ZgMMUdV223+W7wIj3f/5y7bpsvwwAAEC5MmOoLgrmAenS2c0NcrmGJM2xETb9jmPKZEip9id2i0+gPjyoLz6HiTqpZ29bztT0hGvJVN9eBfOcDPTLxK4pYSL4Gd5xsTWf7R/oDwfm3eflbjgwr66EieMzNczNiVLcMF4AAABAhBEQQTRY47zn+ykzZEM4Va1aJdZg77EAQHZ2tt/QX7NmTT/fGvWrVavmlavqJ2voX716tR8wycsLAhlBAMIPJnj/pVeyCdtjwQMrbwEOv1wohXum2LYt7XzxawmCD8bqDe93626fHe/K2NLtC9cdTi4vvM/WLdl12dLmDbFAj61bfXYltnTljBsWy85p6xb8sOCPcb1CXHDErqh6taq67prL/f0AAADlx0wNuSQILnQeolEj3XwdCzXyktgk60Vx83n4k6pPGhyfXL3L8UVPol5Iu0Ea0Dm26upzQYtm512hPrFVZV5SMOF589aDgwnVw/OchCZMd5Ooz7pHPePHBNdp7D6DIIovmP+k6LoBAACAHQsBEUSCxQqsYX/duix/aZOFW4O+9fzI8JIFP6z3R40aNYJeIBv8IMnixYv1448/6ocfftAvv/yilStXKm9Dvtbn5mq9tz8n6NmRm5fr1ZWu/LxY0MKOt3wbhsvqcQEH22fJuOBHOIhg3PHG7bNtOz4cyDDuOFenlbP9trTk8sPndfW7si5IY3OIWJ4FemIlY/VZkMTOZ+XsXuwYFwix/SbPO97dj7H6jO2vV6+OGjXc1d8GAAAoH2ZqSFc30XhT9bvSAhmhycgXPq6eCb0nCrS/+pKEOT1ivDoypycGG0qhz8jpGhYERZwud07XpKuL65/RScNmvx2a56StenUPhrrqfGw8kJKs2XmjNX9kOGDTRq3ctCJxyXUDAAAAO5a0ja4VFdjGpkyZoo4dOwZbm8/ewhYAsYDFOx98qH/0G6gmTRpr7dq1fu8P6xXiGvstz5YWKHEBCBNu7K/llbcgivvJ2Oj9Z3uy16/XH4sX+wGVZBY8CCdj53B1GneOcJ4LXrjrcKyM66lhrIwrm1yHcYELO7fVZWXDddu91qldWzVr1PCDOv6cItbjxatno1fV4iVL/Ou1c1qeH0jy7tPW7Xm5+7I6rYzl2bp3papSpbI+eudlNdutSaHrAgAAqMhsKKqecy9JCjQAZa+sPhsVZ1ucAwCwY+HfFlRE9BBBhWeN8NbAbw30Bx+wj/7SrLFWrVql6tWr+8EA681gARHrzWFzfxgLkjRo0ED169f3163nSN26df2lb6MFGWKBBD+okJevyunpfp0WELD5RtxwWxY4cMECO5+dy5IFX9asWeMvLdmQXLYdzrNk12Tl/Z4oQbIhqmyfK28BCMtz92Lb7n4s2bolO8aVdeXtmuyaLVnvEKVXUpoFfLxnlrdxg9YH1+vqsuNtaddryeqw+7Pj/Ufj3acFTCwvI6Oyl7FBVb3nQTAEAAAAAAAAQHlGQAQVnjXQW2O89RKpXauWLr+0r1asWBkPBFiDvgUVLGBgeRbMCAc13FwiFtjw91ljf+V0VbIy1ar6eZWreslbuuCHO97VZckdb0uX58q45AIJLrnjLN8lY0tXn7u2cL223/ZZntUTPtaehytn++14C+RkeOVt38YNG/whsCx5GX7vF9tf23qQWO8Y7xgrZ4Eg18PEnp2t2zlsac/betGsz8lVk8a7qkH9et4xsV4qAAAAUdH+6rfpHQIAAABECAERVHiuZ0Kl9NhwUaefdKLOOO1ErVi5UlUyMuI9J6wXhPUAqVWrVjx44I61AICVs94S1ivE9ZqweURsqCx//f/buxdwq8o6f+A/UgREx0AZQMELKCBy1FLI/l4jlKnwkpbVNON1LM3S5vlHpPlUT38n/l6mMWfIekw0prJEUREdUSPAW5rmX4+CopJx8ZLI7XARgfyvd++1z40jHOAI7XU+n+dZrrXe9e611t7qe569vvt932ydQoZKkJGkcKCiEiKkdZKuUanfWOOeFGk7LalOZTsFEpXXVuqmddqvlFfOm9Yp8EjlaT+FJCngSfvpPJVzlc6brXfu3CW6ZsvOXbIlW++yc9dSCJJeWzlf4/Am7adzpPW6deV5RNL1ksVLl2Vvel1c/p3RpTp//avR9wAAgPdXGsqu34DB2XJ+TMrLAKpRqT17jznNgPePQIRCSA/qKzFDCiQuPv/M2KVrl6hbsbI0fFYKSlIviN13370UGKT6peAjH1pqzZp8YvS175R6UHTuXJ57JIUnaU6R1POke7du+dwiefCRhyE7fKChh0YliKj03qgsDcfLoUZaKsFDOp4Ch3RPFekaaTeVVcKSpBJcVPbTKr23tGSvqj9vWqf7SkOJlc6drZPSvZeW7HXZ+u1SAFTuSZOkdXp9+qx26tQp1mcVV2SfYfocly1fEa+9/kZpqVteF8OPHhaTb7khRnzs6NL1030BAABF9XyMHZ6CiI0tJ8TY2Xl1AFo2+6o4NmszR92wIGLGJeX2c/hVMSs/3NSdcU6pfd14CDzpvEo7vGG9hiC5vBx7xfP5EWifPMGkENKD/tQ/IT2UT2FF//32jZM/8fFY/NaiUu+QtWvXlYKHJYsXx4IFC2PevPnxyp/nxfxs+81Fb8XiJcuirm5F6cH/0mXLY8WKVbFq9duxctXq0npVab06Vr+9JpYtX15e6uqyc6+KlXkPlDQsVzrH8uV12fG60rBdaVmS1tk5l5WW8rHlWb1UtmTJ0tKyePGS7B6y7UavWZLdU6lOvp/qvJUtjeuk16SeMCm0WLlydenaqTzdX3ovdXXluUtWZ8fqsvt7a8niWLR0SfaaJbF69cpYv35t9nmtqw8z1r7zTqzI7u3t7H123qljHDSwf4wccXR87OhhMWrkcXHmP54a5535ubhszFfjzlvGxxFDP1wfhpQjFwAAgFbIHwjq6dFalYeiQieoaqntO/nGmJ/v1lvwcjSPKcohxyUxPd9/T9k5fzQj324mhSGl4KWR+TecqmcK7VqHd9OTZNgOamtro6amJt/beqVIJP+vOW2vX7cuXp47L16Zt6A0HFb37t1izZry5OHLV6yIFXUrS71DPvCBcu+IpPR/Q4eIp55+Lha++nrpQX964J/K07pXrx4x6hPDo2PHnWKH7HU77ZQmFY9S75LV2bnKk52/HYsXLy2FEu+sfSc73iF23LFjdNqpY2lekg906FDqsVGZiyP15kg9PVJo89f1fy1PfJ6dMw0Blo6nuT7Wrl+X3VZ52KuO2Xl27tw5dt65S2kIsFQ/3VsKJDpk97tTdry87BSd814olf104h2y86ZJ0Ltmr+3cpVNpqKt07fQeUgC0ZMmS2GWXXWPvPr2jb589Sz1qWlIZHqzSuyRtV3quAAAArdfW341a0tbXaHjIdkxcPecncWq5uNW29PVbe92qdcf50e+bM7ONPnHenffFJQeWi4HqkkKOb8yI6HvupLguLopRL10Yc68fGGOHXxMDp1XatNQj79S4vkmO8V5tXvO6jeo1Cl/S9WaMGVR//bZqQ7fF3y9oawIRthuNJgAAQAEDkfqH9w2Ou3JWjD8lbbX0oC/T5+yYMm10PF//sK5B5UFe0qpApMVfYDetX/9QMF13XMQF9fXzek3ew4bXariPiqZBRYv32UKo8d730UKdJjby/oG/WS0HIifnRyvydrL/2Jiy/7iNtnmVtqZvnz4xf8Gm25zG7WNDu7zlPNujGhkyCwAAAGgT6WFf8zAkmf7N1oxb/3y88HK+2Uga3mWzxrzPTtI0DElmxjdaHJ7r/kYhRJLVG35CHNvkPWRl9cPLlOdSaRqGJAvi+pMHxzl35Lubrfl9ZOe78L3mFACq1amfOqa0Tu3ahu1IxaC4ZNqsFoKSZmZfFRekc/Q5O667qF9e2GDWC3PzrX4xsNKr7MAB0T/ffPkFc4nQPglEAAAAgK3XaBz79OvnuXNmlZarjy2Xzb/hmpiUP+ibcm6fcmHp18xZvWmjY3DlIWD+uiavnXpX68OBU37S5Bxz7zw7+pYOzIwpzQOLBRH/cGeqNynOq9zSggXR/8pmZS/PKV//jmvqe7ekX1eXr9FQb/q1Wxhi1F+z4T3HgvvjztkRp16flV9Zfoha/qV3qqd3CFSlrH1qaP8y+aTqmz/R+Z1xTilEzdqEcan93NDzL+WNVZ/+WesKVAhEAAAAgK1X3zOjT/zDSQ2P3yq/iI6YGy9sYkLwNPxLejhYWTYcKqo1KhOQ50uTnhfN9Dk+Ti79cnpQDKz8bLrP2fGN0jAyjcpyDb+4PiZG1Q81MyhOHpk/4GxhYuRWqb9m488LKKLBY+4rhZ+Ng5HUY6T1PcxST7XyZOt9z732PecUGrT/xtul/gPFJLRPAhEAAABgqzWEBVvojvMbhpA5dmzT3hKt1vCgMAUzpd4U9T1Etl79L64B2kLW1lWCkel3V4bm24TZd8W9eVOUgpRS8Fs/zF8aHnAjw/fNnhMtjEwI7YpABAAAANhqg086Pg8eFsS9kxt+jzzp7sqDukbj2LegPlBJYUhp7PyW5xTZuBfixdKDwkaTCLc4p8iWaei90Xj4refjzqnvNTRNQ6+Yhs8BaK9SL7jNHx5ryzS0yTPjR/k1J/2w0mOucS83aF8EIgAAAMDWO3B0XFw/X0j+q+VsqQx71ffcr9fPezF4YGUC4PKvmfsNvyrq+5fkY+r3G3Bq/Xwdm688yXnTX063gVO+3jBfyDfz8ze6z+MuKo/l3/D+Gu5jy4b/yg3sXx82lc/X0gTxQDWotI+lHnFZe1fpGXfcpzYxiXpF1tbOKM1f1Gipn2eoPC/T+BR2tNAmt9QeQ3sjEAEAAADaRJoAvMmEwSXloatmjGnUd+KUn2wwHFa/Mfc1KUsTs2/+kFknx/gmQ2QdE1e34ZBZab6QNPH7hvfV6CFk0nzi5D5nx5T6B5Zb4MDRcd0GnytQbQaPuTCOy7cblNvI+vajDaU2uXl7ddyVzdpjaGc6vJvJt2Gbqq2tjZqamnwPAACgfdoW3418/wL425KGzxr10oX5EIHVyd8WqpEeIgAAAAAAQOEJRAAAAAAAtqHBY+6r6t4hUK0EIgAAAAAAQOEJRAAAAAAAgMITiAAAAAAAAIUnEAEAAAAAAApPIAIAAAAAABSeQAQAAAAAACg8gQgAAAAAAFB4AhEAAAAAAKDwBCIAAAAAAEDhCUQAAAAAAIDCE4gAAAAAAACFJxABAAAAAAAKTyACAAAAAAAUnkAEAAAAAAAoPIEIAAAAAABQeAIRAAAAAACg8AQiAAAAAABA4QlEAAAAAACAwhOIAAAAAAAAhScQAQAAAAAACk8gAgAAAAAAFJ5ABAAAAAAAKDyBCAAAAAAAUHgCEQAAAAAAoPAEIgAAAAAAQOEJRAAAAAAAgMLr8G4m34Ztqra2NmpqavI9AACA9mlbfDd6P65x869viZsmTIg//XlerFu7Li8F4G/Jjh13jP322TvOOuOM+MLnT89L24Zne1QjgQjbTVs0mr9/7PF8CwAAYPs44iPD8q0tU42ByMhPjooXX5qb7wFQDQ7Yv19MvWdKvrf1BCJUI4EI241GEwAAoPoCkcM+cmQsWbIk3wOgmnTr1i2efOzhfG/reLZHNTKHCAAAANAqqWeIMASgeqU2PLXl0F4JRAAAAIBNSnOGGCYLoPqltjy16dAeCUQAAACATUoTqANQDNp02iuBCAAAALBJf/rzvHwLgGqnTae9EogAAAAAm7Ru7bp8C4Bqp02nvRKIAAAAAAAAhScQAQAAAAAACk8gAgAAAAAAFJ5ABAAAAAAAKDyBCAAAAAAAUHgCEQAAAAAAoPAEIgAAAAAAQOEJRAAAAAAAgMITiAAAAAAAAIUnEAEAAAAAAApPIAIAAABAu3fauJkxd87EuCTf35a257UB2hOBCAAAAACN9IuTR18bk2c8Fs/OmhVz56SlNmb/8aH43YT/E2ce1SuvBwDVRSACAAAAQNnQC+OXj9wR/3Hex+KALkvjT88+GJMnTInp/29OvL7+72KfI06Lr3zhiLxyG/qnf4upM+6Naz6d77MdfDGuvGda/O6Hp+T7AMUjEAEAAAAgYujomPyzC+OjH3wzpv/7+TF82Mg48fQvx9cv/2acc/pp8bGhJ8SZ//5AvLQsr9+W9hoQB/TeOTrlu2wPe8ag/XvFzv4lAAUmEAEAAABo94bE6G9+Pobs9EZM/e4X45yfPhyv5UcavB4P/vSi+OKld+T7AFBdBCIAAAAA7d2IM+KkQ7rE0kdvjO9PfD0vbK1ecfSXr4zJMx6P2bPLc468WPt4PHz7lfGloXmV9zQ6Jqc5Ss49KNveI0Zekc9Z8vC1cVq5QmZrzt+g91FfimtunxbP1NaWrzH7qXjygavjjPx4vd5HxgXjJseTeb05T0+LWy8dGb3zw/V6j4zLJkytr/di7SPxuwnfik9uUHEzrt1I789eG49k7/fFxybExY3fZ79R8d3sun94+pnyueY8E88+OjV+2fweP31tPJYdnzwm32+k+STul0xK5zk7hmTbPY7/QX7emXGdIcyAghGIAAAAALRzBx9zYOwVdVE7c0ILPUM2pld87ke/jBv+96gY1HFeTL/tF3HThF/E3U8ti10HjYpv/WxiXLLR0OLJmJzVv+mRhdl2XTx3d/n1N02cHi+Wjm/t+ctSuHDb9V+PkwZ2jFdm3l6+xm0PxsLOPaNnXqesa3x03H/EBf1fjft+c3PcdMvMWJDdw4fP+l7837MaTSbf+zNx3S1XxzlDd4nX8/Pd+vvFsfvQM+JHvxgbJ+TVktZfu0HvT3w3brxsRPRY/UyM/2p2zj/kB4aOjkm3jo0zh3aL1U/fWz7XLdNj7ru946NnXR23jfvMhsFNKzwxJX2uj2bvNfu3MOue8nkn3BrTXiofByiKDu9m8m3Ypmpra6OmpibfAwAAaJ+2xXejtrhGvwGD8y2KKPUYuOr4ZfGr006My2rzwtZIvRCuGBFdn70xzjn1qng8L05KQcD3R0S3p8fF8M+P23jQMmZizD23Z0wdc0xccHtelrTF+XufH7++96IYFs/F9f/y2RhbCReaKX8Ge8SqZtfqfdb1cfelR0aXP1wbB37xJ6Wyct2IB759enypUY+aYZdOip+ftV88fc2H4vM/zgo269pvxPUDsjqluVxSb43mrxkSl0z67zjvwKUx9TtfiAua9OQ5PDv20zhvyJKY/JUR8fUHsqL8s3vjhsFx0hXlWhVNrpeXlXvrnB097780PnKhYdHag9QTaGt4tkc10kMEAAAAgMzaeHtRvlkvH9Kq8dJoOKtzTvxI9IhX44EfNw0rktcm/iDumr0+Oh1ydPxTXra52uL8vc/4eBzWZU08+bOvvWcg0WBxPHJz02u9dtODUVsX0anLrnnJGXHSEXtEvPTb+K9mw4s9fuPj8XJ0iv0OOqW0v3nXzgw9J37+wzNKYcj4C5u9pua0OG5Ip1jz9K0tDGv2RIz974fjzdgzhp34qbwMgOYEIgAAAADt3Dvr1mf//PvY+6jyfoN8SKvSck88V5cX53p+cNeIuj/FM6lHwgZejzmvLYnYoWfsMyov2kxtcf7/tXfP2CEWxAvTWzM3yl9i3kP5Zr3lsertbNWzbx4E9YxuKRvZ/3NxR/OwaMYZkfpS9eh9QKnm5l27Z5z4w3+Noz/4aky+/Gtx+UPNXrP/7vHBbDVvzoyWe8PcPj/eyFY99ixfG4ANCUQAAAAA2rm7Xpgfa6J7HHjEx/OSimnxs8t/EN8vLQ/FghQMVKWWer+0ZH2sb+UkKitfmJoHRS0sU57MayWtvfaKWDhveazvtEccPPSoLZoLBICNE4gAAAAAtHc/vjceXRax14jzWzVJecUbS+sidt0vDh6RFzTRKwb07haxZn48PyUv2kxtcf63Vq7O/rlfDPl0eX/r1cWqNRFdd1gad9SHRc2W8dNKNTfv2ivjj1+8OMY/G7HvKZfETy89smko8tJbsTRb7T3g2JbDkk/3LU3SvvBPjcOYiD32bD6EVv65AbRDAhEAAACAdu9X8e0bn4hVXQ6Kc/5rQnzjqF55+caN/+1TsTT2jBFfGR3D8rKK3p+9NE48cIdY9cwjcVtetnHdome/fDPXFuefPvGReHF9pzjsC9fG59qk28Ud8ehzayL2/3h89bMb/5w2/9pPxNgLx8Y9r3aMIWddGz8dc3henqm9LX4/J82Z8pn4zgbXPTwu+ecjo8f6+fHEfQ+Wi/IApccBhzf97IZ+OY7LPrf30v3v9823AIqnw7uZfBu2qdra2qipqcn3AAAA2qdt8d2oLa7Rb0CaGYGiG/a1CXHdVw6Pbjusi2XzXoy5r7wcT78Sse/B/WO//Q6IfXbbMeKNqXHx0f8ad5Ve0Ss+N+7muPz4nvHuolnx22l/jNfejug+4GMxfOhe0WXRA3HZ6RfFbzY1DNWnr43HrhgR3d/4Q9w69YXYbZ+d47fnXRa3tdH5h42ZGOPPPSg6rVgYj//ud/HCkqyw2z5x5Ed2jgeO+ue4Kts9bdzMuOr4N+L6AZ+NsaVXVZwS1z38gxgZD8ToIy8qhy9DR8fkn50dQ3ZaEQv+MD0emJOih+y+9j0sDjlkTdw39B/rz7FF1+79mbjulu/GyJ7vxLM3fDlOuuKJVNrydTv3isOHHxdD9ljbtG4MidETfx4XHLJTrJj7cNz90LxY3e2AOGHEoFi5cH0csP9rzd5r/j67vxGP3XZ/zN5t7+g67fwYc3t+mMJJ895sDc/2qEY7fC+Tb8M29Ze//CV69kydOQEAANqvbfHdqC2u8aP/HJdvUWQLH7897np6aezas3/su0+f2OeAwfHhQwZE325dYoflC+PRe6+L746+Ku5fkb8gVsRz90yNl3fcLwYMOSgOG3pYVv/g6L/7qnhpxi/j8q99L+5ozZwczz8VdX2PjGGH1sRhHzoo+q6dFRN/NT1eaaPzL3z4wah9Z/cYMHBQDDn08Dj8QwfHkL13jVXPz4yJtz8Sc7M6gz91dpzQf2X88T8nRtN51QfFqHM/Hvtnte4f/z8xOxW9+khMf3Zt9BgwIA46+MMxNDvfoUMGxl5/tzZefuDXcfO052Jh6bVbeO0Vs+LuZ3eJY0d+OA4eOjKO3eWp+M3Dr5aue/OTi6J3/4Oj5uBDYthhh8ahg/aKjoufirt++J049yeVMCT5Szzy0J9j10M/FDUDDooPpev2ejt+/+NvxcTOJ7TwXp+PP9b1iaOHHhKHZOet6bs2nr315vjtn/PDFM7FX7sw39oynu1RjfQQYbuRIgMAAOghAsD2oYcI7ZE5RAAAAAAAgMITiAAAAAAAAIUnEAEAAAAAAApPIAIAAAAAABSeQITtpkuXLrFy5cp8DwAAoP1J34nSdyMAAN5/AhG2m9122y0WL16c7wEAALQ/6TtR+m4EAMD7TyDCdtOjR49Ys2ZNLFq0KC8BAABoP9J3ofSdKH03AgDg/ScQYbvq27dvLF26NObPn2/4LAAAoF1I333Sd6D0XSh9J6oWO3bcMd8CoNpp02mvOrybybdhu3nzzTdj2bJlsXr16rwEAACgmNKcIWmYrG3ZM6S2tjZqamryvS0z8pOj4sWX5uZ7AFSzA/bvF1PvmZLvbZm2+NsC25pABAAAAAquLR5a3fzrW+Lb3/levgdANfu3738vvvD50/O9LSMQoRoZMgsAAADYpPTgLP2iGIDqltryrQ1DoFoJRAAAAIBWScOrdOvWLd8DoNqkNnxrh8qCaiYQAQAAAFrtycce1lMEoAqltju14dCeCUQAAACAzZJ+XZzGn08P13bsuGNeCsDfmtRGp7Y6tdl6hoBJ1QEAAKDwTHwLQFvzt4VqpIcIAAAAAABQeAIRAAAAAACg8AQiAAAAAABA4QlEAAAAAACAwhOIAAAAAAAAhScQAQAAAAAACk8gAgAAAAAAFJ5ABAAAAAAAKDyBCAAAAAAAUHgCEQAAAAAAoPAEIgAAAAAAQOEJRAAAAKDgunTpEitXrsz3AGDrpL8p6W8LVBuBCAAAABTcbrvtFosXL873AGDrpL8p6W8LVBuBCAAAABRcjx49Ys2aNbFo0aK8BAC2TPpbkv6mpL8tUG06vJvJtwEAAICCSg+v5s+fH506dYru3btH165d8yMAsGlpmKzUMyT9Penbt2/p7wlUG4EIAAAAtCNvvvlmLFu2LFavXp2XAMCmpTlD0jBZeoZQzQQiAAAAAABA4ZlDBAAAAAAAKDyBCAAAAAAAUHgCEQAAAAAAoPAEIgAAAAAAQOEJRAAAAAAAgMITiAAAAAAAAIUnEAEAAAAAAApPIAIAAAAAABSeQAQAAAAAACg8gQgAAAAAAFB4AhEAAAAAAKDwBCIAAAAAAEDhCUQAAAAAAIDCE4gAAAAAAACFJxABAAAAAAAKTyACAAAAAAAUnkAEAAAAAAAoPIEIAAAAAABQeAIRAAAAAACg8AQiAAAAAABA4QlEAAAAAACAwhOIAAAAAAAAhScQAQAAAAAACk8gAgAAAAAAFJ5ABAAAAAAAKDyBCAAAAAAAUHgCEQAAAAAAoPAEIgAAAAAAQOEJRAAAAAAAgMITiAAAAAAAAIUnEAEAAAAAAApPIAIAAAAAABSeQAQAAAAAACg8gQgAAAAAAFB4AhEAAAAAAKDwBCIAAAAAAEDhCUQAAAAAAIDCE4gAAAAAAACFJxABAAAAAAAKTyACAAAAAAAUnkAEAAAAAAAoPIEIAAAAAABQeAIRAAAAAACg8AQiAAAAAABA4QlEAAAAAACAwhOIAAAAAAAAhScQAQAAAAAACk8gAgAAAAAAFJ5ABAAAAAAAKDyBCAAAAAAAUHgCEQAAAAAAoPAEIgAAAAAAQOEJRAAAAAAAgMITiAAAAAAAAIUnEAEAAAAAAApPIAIAAAAAABSeQAQAAAAAACg8gQgAAAAAAFB4AhEAAAAAAKDwBCIAAAAAAEDhCUQAAAAAAIDCE4gAAAAAAACFJxABAAAAAAAKTyACAAAAAAAUnkAEAAAAAAAoPIEIAAAAAABQeAIRAAAAAACg8AQiAAAAAABA4QlEAAAAAACAwhOIAAAAAAAAhScQAQAAAAAACk8gAgAAAAAAFJ5ABAAAAAAAKDyBCAAAAAAAUHgCEQAAAAAAoPAEIgAAAAAAQOEJRAAAAAAAgMITiAAAAAAAAIUnEAEAAAAAAApPIAIAAAAAABSeQAQAAAAAACg8gQgAAAAAAFBwEf8fdvCScX43tTgAAAAASUVORK5CYII=;" vertex="1" parent="1">
                    <mxGeometry x="153.28" y="480" width="259.24" height="100.53" as="geometry"/>
                </mxCell>
            </root>
        </mxGraphModel>
    </diagram>
</mxfile>